solid Default
  facet normal 1.000000e+00 7.782523e-06 2.113991e-06
    outer loop
      vertex 2.416082e+01 -1.038850e+00 2.630140e+01
      vertex 2.416082e+01 -1.773600e+00 2.757404e+01
      vertex 2.416084e+01 -3.361110e+00 2.482440e+01
    endloop
  endfacet
  facet normal 1.000000e+00 8.241904e-06 1.391711e-06
    outer loop
      vertex 2.416084e+01 -3.361110e+00 2.482440e+01
      vertex 2.416083e+01 -1.891590e+00 2.482440e+01
      vertex 2.416082e+01 -1.038850e+00 2.630140e+01
    endloop
  endfacet
  facet normal 1.000000e+00 7.629393e-06 -2.025608e-06
    outer loop
      vertex 2.416080e+01 6.666298e-01 2.630140e+01
      vertex 2.416080e+01 1.401400e+00 2.757404e+01
      vertex 2.416082e+01 -1.773600e+00 2.757404e+01
    endloop
  endfacet
  facet normal 1.000000e+00 1.065243e-05 3.770925e-06
    outer loop
      vertex 2.416082e+01 -1.773600e+00 2.757404e+01
      vertex 2.416082e+01 -1.038850e+00 2.630140e+01
      vertex 2.416080e+01 6.666298e-01 2.630140e+01
    endloop
  endfacet
  facet normal 1.000000e+00 8.241916e-06 3.536298e-07
    outer loop
      vertex 2.416080e+01 1.519369e+00 2.482440e+01
      vertex 2.416078e+01 2.988890e+00 2.482440e+01
      vertex 2.416080e+01 1.401400e+00 2.757404e+01
    endloop
  endfacet
  facet normal 1.000000e+00 3.835876e-06 1.645831e-07
    outer loop
      vertex 2.416080e+01 1.401400e+00 2.757404e+01
      vertex 2.416080e+01 6.666298e-01 2.630140e+01
      vertex 2.416080e+01 1.519369e+00 2.482440e+01
    endloop
  endfacet
  facet normal 1.000000e+00 8.889327e-06 3.737816e-07
    outer loop
      vertex 2.416080e+01 6.666298e-01 2.334742e+01
      vertex 2.416080e+01 1.401390e+00 2.207478e+01
      vertex 2.416078e+01 2.988890e+00 2.482440e+01
    endloop
  endfacet
  facet normal 1.000000e+00 8.241916e-06 1.391707e-06
    outer loop
      vertex 2.416078e+01 2.988890e+00 2.482440e+01
      vertex 2.416080e+01 1.519369e+00 2.482440e+01
      vertex 2.416080e+01 6.666298e-01 2.334742e+01
    endloop
  endfacet
  facet normal 1.000000e+00 8.583062e-06 -1.969755e-07
    outer loop
      vertex 2.416082e+01 -1.038850e+00 2.334742e+01
      vertex 2.416083e+01 -1.773610e+00 2.207478e+01
      vertex 2.416080e+01 1.401390e+00 2.207478e+01
    endloop
  endfacet
  facet normal 1.000000e+00 8.877021e-06 3.666768e-07
    outer loop
      vertex 2.416080e+01 1.401390e+00 2.207478e+01
      vertex 2.416080e+01 6.666298e-01 2.334742e+01
      vertex 2.416082e+01 -1.038850e+00 2.334742e+01
    endloop
  endfacet
  facet normal 1.000000e+00 8.241904e-06 3.536263e-07
    outer loop
      vertex 2.416083e+01 -1.891590e+00 2.482440e+01
      vertex 2.416084e+01 -3.361110e+00 2.482440e+01
      vertex 2.416083e+01 -1.773610e+00 2.207478e+01
    endloop
  endfacet
  facet normal 1.000000e+00 7.671763e-06 3.291639e-07
    outer loop
      vertex 2.416083e+01 -1.773610e+00 2.207478e+01
      vertex 2.416082e+01 -1.038850e+00 2.334742e+01
      vertex 2.416083e+01 -1.891590e+00 2.482440e+01
    endloop
  endfacet
  facet normal 0.000000e+00 3.673940e-16 -1.000000e+00
    outer loop
      vertex 2.416080e+01 1.401390e+00 2.207478e+01
      vertex 2.416083e+01 -1.773610e+00 2.207478e+01
      vertex 2.130206e+01 -1.773630e+00 2.207478e+01
    endloop
  endfacet
  facet normal 0.000000e+00 3.673940e-16 -1.000000e+00
    outer loop
      vertex 2.130206e+01 -1.773630e+00 2.207478e+01
      vertex 2.130203e+01 1.401369e+00 2.207478e+01
      vertex 2.416080e+01 1.401390e+00 2.207478e+01
    endloop
  endfacet
  facet normal 6.345186e-11 -7.101617e-06 -1.000000e+00
    outer loop
      vertex 2.416080e+01 6.666298e-01 2.334742e+01
      vertex 2.771913e+01 6.666603e-01 2.334742e+01
      vertex 2.771915e+01 -1.038820e+00 2.334743e+01
    endloop
  endfacet
  facet normal 3.403751e-06 3.021555e-11 -1.000000e+00
    outer loop
      vertex 2.771915e+01 -1.038820e+00 2.334743e+01
      vertex 2.416082e+01 -1.038850e+00 2.334742e+01
      vertex 2.416080e+01 6.666298e-01 2.334742e+01
    endloop
  endfacet
  facet normal -7.338158e-06 8.660264e-01 4.999982e-01
    outer loop
      vertex 2.416080e+01 1.401400e+00 2.757404e+01
      vertex 2.416078e+01 2.988890e+00 2.482440e+01
      vertex 2.130202e+01 2.988871e+00 2.482440e+01
    endloop
  endfacet
  facet normal -1.037376e-05 8.660251e-01 5.000007e-01
    outer loop
      vertex 2.130202e+01 2.988871e+00 2.482440e+01
      vertex 2.130203e+01 1.401369e+00 2.757403e+01
      vertex 2.416080e+01 1.401400e+00 2.757404e+01
    endloop
  endfacet
  facet normal 6.366395e-06 -8.660254e-01 4.999999e-01
    outer loop
      vertex 2.416084e+01 -3.361110e+00 2.482440e+01
      vertex 2.416082e+01 -1.773600e+00 2.757404e+01
      vertex 2.130206e+01 -1.773630e+00 2.757403e+01
    endloop
  endfacet
  facet normal 7.338131e-06 -8.660251e-01 5.000007e-01
    outer loop
      vertex 2.130206e+01 -1.773630e+00 2.757403e+01
      vertex 2.130207e+01 -3.361130e+00 2.482440e+01
      vertex 2.416084e+01 -3.361110e+00 2.482440e+01
    endloop
  endfacet
  facet normal -6.879502e-06 8.660248e-01 -5.000010e-01
    outer loop
      vertex 2.416078e+01 2.988890e+00 2.482440e+01
      vertex 2.416080e+01 1.401390e+00 2.207478e+01
      vertex 2.130203e+01 1.401369e+00 2.207478e+01
    endloop
  endfacet
  facet normal -7.338147e-06 8.660251e-01 -5.000007e-01
    outer loop
      vertex 2.130203e+01 1.401369e+00 2.207478e+01
      vertex 2.130202e+01 2.988871e+00 2.482440e+01
      vertex 2.416078e+01 2.988890e+00 2.482440e+01
    endloop
  endfacet
  facet normal -9.439683e-06 8.660261e-01 4.999990e-01
    outer loop
      vertex 2.771912e+01 1.519400e+00 2.482442e+01
      vertex 2.416080e+01 1.519369e+00 2.482440e+01
      vertex 2.416080e+01 6.666298e-01 2.630140e+01
    endloop
  endfacet
  facet normal -9.808143e-06 8.660265e-01 4.999982e-01
    outer loop
      vertex 2.416080e+01 6.666298e-01 2.630140e+01
      vertex 2.771913e+01 6.666698e-01 2.630141e+01
      vertex 2.771912e+01 1.519400e+00 2.482442e+01
    endloop
  endfacet
  facet normal -4.236682e-06 -3.232369e-11 1.000000e+00
    outer loop
      vertex 2.416082e+01 -1.773600e+00 2.757404e+01
      vertex 2.416080e+01 1.401400e+00 2.757404e+01
      vertex 2.130203e+01 1.401369e+00 2.757403e+01
    endloop
  endfacet
  facet normal -4.236682e-06 -3.232367e-11 1.000000e+00
    outer loop
      vertex 2.130203e+01 1.401369e+00 2.757403e+01
      vertex 2.130206e+01 -1.773630e+00 2.757403e+01
      vertex 2.416082e+01 -1.773600e+00 2.757404e+01
    endloop
  endfacet
  facet normal -3.403748e-06 -3.625856e-11 1.000000e+00
    outer loop
      vertex 2.771913e+01 6.666698e-01 2.630141e+01
      vertex 2.416080e+01 6.666298e-01 2.630140e+01
      vertex 2.416082e+01 -1.038850e+00 2.630140e+01
    endloop
  endfacet
  facet normal -3.403751e-06 -3.021555e-11 1.000000e+00
    outer loop
      vertex 2.416082e+01 -1.038850e+00 2.630140e+01
      vertex 2.771914e+01 -1.038810e+00 2.630141e+01
      vertex 2.771913e+01 6.666698e-01 2.630141e+01
    endloop
  endfacet
  facet normal 7.338130e-06 -8.660250e-01 -5.000008e-01
    outer loop
      vertex 2.416084e+01 -3.361110e+00 2.482440e+01
      vertex 2.130207e+01 -3.361130e+00 2.482440e+01
      vertex 2.130206e+01 -1.773630e+00 2.207478e+01
    endloop
  endfacet
  facet normal 6.420867e-06 -8.660253e-01 -5.000001e-01
    outer loop
      vertex 2.130206e+01 -1.773630e+00 2.207478e+01
      vertex 2.416083e+01 -1.773610e+00 2.207478e+01
      vertex 2.416084e+01 -3.361110e+00 2.482440e+01
    endloop
  endfacet
  facet normal 9.623914e-06 -8.660251e-01 -5.000007e-01
    outer loop
      vertex 2.771915e+01 -1.038820e+00 2.334743e+01
      vertex 2.771915e+01 -1.891550e+00 2.482442e+01
      vertex 2.416083e+01 -1.891590e+00 2.482440e+01
    endloop
  endfacet
  facet normal 9.439677e-06 -8.660248e-01 -5.000010e-01
    outer loop
      vertex 2.416083e+01 -1.891590e+00 2.482440e+01
      vertex 2.416082e+01 -1.038850e+00 2.334742e+01
      vertex 2.771915e+01 -1.038820e+00 2.334743e+01
    endloop
  endfacet
  facet normal -7.737806e-06 8.660256e-01 -4.999996e-01
    outer loop
      vertex 2.771912e+01 1.519400e+00 2.482442e+01
      vertex 2.771913e+01 6.666603e-01 2.334742e+01
      vertex 2.416080e+01 6.666298e-01 2.334742e+01
    endloop
  endfacet
  facet normal -6.035907e-06 8.660239e-01 -5.000026e-01
    outer loop
      vertex 2.416080e+01 6.666298e-01 2.334742e+01
      vertex 2.416080e+01 1.519369e+00 2.482440e+01
      vertex 2.771912e+01 1.519400e+00 2.482442e+01
    endloop
  endfacet
  facet normal 6.220173e-06 -8.660261e-01 4.999990e-01
    outer loop
      vertex 2.771915e+01 -1.891550e+00 2.482442e+01
      vertex 2.771914e+01 -1.038810e+00 2.630141e+01
      vertex 2.416082e+01 -1.038850e+00 2.630140e+01
    endloop
  endfacet
  facet normal 6.220173e-06 -8.660261e-01 4.999990e-01
    outer loop
      vertex 2.416082e+01 -1.038850e+00 2.630140e+01
      vertex 2.416083e+01 -1.891590e+00 2.482440e+01
      vertex 2.771915e+01 -1.891550e+00 2.482442e+01
    endloop
  endfacet
  facet normal 4.306867e-06 -1.000000e+00 -3.673940e-16
    outer loop
      vertex -2.323859e+01 2.995190e+00 -1.399111e+00
      vertex -2.112945e+01 2.995190e+00 -2.491600e+00
      vertex -2.323859e+01 2.995190e+00 -5.375805e-01
    endloop
  endfacet
  facet normal 4.948392e-06 -1.000000e+00 6.924485e-07
    outer loop
      vertex -2.112945e+01 2.995190e+00 -2.491600e+00
      vertex -2.323860e+01 2.995190e+00 1.648890e+00
      vertex -2.323859e+01 2.995190e+00 -5.375805e-01
    endloop
  endfacet
  facet normal 1.000000e+00 4.676497e-06 1.718117e-21
    outer loop
      vertex -2.323855e+01 -4.774520e+00 -1.399111e+00
      vertex -2.323859e+01 2.995190e+00 -1.399111e+00
      vertex -2.323859e+01 2.995190e+00 -5.375805e-01
    endloop
  endfacet
  facet normal 4.967058e-06 -1.000000e+00 2.353768e-07
    outer loop
      vertex -2.112945e+01 2.995190e+00 -2.491600e+00
      vertex -2.323861e+01 2.995190e+00 9.856712e+00
      vertex -2.628661e+01 2.995171e+00 9.856700e+00
    endloop
  endfacet
  facet normal 6.101427e-06 -1.000000e+00 3.689175e-07
    outer loop
      vertex 2.281038e+01 1.577003e+01 1.408934e+01
      vertex 2.356257e+01 1.577003e+01 1.648990e+00
      vertex 2.356256e+01 1.577003e+01 9.856809e+00
    endloop
  endfacet
  facet normal -4.988987e-06 1.000000e+00 8.303302e-07
    outer loop
      vertex 9.716728e+00 -1.576987e+01 7.276431e+00
      vertex 8.863988e+00 -1.576988e+01 5.799438e+00
      vertex -2.112936e+01 -1.577002e+01 6.250200e-01
    endloop
  endfacet
  facet normal -5.326238e-06 1.000000e+00 1.119299e-06
    outer loop
      vertex 2.130216e+01 -1.576982e+01 1.100767e+01
      vertex 1.142220e+01 -1.576987e+01 7.276455e+00
      vertex 9.716728e+00 -1.576987e+01 7.276431e+00
    endloop
  endfacet
  facet normal 0.000000e+00 -1.000000e+00 -3.673940e-16
    outer loop
      vertex 2.771943e+01 1.577004e+01 -2.491501e+00
      vertex 2.661057e+01 1.577004e+01 1.648990e+00
      vertex 2.661058e+01 1.577004e+01 -1.399010e+00
    endloop
  endfacet
  facet normal 4.967053e-06 -1.000000e+00 6.938441e-07
    outer loop
      vertex -2.628659e+01 2.995171e+00 1.648870e+00
      vertex -2.323860e+01 2.995190e+00 1.648890e+00
      vertex -2.771958e+01 2.995171e+00 1.408923e+01
    endloop
  endfacet
  facet normal 5.039599e-06 -1.000000e+00 3.940210e-07
    outer loop
      vertex 2.130217e+01 -1.177253e+01 -2.491501e+00
      vertex 1.374445e+01 -1.177256e+01 5.799462e+00
      vertex 1.215696e+01 -1.177257e+01 3.049820e+00
    endloop
  endfacet
  facet normal 4.912722e-06 -1.000000e+00 4.672729e-07
    outer loop
      vertex 7.394452e+00 -1.177259e+01 5.799438e+00
      vertex 8.981946e+00 -1.177259e+01 8.549076e+00
      vertex -2.112941e+01 -1.177273e+01 1.408924e+01
    endloop
  endfacet
  facet normal -4.728441e-06 1.000000e+00 -6.799157e-07
    outer loop
      vertex 8.863988e+00 -1.576988e+01 5.799438e+00
      vertex 9.716728e+00 -1.576987e+01 4.322470e+00
      vertex -2.112936e+01 -1.577002e+01 6.250200e-01
    endloop
  endfacet
  facet normal 4.025545e-06 -1.000000e+00 3.998656e-12
    outer loop
      vertex 2.356256e+01 1.577003e+01 9.856809e+00
      vertex 2.356255e+01 1.577003e+01 1.290481e+01
      vertex 2.281038e+01 1.577003e+01 1.408934e+01
    endloop
  endfacet
  facet normal 4.105841e-07 -1.000000e+00 4.967039e-07
    outer loop
      vertex -2.628661e+01 2.995171e+00 9.856700e+00
      vertex -2.628661e+01 2.995171e+00 1.290471e+01
      vertex -2.771958e+01 2.995171e+00 1.408923e+01
    endloop
  endfacet
  facet normal 4.768362e-06 -1.000000e+00 -5.361750e-08
    outer loop
      vertex 1.215696e+01 -1.177257e+01 3.049820e+00
      vertex 8.981952e+00 -1.177259e+01 3.049820e+00
      vertex 2.130217e+01 -1.177253e+01 -2.491501e+00
    endloop
  endfacet
  facet normal 4.778643e-06 -1.000000e+00 5.930552e-09
    outer loop
      vertex 8.981952e+00 -1.177259e+01 3.049820e+00
      vertex 7.394452e+00 -1.177259e+01 5.799438e+00
      vertex -2.112941e+01 -1.177273e+01 1.408924e+01
    endloop
  endfacet
  facet normal -4.663187e-06 1.000000e+00 6.422204e-07
    outer loop
      vertex 2.130217e+01 -1.576982e+01 6.250696e-01
      vertex 1.142221e+01 -1.576987e+01 4.322470e+00
      vertex 1.227495e+01 -1.576986e+01 5.799462e+00
    endloop
  endfacet
  facet normal 4.967058e-06 -1.000000e+00 3.689154e-07
    outer loop
      vertex 2.661057e+01 1.577004e+01 1.648990e+00
      vertex 2.356256e+01 1.577003e+01 9.856809e+00
      vertex 2.356257e+01 1.577003e+01 1.648990e+00
    endloop
  endfacet
  facet normal 4.912694e-06 -1.000000e+00 6.742645e-07
    outer loop
      vertex -2.112945e+01 2.995190e+00 -2.491600e+00
      vertex -2.771958e+01 2.995171e+00 1.408923e+01
      vertex -2.323860e+01 2.995190e+00 1.648890e+00
    endloop
  endfacet
  facet normal -2.777945e-05 1.000000e+00 -9.762758e-06
    outer loop
      vertex -2.112945e+01 2.995190e+00 -2.491600e+00
      vertex -2.628661e+01 2.995171e+00 9.856700e+00
      vertex -2.771958e+01 2.995171e+00 1.408923e+01
    endloop
  endfacet
  facet normal 4.967053e-06 -1.000000e+00 6.912485e-07
    outer loop
      vertex 2.356256e+01 1.577003e+01 9.856809e+00
      vertex 2.771943e+01 1.577004e+01 -2.491501e+00
      vertex 2.661056e+01 1.577005e+01 9.856809e+00
    endloop
  endfacet
  facet normal -1.425099e-05 1.000000e+00 -3.816545e-06
    outer loop
      vertex 2.356256e+01 1.577003e+01 9.856809e+00
      vertex 2.661057e+01 1.577004e+01 1.648990e+00
      vertex 2.771943e+01 1.577004e+01 -2.491501e+00
    endloop
  endfacet
  facet normal -4.762576e-06 6.148766e-01 7.886233e-01
    outer loop
      vertex 2.130217e+01 -1.177253e+01 -2.491501e+00
      vertex -2.112938e+01 -1.177273e+01 -2.491600e+00
      vertex -2.112936e+01 -1.577002e+01 6.250200e-01
    endloop
  endfacet
  facet normal -3.884074e-06 6.148708e-01 7.886279e-01
    outer loop
      vertex -2.112936e+01 -1.577002e+01 6.250200e-01
      vertex 2.130217e+01 -1.576982e+01 6.250696e-01
      vertex 2.130217e+01 -1.177253e+01 -2.491501e+00
    endloop
  endfacet
  facet normal -2.058483e-06 6.105587e-01 -7.919710e-01
    outer loop
      vertex 2.130214e+01 -1.177252e+01 1.408933e+01
      vertex 2.130216e+01 -1.576982e+01 1.100767e+01
      vertex -2.112939e+01 -1.577002e+01 1.100762e+01
    endloop
  endfacet
  facet normal -1.380274e-06 6.105542e-01 -7.919745e-01
    outer loop
      vertex -2.112939e+01 -1.577002e+01 1.100762e+01
      vertex -2.112941e+01 -1.177273e+01 1.408924e+01
      vertex 2.130214e+01 -1.177252e+01 1.408933e+01
    endloop
  endfacet
  facet normal 4.705888e-06 -1.000000e+00 -1.925189e-07
    outer loop
      vertex 2.130217e+01 -1.177253e+01 -2.491501e+00
      vertex 8.981952e+00 -1.177259e+01 3.049820e+00
      vertex -2.112941e+01 -1.177273e+01 1.408924e+01
    endloop
  endfacet
  facet normal 4.816801e-06 -1.000000e+00 9.131645e-08
    outer loop
      vertex -2.112941e+01 -1.177273e+01 1.408924e+01
      vertex -2.112938e+01 -1.177273e+01 -2.491600e+00
      vertex 2.130217e+01 -1.177253e+01 -2.491501e+00
    endloop
  endfacet
  facet normal -4.852481e-06 1.000000e+00 -1.132080e-11
    outer loop
      vertex -2.112936e+01 -1.577002e+01 6.250200e-01
      vertex -2.112939e+01 -1.577002e+01 1.100762e+01
      vertex 2.130216e+01 -1.576982e+01 1.100767e+01
    endloop
  endfacet
  facet normal -4.494261e-06 1.000000e+00 -1.463976e-06
    outer loop
      vertex 2.130216e+01 -1.576982e+01 1.100767e+01
      vertex 9.716728e+00 -1.576987e+01 7.276431e+00
      vertex -2.112936e+01 -1.577002e+01 6.250200e-01
    endloop
  endfacet
  facet normal -6.022186e-06 1.000000e+00 -7.024720e-12
    outer loop
      vertex 2.130217e+01 -1.576982e+01 6.250696e-01
      vertex 2.130216e+01 -1.576982e+01 1.100767e+01
      vertex 2.281054e+01 -1.576981e+01 1.100767e+01
    endloop
  endfacet
  facet normal -4.014782e-06 1.000000e+00 -2.916395e-07
    outer loop
      vertex 2.281054e+01 -1.576981e+01 1.100767e+01
      vertex 2.281056e+01 -1.576981e+01 6.250696e-01
      vertex 2.130217e+01 -1.576982e+01 6.250696e-01
    endloop
  endfacet
  facet normal 2.682297e-06 6.105587e-01 -7.919710e-01
    outer loop
      vertex 2.130216e+01 -1.576982e+01 1.100767e+01
      vertex 2.130214e+01 -1.177252e+01 1.408933e+01
      vertex 2.281052e+01 -1.177252e+01 1.408934e+01
    endloop
  endfacet
  facet normal -3.676907e-06 6.105602e-01 -7.919699e-01
    outer loop
      vertex 2.281052e+01 -1.177252e+01 1.408934e+01
      vertex 2.281054e+01 -1.576981e+01 1.100767e+01
      vertex 2.130216e+01 -1.576982e+01 1.100767e+01
    endloop
  endfacet
  facet normal -2.468572e-06 6.148708e-01 7.886279e-01
    outer loop
      vertex 2.130217e+01 -1.177253e+01 -2.491501e+00
      vertex 2.130217e+01 -1.576982e+01 6.250696e-01
      vertex 2.281056e+01 -1.576981e+01 6.250696e-01
    endloop
  endfacet
  facet normal 9.578951e-06 6.148736e-01 7.886257e-01
    outer loop
      vertex 2.281056e+01 -1.576981e+01 6.250696e-01
      vertex 2.281054e+01 -1.177252e+01 -2.491529e+00
      vertex 2.130217e+01 -1.177253e+01 -2.491501e+00
    endloop
  endfacet
  facet normal -3.084032e-06 1.000000e+00 -2.916381e-07
    outer loop
      vertex 2.281056e+01 -1.576981e+01 6.250696e-01
      vertex 2.281054e+01 -1.576981e+01 1.100767e+01
      vertex 2.771956e+01 -1.576979e+01 1.100768e+01
    endloop
  endfacet
  facet normal -3.084032e-06 1.000000e+00 -2.916380e-07
    outer loop
      vertex 2.771956e+01 -1.576979e+01 1.100768e+01
      vertex 2.771958e+01 -1.576980e+01 6.250401e-01
      vertex 2.281056e+01 -1.576981e+01 6.250696e-01
    endloop
  endfacet
  facet normal -1.000000e+00 -3.553882e-06 -1.643537e-06
    outer loop
      vertex 2.771954e+01 -1.177250e+01 1.408934e+01
      vertex 2.771957e+01 -1.177250e+01 -2.491501e+00
      vertex 2.771958e+01 -1.576980e+01 6.250401e-01
    endloop
  endfacet
  facet normal -1.000000e+00 -3.195970e-06 -1.749795e-06
    outer loop
      vertex 2.771958e+01 -1.576980e+01 6.250401e-01
      vertex 2.771956e+01 -1.576979e+01 1.100768e+01
      vertex 2.771954e+01 -1.177250e+01 1.408934e+01
    endloop
  endfacet
  facet normal -4.934446e-06 -2.338092e-11 1.000000e+00
    outer loop
      vertex 2.281054e+01 -1.177252e+01 -2.491529e+00
      vertex 2.771957e+01 -1.177250e+01 -2.491501e+00
      vertex 2.771950e+01 3.564440e+00 -2.491501e+00
    endloop
  endfacet
  facet normal 5.845142e-12 -1.579411e-06 1.000000e+00
    outer loop
      vertex 2.771950e+01 3.564440e+00 -2.491501e+00
      vertex 2.281047e+01 3.564421e+00 -2.491501e+00
      vertex 2.281054e+01 -1.177252e+01 -2.491529e+00
    endloop
  endfacet
  facet normal 1.605920e-05 -1.579338e-06 1.000000e+00
    outer loop
      vertex 2.130217e+01 -1.177253e+01 -2.491501e+00
      vertex 2.281054e+01 -1.177252e+01 -2.491529e+00
      vertex 2.281047e+01 3.564421e+00 -2.491501e+00
    endloop
  endfacet
  facet normal 0.000000e+00 -3.673940e-16 1.000000e+00
    outer loop
      vertex 2.281047e+01 3.564421e+00 -2.491501e+00
      vertex 2.130209e+01 3.564409e+00 -2.491501e+00
      vertex 2.130217e+01 -1.177253e+01 -2.491501e+00
    endloop
  endfacet
  facet normal 5.018488e-06 -1.000000e+00 4.565478e-07
    outer loop
      vertex 2.130206e+01 3.564421e+00 1.408933e+01
      vertex 2.130209e+01 3.564409e+00 -2.491501e+00
      vertex 2.281047e+01 3.564421e+00 -2.491501e+00
    endloop
  endfacet
  facet normal 5.018464e-06 -1.000000e+00 4.565456e-07
    outer loop
      vertex 2.281047e+01 3.564421e+00 -2.491501e+00
      vertex 2.281045e+01 3.564430e+00 1.408934e+01
      vertex 2.130206e+01 3.564421e+00 1.408933e+01
    endloop
  endfacet
  facet normal 1.000000e+00 5.457668e-06 1.460920e-06
    outer loop
      vertex 2.281045e+01 3.564430e+00 1.408934e+01
      vertex 2.281047e+01 3.564421e+00 -2.491501e+00
      vertex 2.281041e+01 1.577003e+01 -2.491501e+00
    endloop
  endfacet
  facet normal 1.000000e+00 5.953822e-06 1.826152e-06
    outer loop
      vertex 2.281041e+01 1.577003e+01 -2.491501e+00
      vertex 2.281038e+01 1.577003e+01 1.408934e+01
      vertex 2.281045e+01 3.564430e+00 1.408934e+01
    endloop
  endfacet
  facet normal 0.000000e+00 -3.673940e-16 1.000000e+00
    outer loop
      vertex 2.281047e+01 3.564421e+00 -2.491501e+00
      vertex 2.771950e+01 3.564440e+00 -2.491501e+00
      vertex 2.771943e+01 1.577004e+01 -2.491501e+00
    endloop
  endfacet
  facet normal 0.000000e+00 -3.673940e-16 1.000000e+00
    outer loop
      vertex 2.771943e+01 1.577004e+01 -2.491501e+00
      vertex 2.281041e+01 1.577003e+01 -2.491501e+00
      vertex 2.281047e+01 3.564421e+00 -2.491501e+00
    endloop
  endfacet
  facet normal -1.000000e+00 -5.705745e-06 -1.460920e-06
    outer loop
      vertex 2.771950e+01 3.564440e+00 -2.491501e+00
      vertex 2.771947e+01 3.564440e+00 1.408934e+01
      vertex 2.771940e+01 1.577005e+01 1.408934e+01
    endloop
  endfacet
  facet normal -1.000000e+00 -5.457668e-06 -1.643537e-06
    outer loop
      vertex 2.771940e+01 1.577005e+01 1.408934e+01
      vertex 2.771943e+01 1.577004e+01 -2.491501e+00
      vertex 2.771950e+01 3.564440e+00 -2.491501e+00
    endloop
  endfacet
  facet normal -4.135178e-06 1.000000e+00 -9.647286e-12
    outer loop
      vertex -2.112939e+01 -1.577002e+01 1.100762e+01
      vertex -2.112936e+01 -1.577002e+01 6.250200e-01
      vertex -2.771947e+01 -1.577005e+01 6.250000e-01
    endloop
  endfacet
  facet normal -4.135182e-06 1.000000e+00 -7.235364e-12
    outer loop
      vertex -2.771947e+01 -1.577005e+01 6.250000e-01
      vertex -2.771948e+01 -1.577005e+01 1.100762e+01
      vertex -2.112939e+01 -1.577002e+01 1.100762e+01
    endloop
  endfacet
  facet normal 1.000000e+00 3.418693e-06 1.460921e-06
    outer loop
      vertex -2.771948e+01 -1.177276e+01 -2.491631e+00
      vertex -2.771950e+01 -1.177276e+01 1.408923e+01
      vertex -2.771948e+01 -1.577005e+01 1.100762e+01
    endloop
  endfacet
  facet normal 1.000000e+00 4.394256e-06 1.749798e-06
    outer loop
      vertex -2.771948e+01 -1.577005e+01 1.100762e+01
      vertex -2.771947e+01 -1.577005e+01 6.250000e-01
      vertex -2.771948e+01 -1.177276e+01 -2.491631e+00
    endloop
  endfacet
  facet normal -3.660649e-06 -3.638098e-03 9.999934e-01
    outer loop
      vertex -2.771948e+01 -1.177276e+01 -2.491631e+00
      vertex -2.112938e+01 -1.177273e+01 -2.491600e+00
      vertex -2.112940e+01 -7.058730e+00 -2.474449e+00
    endloop
  endfacet
  facet normal -3.660645e-06 -3.638098e-03 9.999934e-01
    outer loop
      vertex -2.112940e+01 -7.058730e+00 -2.474449e+00
      vertex -2.771950e+01 -7.058757e+00 -2.474480e+00
      vertex -2.771948e+01 -1.177276e+01 -2.491631e+00
    endloop
  endfacet
  facet normal 1.000000e+00 5.133276e-06 1.460921e-06
    outer loop
      vertex -2.771950e+01 -1.177276e+01 1.408923e+01
      vertex -2.771948e+01 -1.177276e+01 -2.491631e+00
      vertex -2.771950e+01 -7.058757e+00 -2.474480e+00
    endloop
  endfacet
  facet normal 1.000000e+00 5.143913e-06 1.463949e-06
    outer loop
      vertex -2.771950e+01 -7.058757e+00 -2.474480e+00
      vertex -2.771953e+01 -7.058754e+00 1.407208e+01
      vertex -2.771950e+01 -1.177276e+01 1.408923e+01
    endloop
  endfacet
  facet normal 1.853728e-06 -3.638096e-03 -9.999934e-01
    outer loop
      vertex -2.112941e+01 -1.177273e+01 1.408924e+01
      vertex -2.771950e+01 -1.177276e+01 1.408923e+01
      vertex -2.771953e+01 -7.058754e+00 1.407208e+01
    endloop
  endfacet
  facet normal 1.852891e-06 -3.638097e-03 -9.999934e-01
    outer loop
      vertex -2.771953e+01 -7.058754e+00 1.407208e+01
      vertex -2.112943e+01 -7.058727e+00 1.407209e+01
      vertex -2.112941e+01 -1.177273e+01 1.408924e+01
    endloop
  endfacet
  facet normal -1.000000e+00 -3.860586e-06 -1.826153e-06
    outer loop
      vertex -2.112938e+01 -1.177273e+01 -2.491600e+00
      vertex -2.112941e+01 -1.177273e+01 1.408924e+01
      vertex -2.112943e+01 -7.058727e+00 1.407209e+01
    endloop
  endfacet
  facet normal -1.000000e+00 -3.847286e-06 -1.829938e-06
    outer loop
      vertex -2.112943e+01 -7.058727e+00 1.407209e+01
      vertex -2.112940e+01 -7.058730e+00 -2.474449e+00
      vertex -2.112938e+01 -1.177273e+01 -2.491600e+00
    endloop
  endfacet
  facet normal -1.000000e+00 -6.648720e-06 -1.829937e-06
    outer loop
      vertex -2.112940e+01 -7.058730e+00 -2.474449e+00
      vertex -2.112943e+01 -7.058727e+00 1.407209e+01
      vertex -2.112945e+01 -3.415420e+00 1.407209e+01
    endloop
  endfacet
  facet normal -1.000000e+00 -4.986541e-06 -2.195925e-06
    outer loop
      vertex -2.112945e+01 -3.415420e+00 1.407209e+01
      vertex -2.112942e+01 -3.415420e+00 -2.474449e+00
      vertex -2.112940e+01 -7.058730e+00 -2.474449e+00
    endloop
  endfacet
  facet normal 1.837859e-06 1.221978e-11 -1.000000e+00
    outer loop
      vertex -2.112943e+01 -7.058727e+00 1.407209e+01
      vertex -2.771953e+01 -7.058754e+00 1.407208e+01
      vertex -2.771955e+01 -3.415450e+00 1.407208e+01
    endloop
  endfacet
  facet normal 1.837859e-06 1.221978e-11 -1.000000e+00
    outer loop
      vertex -2.771955e+01 -3.415450e+00 1.407208e+01
      vertex -2.112945e+01 -3.415420e+00 1.407209e+01
      vertex -2.112943e+01 -7.058727e+00 1.407209e+01
    endloop
  endfacet
  facet normal 1.000000e+00 4.986536e-06 1.463949e-06
    outer loop
      vertex -2.771953e+01 -7.058754e+00 1.407208e+01
      vertex -2.771950e+01 -7.058757e+00 -2.474480e+00
      vertex -2.771952e+01 -3.415450e+00 -2.474480e+00
    endloop
  endfacet
  facet normal 1.000000e+00 6.648720e-06 1.829937e-06
    outer loop
      vertex -2.771952e+01 -3.415450e+00 -2.474480e+00
      vertex -2.771955e+01 -3.415450e+00 1.407208e+01
      vertex -2.771953e+01 -7.058754e+00 1.407208e+01
    endloop
  endfacet
  facet normal -3.675714e-06 -1.832946e-11 1.000000e+00
    outer loop
      vertex -2.771950e+01 -7.058757e+00 -2.474480e+00
      vertex -2.112940e+01 -7.058730e+00 -2.474449e+00
      vertex -2.112942e+01 -3.415420e+00 -2.474449e+00
    endloop
  endfacet
  facet normal -3.675714e-06 -1.832945e-11 1.000000e+00
    outer loop
      vertex -2.112942e+01 -3.415420e+00 -2.474449e+00
      vertex -2.771952e+01 -3.415450e+00 -2.474480e+00
      vertex -2.771950e+01 -7.058757e+00 -2.474480e+00
    endloop
  endfacet
  facet normal -3.689062e-06 3.638097e-03 9.999934e-01
    outer loop
      vertex -2.771952e+01 -3.415450e+00 -2.474480e+00
      vertex -2.112942e+01 -3.415420e+00 -2.474449e+00
      vertex -2.112944e+01 1.298580e+00 -2.491600e+00
    endloop
  endfacet
  facet normal -1.418833e-08 3.632960e-03 9.999934e-01
    outer loop
      vertex -2.112944e+01 1.298580e+00 -2.491600e+00
      vertex -2.771954e+01 1.298550e+00 -2.491600e+00
      vertex -2.771952e+01 -3.415450e+00 -2.474480e+00
    endloop
  endfacet
  facet normal 1.000000e+00 5.145239e-06 1.829937e-06
    outer loop
      vertex -2.771955e+01 -3.415450e+00 1.407208e+01
      vertex -2.771952e+01 -3.415450e+00 -2.474480e+00
      vertex -2.771954e+01 1.298550e+00 -2.491600e+00
    endloop
  endfacet
  facet normal 1.000000e+00 3.848627e-06 1.460923e-06
    outer loop
      vertex -2.771954e+01 1.298550e+00 -2.491600e+00
      vertex -2.771957e+01 1.298559e+00 1.408923e+01
      vertex -2.771955e+01 -3.415450e+00 1.407208e+01
    endloop
  endfacet
  facet normal 1.822802e-06 3.638097e-03 -9.999934e-01
    outer loop
      vertex -2.112945e+01 -3.415420e+00 1.407209e+01
      vertex -2.771955e+01 -3.415450e+00 1.407208e+01
      vertex -2.771957e+01 1.298559e+00 1.408923e+01
    endloop
  endfacet
  facet normal 1.822802e-06 3.638097e-03 -9.999934e-01
    outer loop
      vertex -2.771957e+01 1.298559e+00 1.408923e+01
      vertex -2.112947e+01 1.298580e+00 1.408924e+01
      vertex -2.112945e+01 -3.415420e+00 1.407209e+01
    endloop
  endfacet
  facet normal -1.000000e+00 -3.845953e-06 -2.195926e-06
    outer loop
      vertex -2.112942e+01 -3.415420e+00 -2.474449e+00
      vertex -2.112945e+01 -3.415420e+00 1.407209e+01
      vertex -2.112947e+01 1.298580e+00 1.408924e+01
    endloop
  endfacet
  facet normal -1.000000e+00 -5.145233e-06 -1.826152e-06
    outer loop
      vertex -2.112947e+01 1.298580e+00 1.408924e+01
      vertex -2.112944e+01 1.298580e+00 -2.491600e+00
      vertex -2.112942e+01 -3.415420e+00 -2.474449e+00
    endloop
  endfacet
  facet normal -1.000000e+00 -7.138727e-06 -1.826152e-06
    outer loop
      vertex -2.112944e+01 1.298580e+00 -2.491600e+00
      vertex -2.112947e+01 1.298580e+00 1.408924e+01
      vertex -2.112948e+01 2.995199e+00 1.408924e+01
    endloop
  endfacet
  facet normal -1.000000e+00 -7.138727e-06 -1.826152e-06
    outer loop
      vertex -2.112948e+01 2.995199e+00 1.408924e+01
      vertex -2.112945e+01 2.995190e+00 -2.491600e+00
      vertex -2.112944e+01 1.298580e+00 -2.491600e+00
    endloop
  endfacet
  facet normal 1.837859e-06 1.312032e-11 -1.000000e+00
    outer loop
      vertex -2.112947e+01 1.298580e+00 1.408924e+01
      vertex -2.771957e+01 1.298559e+00 1.408923e+01
      vertex -2.771958e+01 2.995171e+00 1.408923e+01
    endloop
  endfacet
  facet normal 1.837859e-06 1.312034e-11 -1.000000e+00
    outer loop
      vertex -2.771958e+01 2.995171e+00 1.408923e+01
      vertex -2.112948e+01 2.995199e+00 1.408924e+01
      vertex -2.112947e+01 1.298580e+00 1.408924e+01
    endloop
  endfacet
  facet normal 1.000000e+00 3.569360e-06 1.460923e-06
    outer loop
      vertex -2.771957e+01 1.298559e+00 1.408923e+01
      vertex -2.771954e+01 1.298550e+00 -2.491600e+00
      vertex -2.771955e+01 2.995171e+00 -2.491600e+00
    endloop
  endfacet
  facet normal 1.000000e+00 7.138714e-06 1.826153e-06
    outer loop
      vertex -2.771955e+01 2.995171e+00 -2.491600e+00
      vertex -2.771958e+01 2.995171e+00 1.408923e+01
      vertex -2.771957e+01 1.298559e+00 1.408923e+01
    endloop
  endfacet
  facet normal 0.000000e+00 -3.673940e-16 1.000000e+00
    outer loop
      vertex -2.771954e+01 1.298550e+00 -2.491600e+00
      vertex -2.112944e+01 1.298580e+00 -2.491600e+00
      vertex -2.112945e+01 2.995190e+00 -2.491600e+00
    endloop
  endfacet
  facet normal 0.000000e+00 -3.673940e-16 1.000000e+00
    outer loop
      vertex -2.112945e+01 2.995190e+00 -2.491600e+00
      vertex -2.771955e+01 2.995171e+00 -2.491600e+00
      vertex -2.771954e+01 1.298550e+00 -2.491600e+00
    endloop
  endfacet
  facet normal 5.463759e-06 -1.000000e+00 -4.966896e-07
    outer loop
      vertex 2.661067e+01 1.262260e+00 1.648990e+00
      vertex 2.356267e+01 1.262251e+00 1.648990e+00
      vertex 2.356268e+01 1.262251e+00 -1.399010e+00
    endloop
  endfacet
  facet normal 6.457176e-06 -1.000000e+00 -1.490105e-06
    outer loop
      vertex 2.356268e+01 1.262251e+00 -1.399010e+00
      vertex 2.661068e+01 1.262270e+00 -1.399010e+00
      vertex 2.661067e+01 1.262260e+00 1.648990e+00
    endloop
  endfacet
  facet normal 5.463766e-06 -1.000000e+00 -4.966950e-07
    outer loop
      vertex 2.661065e+01 1.262260e+00 1.290482e+01
      vertex 2.356266e+01 1.262251e+00 1.290481e+01
      vertex 2.356266e+01 1.262251e+00 9.856809e+00
    endloop
  endfacet
  facet normal 6.457182e-06 -1.000000e+00 -1.490105e-06
    outer loop
      vertex 2.356266e+01 1.262251e+00 9.856809e+00
      vertex 2.661066e+01 1.262270e+00 9.856821e+00
      vertex 2.661065e+01 1.262260e+00 1.290482e+01
    endloop
  endfacet
  facet normal 6.457185e-06 -1.000000e+00 -9.933989e-07
    outer loop
      vertex -2.323856e+01 -4.774520e+00 1.648890e+00
      vertex -2.628655e+01 -4.774540e+00 1.648870e+00
      vertex -2.628655e+01 -4.774540e+00 -1.399130e+00
    endloop
  endfacet
  facet normal 6.953894e-06 -1.000000e+00 -1.490104e-06
    outer loop
      vertex -2.628655e+01 -4.774540e+00 -1.399130e+00
      vertex -2.323855e+01 -4.774520e+00 -1.399111e+00
      vertex -2.323856e+01 -4.774520e+00 1.648890e+00
    endloop
  endfacet
  facet normal 6.953882e-06 -1.000000e+00 -9.933801e-07
    outer loop
      vertex -2.323858e+01 -4.774520e+00 1.290471e+01
      vertex -2.628658e+01 -4.774540e+00 1.290471e+01
      vertex -2.628656e+01 -4.774540e+00 9.856700e+00
    endloop
  endfacet
  facet normal 7.450608e-06 -1.000000e+00 -1.490103e-06
    outer loop
      vertex -2.628656e+01 -4.774540e+00 9.856700e+00
      vertex -2.323857e+01 -4.774520e+00 9.856712e+00
      vertex -2.323858e+01 -4.774520e+00 1.290471e+01
    endloop
  endfacet
  facet normal 3.967828e-06 -1.000000e+00 -8.840972e-08
    outer loop
      vertex 1.142220e+01 -1.463134e+01 4.322470e+00
      vertex 1.215696e+01 -1.463133e+01 3.049820e+00
      vertex 1.374446e+01 -1.463133e+01 5.799462e+00
    endloop
  endfacet
  facet normal 5.151198e-06 -1.000000e+00 -1.949010e-06
    outer loop
      vertex 1.374446e+01 -1.463133e+01 5.799462e+00
      vertex 1.227494e+01 -1.463133e+01 5.799462e+00
      vertex 1.142220e+01 -1.463134e+01 4.322470e+00
    endloop
  endfacet
  facet normal 4.768372e-06 -1.000000e+00 -3.737832e-07
    outer loop
      vertex 9.716725e+00 -1.463135e+01 4.322470e+00
      vertex 8.981964e+00 -1.463135e+01 3.049820e+00
      vertex 1.215696e+01 -1.463133e+01 3.049820e+00
    endloop
  endfacet
  facet normal 5.326213e-06 -1.000000e+00 6.958522e-07
    outer loop
      vertex 1.215696e+01 -1.463133e+01 3.049820e+00
      vertex 1.142220e+01 -1.463134e+01 4.322470e+00
      vertex 9.716725e+00 -1.463135e+01 4.322470e+00
    endloop
  endfacet
  facet normal 4.120950e-06 -1.000000e+00 -9.243942e-07
    outer loop
      vertex 8.863985e+00 -1.463135e+01 5.799438e+00
      vertex 7.394461e+00 -1.463136e+01 5.799438e+00
      vertex 8.981964e+00 -1.463135e+01 3.049820e+00
    endloop
  endfacet
  facet normal 5.611299e-06 -1.000000e+00 -8.604467e-07
    outer loop
      vertex 8.981964e+00 -1.463135e+01 3.049820e+00
      vertex 9.716725e+00 -1.463135e+01 4.322470e+00
      vertex 8.863985e+00 -1.463135e+01 5.799438e+00
    endloop
  endfacet
  facet normal 4.998062e-06 -1.000000e+00 -6.832086e-07
    outer loop
      vertex 9.716722e+00 -1.463135e+01 7.276431e+00
      vertex 8.981958e+00 -1.463135e+01 8.549076e+00
      vertex 7.394461e+00 -1.463136e+01 5.799438e+00
    endloop
  endfacet
  facet normal 4.120950e-06 -1.000000e+00 6.958653e-07
    outer loop
      vertex 7.394461e+00 -1.463136e+01 5.799438e+00
      vertex 8.863985e+00 -1.463135e+01 5.799438e+00
      vertex 9.716722e+00 -1.463135e+01 7.276431e+00
    endloop
  endfacet
  facet normal 4.768372e-06 -1.000000e+00 -1.563428e-06
    outer loop
      vertex 1.142220e+01 -1.463134e+01 7.276455e+00
      vertex 1.215696e+01 -1.463134e+01 8.549076e+00
      vertex 8.981958e+00 -1.463135e+01 8.549076e+00
    endloop
  endfacet
  facet normal 5.326229e-06 -1.000000e+00 -4.937408e-07
    outer loop
      vertex 8.981958e+00 -1.463135e+01 8.549076e+00
      vertex 9.716722e+00 -1.463135e+01 7.276431e+00
      vertex 1.142220e+01 -1.463134e+01 7.276455e+00
    endloop
  endfacet
  facet normal 5.151198e-06 -1.000000e+00 -3.295698e-07
    outer loop
      vertex 1.227494e+01 -1.463133e+01 5.799462e+00
      vertex 1.374446e+01 -1.463133e+01 5.799462e+00
      vertex 1.215696e+01 -1.463134e+01 8.549076e+00
    endloop
  endfacet
  facet normal 2.805627e-06 -1.000000e+00 -4.302182e-07
    outer loop
      vertex 1.215696e+01 -1.463134e+01 8.549076e+00
      vertex 1.142220e+01 -1.463134e+01 7.276455e+00
      vertex 1.227494e+01 -1.463133e+01 5.799462e+00
    endloop
  endfacet
  facet normal 4.768374e-06 -1.000000e+00 -3.172733e-07
    outer loop
      vertex -2.112941e+01 -1.177273e+01 1.408924e+01
      vertex 8.981946e+00 -1.177259e+01 8.549076e+00
      vertex 1.215695e+01 -1.177257e+01 8.549100e+00
    endloop
  endfacet
  facet normal 4.852480e-06 -1.000000e+00 1.880573e-07
    outer loop
      vertex 1.215695e+01 -1.177257e+01 8.549100e+00
      vertex 2.130214e+01 -1.177252e+01 1.408933e+01
      vertex -2.112941e+01 -1.177273e+01 1.408924e+01
    endloop
  endfacet
  facet normal 4.040408e-11 -8.473351e-06 1.000000e+00
    outer loop
      vertex 8.981958e+00 -1.463135e+01 8.549076e+00
      vertex 1.215696e+01 -1.463134e+01 8.549076e+00
      vertex 1.215695e+01 -1.177257e+01 8.549100e+00
    endloop
  endfacet
  facet normal -7.629395e-06 -3.232364e-11 1.000000e+00
    outer loop
      vertex 1.215695e+01 -1.177257e+01 8.549100e+00
      vertex 8.981946e+00 -1.177259e+01 8.549076e+00
      vertex 8.981958e+00 -1.463135e+01 8.549076e+00
    endloop
  endfacet
  facet normal -1.420326e-05 -7.554751e-11 1.000000e+00
    outer loop
      vertex 1.142220e+01 -1.576987e+01 7.276455e+00
      vertex 1.142220e+01 -1.463134e+01 7.276455e+00
      vertex 9.716722e+00 -1.463135e+01 7.276431e+00
    endloop
  endfacet
  facet normal -1.420326e-05 -7.554751e-11 1.000000e+00
    outer loop
      vertex 9.716722e+00 -1.463135e+01 7.276431e+00
      vertex 9.716728e+00 -1.576987e+01 7.276431e+00
      vertex 1.142220e+01 -1.576987e+01 7.276455e+00
    endloop
  endfacet
  facet normal 1.000000e+00 5.339291e-06 1.826152e-06
    outer loop
      vertex 2.130209e+01 3.564409e+00 -2.491501e+00
      vertex 2.130206e+01 3.564421e+00 1.408933e+01
      vertex 2.130209e+01 3.608894e-01 1.019109e+01
    endloop
  endfacet
  facet normal 1.000000e+00 4.925183e-06 1.721552e-06
    outer loop
      vertex 2.130209e+01 3.608894e-01 1.019109e+01
      vertex 2.130210e+01 3.608894e-01 1.396940e+00
      vertex 2.130209e+01 3.564409e+00 -2.491501e+00
    endloop
  endfacet
  facet normal 1.000000e+00 4.521677e-06 1.389121e-06
    outer loop
      vertex 2.130209e+01 3.564409e+00 -2.491501e+00
      vertex 2.130210e+01 3.608894e-01 1.396940e+00
      vertex 2.130215e+01 -1.035342e+01 1.396940e+00
    endloop
  endfacet
  facet normal 1.000000e+00 4.738232e-06 2.164234e-06
    outer loop
      vertex 2.130215e+01 -1.035342e+01 1.396940e+00
      vertex 2.130217e+01 -1.177253e+01 -2.491501e+00
      vertex 2.130209e+01 3.564409e+00 -2.491501e+00
    endloop
  endfacet
  facet normal 0.000000e+00 -1.000000e+00 -3.673940e-16
    outer loop
      vertex 2.771940e+01 1.577005e+01 1.408934e+01
      vertex 2.661055e+01 1.577005e+01 1.290482e+01
      vertex 2.661056e+01 1.577005e+01 9.856809e+00
    endloop
  endfacet
  facet normal -6.970483e-07 -1.000000e+00 1.826142e-07
    outer loop
      vertex 2.661056e+01 1.577005e+01 9.856809e+00
      vertex 2.771943e+01 1.577004e+01 -2.491501e+00
      vertex 2.771940e+01 1.577005e+01 1.408934e+01
    endloop
  endfacet
  facet normal 3.700837e-06 -1.000000e+00 3.756255e-06
    outer loop
      vertex 2.281041e+01 1.577003e+01 -2.491501e+00
      vertex 2.771943e+01 1.577004e+01 -2.491501e+00
      vertex 2.661058e+01 1.577004e+01 -1.399010e+00
    endloop
  endfacet
  facet normal 4.967058e-06 -1.000000e+00 -6.482033e-07
    outer loop
      vertex 2.661058e+01 1.577004e+01 -1.399010e+00
      vertex 2.356258e+01 1.577003e+01 -1.399010e+00
      vertex 2.281041e+01 1.577003e+01 -2.491501e+00
    endloop
  endfacet
  facet normal 4.027918e-06 -1.000000e+00 4.967059e-07
    outer loop
      vertex -2.112948e+01 2.995199e+00 1.408924e+01
      vertex -2.323861e+01 2.995190e+00 1.290471e+01
      vertex -2.323861e+01 2.995190e+00 9.856712e+00
    endloop
  endfacet
  facet normal 4.658209e-06 -1.000000e+00 1.826238e-07
    outer loop
      vertex -2.323861e+01 2.995190e+00 9.856712e+00
      vertex -2.112945e+01 2.995190e+00 -2.491600e+00
      vertex -2.112948e+01 2.995199e+00 1.408924e+01
    endloop
  endfacet
  facet normal -8.660237e-01 -2.751799e-06 -5.000030e-01
    outer loop
      vertex 8.981964e+00 -1.463135e+01 3.049820e+00
      vertex 7.394461e+00 -1.463136e+01 5.799438e+00
      vertex 7.394452e+00 -1.177259e+01 5.799438e+00
    endloop
  endfacet
  facet normal -8.660241e-01 -3.669069e-06 -5.000023e-01
    outer loop
      vertex 7.394452e+00 -1.177259e+01 5.799438e+00
      vertex 8.981952e+00 -1.177259e+01 3.049820e+00
      vertex 8.981964e+00 -1.463135e+01 3.049820e+00
    endloop
  endfacet
  facet normal 1.000000e+00 4.062276e-06 5.539366e-06
    outer loop
      vertex -2.323855e+01 -4.774520e+00 -1.399111e+00
      vertex -2.323859e+01 2.995190e+00 -5.375805e-01
      vertex -2.323860e+01 2.995190e+00 1.648890e+00
    endloop
  endfacet
  facet normal 1.000000e+00 5.455908e-06 1.986831e-06
    outer loop
      vertex -2.323860e+01 2.995190e+00 1.648890e+00
      vertex -2.323856e+01 -4.774520e+00 1.648890e+00
      vertex -2.323855e+01 -4.774520e+00 -1.399111e+00
    endloop
  endfacet
  facet normal -1.813886e-06 -1.000000e+00 9.934081e-07
    outer loop
      vertex -2.771955e+01 2.995171e+00 -2.491600e+00
      vertex -2.628659e+01 2.995171e+00 -1.399130e+00
      vertex -2.628659e+01 2.995171e+00 1.648870e+00
    endloop
  endfacet
  facet normal 5.288654e-07 -1.000000e+00 1.826164e-07
    outer loop
      vertex -2.628659e+01 2.995171e+00 1.648870e+00
      vertex -2.771958e+01 2.995171e+00 1.408923e+01
      vertex -2.771955e+01 2.995171e+00 -2.491600e+00
    endloop
  endfacet
  facet normal 8.660261e-01 1.834538e-06 -4.999990e-01
    outer loop
      vertex 1.374446e+01 -1.463133e+01 5.799462e+00
      vertex 1.215696e+01 -1.463133e+01 3.049820e+00
      vertex 1.215696e+01 -1.177257e+01 3.049820e+00
    endloop
  endfacet
  facet normal 8.660268e-01 3.669077e-06 -4.999975e-01
    outer loop
      vertex 1.215696e+01 -1.177257e+01 3.049820e+00
      vertex 1.374445e+01 -1.177256e+01 5.799462e+00
      vertex 1.374446e+01 -1.463133e+01 5.799462e+00
    endloop
  endfacet
  facet normal -8.660264e-01 -3.669073e-06 4.999982e-01
    outer loop
      vertex 7.394461e+00 -1.463136e+01 5.799438e+00
      vertex 8.981958e+00 -1.463135e+01 8.549076e+00
      vertex 8.981946e+00 -1.177259e+01 8.549076e+00
    endloop
  endfacet
  facet normal -8.660268e-01 -2.751809e-06 4.999975e-01
    outer loop
      vertex 8.981946e+00 -1.177259e+01 8.549076e+00
      vertex 7.394452e+00 -1.177259e+01 5.799438e+00
      vertex 7.394461e+00 -1.463136e+01 5.799438e+00
    endloop
  endfacet
  facet normal -8.660225e-01 -2.303190e-06 -5.000049e-01
    outer loop
      vertex 8.863988e+00 -1.576988e+01 5.799438e+00
      vertex 8.863985e+00 -1.463135e+01 5.799438e+00
      vertex 9.716725e+00 -1.463135e+01 4.322470e+00
    endloop
  endfacet
  facet normal -8.660225e-01 -2.303184e-06 -5.000049e-01
    outer loop
      vertex 9.716725e+00 -1.463135e+01 4.322470e+00
      vertex 9.716728e+00 -1.576987e+01 4.322470e+00
      vertex 8.863988e+00 -1.576988e+01 5.799438e+00
    endloop
  endfacet
  facet normal 1.000000e+00 7.096136e-06 1.986816e-06
    outer loop
      vertex 2.661066e+01 1.262270e+00 9.856821e+00
      vertex 2.661056e+01 1.577005e+01 9.856809e+00
      vertex 2.661055e+01 1.577005e+01 1.290482e+01
    endloop
  endfacet
  facet normal 1.000000e+00 7.096131e-06 1.986834e-06
    outer loop
      vertex 2.661055e+01 1.577005e+01 1.290482e+01
      vertex 2.661065e+01 1.262260e+00 1.290482e+01
      vertex 2.661066e+01 1.262270e+00 9.856821e+00
    endloop
  endfacet
  facet normal 0.000000e+00 3.673940e-16 -1.000000e+00
    outer loop
      vertex 1.215696e+01 -1.463133e+01 3.049820e+00
      vertex 8.981964e+00 -1.463135e+01 3.049820e+00
      vertex 8.981952e+00 -1.177259e+01 3.049820e+00
    endloop
  endfacet
  facet normal 0.000000e+00 3.673940e-16 -1.000000e+00
    outer loop
      vertex 8.981952e+00 -1.177259e+01 3.049820e+00
      vertex 1.215696e+01 -1.177257e+01 3.049820e+00
      vertex 1.215696e+01 -1.463133e+01 3.049820e+00
    endloop
  endfacet
  facet normal -5.326203e-06 1.000000e+00 -1.129451e-06
    outer loop
      vertex 9.716728e+00 -1.576987e+01 4.322470e+00
      vertex 1.142221e+01 -1.576987e+01 4.322470e+00
      vertex 2.130217e+01 -1.576982e+01 6.250696e-01
    endloop
  endfacet
  facet normal -4.852483e-06 1.000000e+00 3.549058e-07
    outer loop
      vertex 2.130217e+01 -1.576982e+01 6.250696e-01
      vertex -2.112936e+01 -1.577002e+01 6.250200e-01
      vertex 9.716728e+00 -1.576987e+01 4.322470e+00
    endloop
  endfacet
  facet normal 0.000000e+00 3.673940e-16 -1.000000e+00
    outer loop
      vertex 9.716728e+00 -1.576987e+01 4.322470e+00
      vertex 9.716725e+00 -1.463135e+01 4.322470e+00
      vertex 1.142220e+01 -1.463134e+01 4.322470e+00
    endloop
  endfacet
  facet normal 0.000000e+00 3.673940e-16 -1.000000e+00
    outer loop
      vertex 1.142220e+01 -1.463134e+01 4.322470e+00
      vertex 1.142221e+01 -1.576987e+01 4.322470e+00
      vertex 9.716728e+00 -1.576987e+01 4.322470e+00
    endloop
  endfacet
  facet normal 4.329213e-06 -1.000000e+00 -2.535378e-07
    outer loop
      vertex 1.215695e+01 -1.177257e+01 8.549100e+00
      vertex 1.374445e+01 -1.177256e+01 5.799462e+00
      vertex 2.130217e+01 -1.177253e+01 -2.491501e+00
    endloop
  endfacet
  facet normal 4.855772e-06 -1.000000e+00 1.826243e-07
    outer loop
      vertex 2.130217e+01 -1.177253e+01 -2.491501e+00
      vertex 2.130214e+01 -1.177252e+01 1.408933e+01
      vertex 1.215695e+01 -1.177257e+01 8.549100e+00
    endloop
  endfacet
  facet normal 8.660252e-01 3.669070e-06 5.000004e-01
    outer loop
      vertex 1.374446e+01 -1.463133e+01 5.799462e+00
      vertex 1.374445e+01 -1.177256e+01 5.799462e+00
      vertex 1.215695e+01 -1.177257e+01 8.549100e+00
    endloop
  endfacet
  facet normal 8.660233e-01 -5.676471e-07 5.000037e-01
    outer loop
      vertex 1.215695e+01 -1.177257e+01 8.549100e+00
      vertex 1.215696e+01 -1.463134e+01 8.549076e+00
      vertex 1.374446e+01 -1.463133e+01 5.799462e+00
    endloop
  endfacet
  facet normal -5.763606e-06 1.000000e+00 -1.277567e-06
    outer loop
      vertex 2.130217e+01 -1.576982e+01 6.250696e-01
      vertex 1.227495e+01 -1.576986e+01 5.799462e+00
      vertex 1.142220e+01 -1.576987e+01 7.276455e+00
    endloop
  endfacet
  facet normal -4.903527e-06 1.000000e+00 -5.719766e-12
    outer loop
      vertex 1.142220e+01 -1.576987e+01 7.276455e+00
      vertex 2.130216e+01 -1.576982e+01 1.100767e+01
      vertex 2.130217e+01 -1.576982e+01 6.250696e-01
    endloop
  endfacet
  facet normal 8.660253e-01 2.303194e-06 5.000002e-01
    outer loop
      vertex 1.142220e+01 -1.576987e+01 7.276455e+00
      vertex 1.227495e+01 -1.576986e+01 5.799462e+00
      vertex 1.227494e+01 -1.463133e+01 5.799462e+00
    endloop
  endfacet
  facet normal 8.660245e-01 4.606385e-06 5.000015e-01
    outer loop
      vertex 1.227494e+01 -1.463133e+01 5.799462e+00
      vertex 1.142220e+01 -1.463134e+01 7.276455e+00
      vertex 1.142220e+01 -1.576987e+01 7.276455e+00
    endloop
  endfacet
  facet normal -1.000000e+00 -5.086886e-06 -1.854772e-06
    outer loop
      vertex 2.771956e+01 -1.035339e+01 1.396940e+00
      vertex 2.771951e+01 3.609200e-01 1.396940e+00
      vertex 2.771950e+01 3.564440e+00 -2.491501e+00
    endloop
  endfacet
  facet normal -1.000000e+00 -4.738232e-06 -6.068439e-07
    outer loop
      vertex 2.771950e+01 3.564440e+00 -2.491501e+00
      vertex 2.771957e+01 -1.177250e+01 -2.491501e+00
      vertex 2.771956e+01 -1.035339e+01 1.396940e+00
    endloop
  endfacet
  facet normal 1.000000e+00 4.521677e-06 1.646061e-06
    outer loop
      vertex 2.130214e+01 -1.177252e+01 1.408933e+01
      vertex 2.130214e+01 -1.035342e+01 1.019109e+01
      vertex 2.130209e+01 3.608894e-01 1.019109e+01
    endloop
  endfacet
  facet normal 1.000000e+00 4.738231e-06 2.320096e-06
    outer loop
      vertex 2.130209e+01 3.608894e-01 1.019109e+01
      vertex 2.130206e+01 3.564421e+00 1.408933e+01
      vertex 2.130214e+01 -1.177252e+01 1.408933e+01
    endloop
  endfacet
  facet normal 1.000000e+00 4.729046e-06 1.721552e-06
    outer loop
      vertex 2.130215e+01 -1.035342e+01 1.396940e+00
      vertex 2.130214e+01 -1.035342e+01 1.019109e+01
      vertex 2.130214e+01 -1.177252e+01 1.408933e+01
    endloop
  endfacet
  facet normal 1.000000e+00 5.664594e-06 1.826153e-06
    outer loop
      vertex 2.130214e+01 -1.177252e+01 1.408933e+01
      vertex 2.130217e+01 -1.177253e+01 -2.491501e+00
      vertex 2.130215e+01 -1.035342e+01 1.396940e+00
    endloop
  endfacet
  facet normal 0.000000e+00 3.673940e-16 -1.000000e+00
    outer loop
      vertex 2.356266e+01 1.262251e+00 9.856809e+00
      vertex 2.356256e+01 1.577003e+01 9.856809e+00
      vertex 2.661056e+01 1.577005e+01 9.856809e+00
    endloop
  endfacet
  facet normal 3.973652e-06 -8.348111e-07 -1.000000e+00
    outer loop
      vertex 2.661056e+01 1.577005e+01 9.856809e+00
      vertex 2.661066e+01 1.262270e+00 9.856821e+00
      vertex 2.356266e+01 1.262251e+00 9.856809e+00
    endloop
  endfacet
  facet normal 0.000000e+00 3.673940e-16 -1.000000e+00
    outer loop
      vertex 2.356268e+01 1.262251e+00 -1.399010e+00
      vertex 2.356258e+01 1.577003e+01 -1.399010e+00
      vertex 2.661058e+01 1.577004e+01 -1.399010e+00
    endloop
  endfacet
  facet normal 0.000000e+00 3.673940e-16 -1.000000e+00
    outer loop
      vertex 2.661058e+01 1.577004e+01 -1.399010e+00
      vertex 2.661068e+01 1.262270e+00 -1.399010e+00
      vertex 2.356268e+01 1.262251e+00 -1.399010e+00
    endloop
  endfacet
  facet normal 5.463821e-06 -1.000000e+00 -8.552532e-06
    outer loop
      vertex -2.323859e+01 2.995190e+00 -1.399111e+00
      vertex -2.628659e+01 2.995171e+00 -1.399130e+00
      vertex -2.771955e+01 2.995171e+00 -2.491600e+00
    endloop
  endfacet
  facet normal 3.675717e-06 -1.000000e+00 -1.218474e-06
    outer loop
      vertex -2.771955e+01 2.995171e+00 -2.491600e+00
      vertex -2.112945e+01 2.995190e+00 -2.491600e+00
      vertex -2.323859e+01 2.995190e+00 -1.399111e+00
    endloop
  endfacet
  facet normal 7.947294e-06 3.716585e-11 -1.000000e+00
    outer loop
      vertex -2.323859e+01 2.995190e+00 -1.399111e+00
      vertex -2.323855e+01 -4.774520e+00 -1.399111e+00
      vertex -2.628655e+01 -4.774540e+00 -1.399130e+00
    endloop
  endfacet
  facet normal 7.947277e-06 4.336000e-11 -1.000000e+00
    outer loop
      vertex -2.628655e+01 -4.774540e+00 -1.399130e+00
      vertex -2.628659e+01 2.995171e+00 -1.399130e+00
      vertex -2.323859e+01 2.995190e+00 -1.399111e+00
    endloop
  endfacet
  facet normal 3.973647e-06 2.168021e-11 -1.000000e+00
    outer loop
      vertex -2.628656e+01 -4.774540e+00 9.856700e+00
      vertex -2.628661e+01 2.995171e+00 9.856700e+00
      vertex -2.323861e+01 2.995190e+00 9.856712e+00
    endloop
  endfacet
  facet normal 3.973655e-06 1.858316e-11 -1.000000e+00
    outer loop
      vertex -2.323861e+01 2.995190e+00 9.856712e+00
      vertex -2.323857e+01 -4.774520e+00 9.856712e+00
      vertex -2.628656e+01 -4.774540e+00 9.856700e+00
    endloop
  endfacet
  facet normal -1.000000e+00 -3.576214e-06 -1.721550e-06
    outer loop
      vertex 2.771951e+01 3.609200e-01 1.396940e+00
      vertex 2.771949e+01 3.609200e-01 1.019110e+01
      vertex 2.771947e+01 3.564440e+00 1.408934e+01
    endloop
  endfacet
  facet normal -1.000000e+00 -4.608828e-06 -1.460921e-06
    outer loop
      vertex 2.771947e+01 3.564440e+00 1.408934e+01
      vertex 2.771950e+01 3.564440e+00 -2.491501e+00
      vertex 2.771951e+01 3.609200e-01 1.396940e+00
    endloop
  endfacet
  facet normal -1.000000e+00 -5.086887e-06 -2.628561e-06
    outer loop
      vertex 2.771949e+01 3.609200e-01 1.019110e+01
      vertex 2.771955e+01 -1.035339e+01 1.019110e+01
      vertex 2.771954e+01 -1.177250e+01 1.408934e+01
    endloop
  endfacet
  facet normal -1.000000e+00 -4.540805e-06 -9.288599e-07
    outer loop
      vertex 2.771954e+01 -1.177250e+01 1.408934e+01
      vertex 2.771947e+01 3.564440e+00 1.408934e+01
      vertex 2.771949e+01 3.609200e-01 1.019110e+01
    endloop
  endfacet
  facet normal -1.000000e+00 -2.595357e-06 -1.721549e-06
    outer loop
      vertex 2.771954e+01 -1.177250e+01 1.408934e+01
      vertex 2.771955e+01 -1.035339e+01 1.019110e+01
      vertex 2.771956e+01 -1.035339e+01 1.396940e+00
    endloop
  endfacet
  facet normal -1.000000e+00 -1.897625e-06 -1.643538e-06
    outer loop
      vertex 2.771956e+01 -1.035339e+01 1.396940e+00
      vertex 2.771957e+01 -1.177250e+01 -2.491501e+00
      vertex 2.771954e+01 -1.177250e+01 1.408934e+01
    endloop
  endfacet
  facet normal 4.967077e-06 -1.000000e+00 -4.649778e-06
    outer loop
      vertex 2.356255e+01 1.577003e+01 1.290481e+01
      vertex 2.661055e+01 1.577005e+01 1.290482e+01
      vertex 2.771940e+01 1.577005e+01 1.408934e+01
    endloop
  endfacet
  facet normal 3.700834e-06 -1.000000e+00 -2.061863e-07
    outer loop
      vertex 2.771940e+01 1.577005e+01 1.408934e+01
      vertex 2.281038e+01 1.577003e+01 1.408934e+01
      vertex 2.356255e+01 1.577003e+01 1.290481e+01
    endloop
  endfacet
  facet normal 0.000000e+00 -3.673940e-16 1.000000e+00
    outer loop
      vertex 2.661067e+01 1.262260e+00 1.648990e+00
      vertex 2.661057e+01 1.577004e+01 1.648990e+00
      vertex 2.356257e+01 1.577003e+01 1.648990e+00
    endloop
  endfacet
  facet normal 0.000000e+00 -3.673940e-16 1.000000e+00
    outer loop
      vertex 2.356257e+01 1.577003e+01 1.648990e+00
      vertex 2.356267e+01 1.262251e+00 1.648990e+00
      vertex 2.661067e+01 1.262260e+00 1.648990e+00
    endloop
  endfacet
  facet normal -7.947294e-06 -4.336004e-11 1.000000e+00
    outer loop
      vertex -2.323860e+01 2.995190e+00 1.648890e+00
      vertex -2.628659e+01 2.995171e+00 1.648870e+00
      vertex -2.628655e+01 -4.774540e+00 1.648870e+00
    endloop
  endfacet
  facet normal -7.947294e-06 -4.336007e-11 1.000000e+00
    outer loop
      vertex -2.628655e+01 -4.774540e+00 1.648870e+00
      vertex -2.323856e+01 -4.774520e+00 1.648890e+00
      vertex -2.323860e+01 2.995190e+00 1.648890e+00
    endloop
  endfacet
  facet normal -1.000000e+00 -3.897075e-06 1.935692e-12
    outer loop
      vertex -2.628658e+01 -4.774540e+00 1.290471e+01
      vertex -2.628661e+01 2.995171e+00 1.290471e+01
      vertex -2.628661e+01 2.995171e+00 9.856700e+00
    endloop
  endfacet
  facet normal -1.000000e+00 -5.455908e-06 -3.973636e-06
    outer loop
      vertex -2.628661e+01 2.995171e+00 9.856700e+00
      vertex -2.628656e+01 -4.774540e+00 9.856700e+00
      vertex -2.628658e+01 -4.774540e+00 1.290471e+01
    endloop
  endfacet
  facet normal -8.660261e-01 -4.606393e-06 4.999990e-01
    outer loop
      vertex 8.863988e+00 -1.576988e+01 5.799438e+00
      vertex 9.716728e+00 -1.576987e+01 7.276431e+00
      vertex 9.716722e+00 -1.463135e+01 7.276431e+00
    endloop
  endfacet
  facet normal -8.660268e-01 -2.303202e-06 4.999976e-01
    outer loop
      vertex 9.716722e+00 -1.463135e+01 7.276431e+00
      vertex 8.863985e+00 -1.463135e+01 5.799438e+00
      vertex 8.863988e+00 -1.576988e+01 5.799438e+00
    endloop
  endfacet
  facet normal 8.660268e-01 4.606391e-06 -4.999976e-01
    outer loop
      vertex 1.227495e+01 -1.576986e+01 5.799462e+00
      vertex 1.142221e+01 -1.576987e+01 4.322470e+00
      vertex 1.142220e+01 -1.463134e+01 4.322470e+00
    endloop
  endfacet
  facet normal 8.660261e-01 2.303196e-06 -4.999990e-01
    outer loop
      vertex 1.142220e+01 -1.463134e+01 4.322470e+00
      vertex 1.227494e+01 -1.463133e+01 5.799462e+00
      vertex 1.227495e+01 -1.576986e+01 5.799462e+00
    endloop
  endfacet
  facet normal -4.010544e-06 1.000000e+00 -6.903984e-12
    outer loop
      vertex 2.130209e+01 3.608894e-01 1.019109e+01
      vertex 2.771949e+01 3.609200e-01 1.019110e+01
      vertex 2.771951e+01 3.609200e-01 1.396940e+00
    endloop
  endfacet
  facet normal -4.010544e-06 1.000000e+00 -6.903993e-12
    outer loop
      vertex 2.771951e+01 3.609200e-01 1.396940e+00
      vertex 2.130210e+01 3.608894e-01 1.396940e+00
      vertex 2.130209e+01 3.608894e-01 1.019109e+01
    endloop
  endfacet
  facet normal 0.000000e+00 3.673940e-16 -1.000000e+00
    outer loop
      vertex 2.771956e+01 -1.035339e+01 1.396940e+00
      vertex 2.130215e+01 -1.035342e+01 1.396940e+00
      vertex 2.130210e+01 3.608894e-01 1.396940e+00
    endloop
  endfacet
  facet normal 0.000000e+00 3.673940e-16 -1.000000e+00
    outer loop
      vertex 2.130210e+01 3.608894e-01 1.396940e+00
      vertex 2.771951e+01 3.609200e-01 1.396940e+00
      vertex 2.771956e+01 -1.035339e+01 1.396940e+00
    endloop
  endfacet
  facet normal -3.973647e-06 -2.819788e-11 1.000000e+00
    outer loop
      vertex 2.661055e+01 1.577005e+01 1.290482e+01
      vertex 2.356255e+01 1.577003e+01 1.290481e+01
      vertex 2.356266e+01 1.262251e+00 1.290481e+01
    endloop
  endfacet
  facet normal -3.973647e-06 -2.819788e-11 1.000000e+00
    outer loop
      vertex 2.356266e+01 1.262251e+00 1.290481e+01
      vertex 2.661065e+01 1.262260e+00 1.290482e+01
      vertex 2.661055e+01 1.577005e+01 1.290482e+01
    endloop
  endfacet
  facet normal -1.000000e+00 -7.096131e-06 -9.934117e-07
    outer loop
      vertex 2.356266e+01 1.262251e+00 1.290481e+01
      vertex 2.356255e+01 1.577003e+01 1.290481e+01
      vertex 2.356256e+01 1.577003e+01 9.856809e+00
    endloop
  endfacet
  facet normal -1.000000e+00 -7.304841e-06 -1.986827e-06
    outer loop
      vertex 2.356256e+01 1.577003e+01 9.856809e+00
      vertex 2.356266e+01 1.262251e+00 9.856809e+00
      vertex 2.356266e+01 1.262251e+00 1.290481e+01
    endloop
  endfacet
  facet normal 1.000000e+00 7.096133e-06 1.986834e-06
    outer loop
      vertex 2.661057e+01 1.577004e+01 1.648990e+00
      vertex 2.661067e+01 1.262260e+00 1.648990e+00
      vertex 2.661068e+01 1.262270e+00 -1.399010e+00
    endloop
  endfacet
  facet normal 1.000000e+00 7.096134e-06 1.986823e-06
    outer loop
      vertex 2.661068e+01 1.262270e+00 -1.399010e+00
      vertex 2.661058e+01 1.577004e+01 -1.399010e+00
      vertex 2.661057e+01 1.577004e+01 1.648990e+00
    endloop
  endfacet
  facet normal 0.000000e+00 -1.000000e+00 -3.673940e-16
    outer loop
      vertex 2.356258e+01 1.577003e+01 -1.399010e+00
      vertex 2.356257e+01 1.577003e+01 1.648990e+00
      vertex 2.281038e+01 1.577003e+01 1.408934e+01
    endloop
  endfacet
  facet normal 3.760319e-06 -1.000000e+00 1.826222e-07
    outer loop
      vertex 2.281038e+01 1.577003e+01 1.408934e+01
      vertex 2.281041e+01 1.577003e+01 -2.491501e+00
      vertex 2.356258e+01 1.577003e+01 -1.399010e+00
    endloop
  endfacet
  facet normal -1.000000e+00 -6.887422e-06 -1.986823e-06
    outer loop
      vertex 2.356267e+01 1.262251e+00 1.648990e+00
      vertex 2.356257e+01 1.577003e+01 1.648990e+00
      vertex 2.356258e+01 1.577003e+01 -1.399010e+00
    endloop
  endfacet
  facet normal -1.000000e+00 -7.096133e-06 -2.980239e-06
    outer loop
      vertex 2.356258e+01 1.577003e+01 -1.399010e+00
      vertex 2.356268e+01 1.262251e+00 -1.399010e+00
      vertex 2.356267e+01 1.262251e+00 1.648990e+00
    endloop
  endfacet
  facet normal -1.000000e+00 -5.455910e-06 -1.986829e-06
    outer loop
      vertex -2.628659e+01 2.995171e+00 -1.399130e+00
      vertex -2.628655e+01 -4.774540e+00 -1.399130e+00
      vertex -2.628655e+01 -4.774540e+00 1.648870e+00
    endloop
  endfacet
  facet normal -1.000000e+00 -5.455905e-06 -1.986818e-06
    outer loop
      vertex -2.628655e+01 -4.774540e+00 1.648870e+00
      vertex -2.628659e+01 2.995171e+00 1.648870e+00
      vertex -2.628659e+01 2.995171e+00 -1.399130e+00
    endloop
  endfacet
  facet normal 4.967058e-06 -1.000000e+00 -1.175484e-06
    outer loop
      vertex -2.628661e+01 2.995171e+00 1.290471e+01
      vertex -2.323861e+01 2.995190e+00 1.290471e+01
      vertex -2.112948e+01 2.995199e+00 1.408924e+01
    endloop
  endfacet
  facet normal 3.675709e-06 -1.000000e+00 4.446687e-06
    outer loop
      vertex -2.112948e+01 2.995199e+00 1.408924e+01
      vertex -2.771958e+01 2.995171e+00 1.408923e+01
      vertex -2.628661e+01 2.995171e+00 1.290471e+01
    endloop
  endfacet
  facet normal 0.000000e+00 -3.673940e-16 1.000000e+00
    outer loop
      vertex -2.323858e+01 -4.774520e+00 1.290471e+01
      vertex -2.323861e+01 2.995190e+00 1.290471e+01
      vertex -2.628661e+01 2.995171e+00 1.290471e+01
    endloop
  endfacet
  facet normal 0.000000e+00 -3.673940e-16 1.000000e+00
    outer loop
      vertex -2.628661e+01 2.995171e+00 1.290471e+01
      vertex -2.628658e+01 -4.774540e+00 1.290471e+01
      vertex -2.323858e+01 -4.774520e+00 1.290471e+01
    endloop
  endfacet
  facet normal 1.000000e+00 4.676498e-06 -2.322844e-12
    outer loop
      vertex -2.323857e+01 -4.774520e+00 9.856712e+00
      vertex -2.323861e+01 2.995190e+00 9.856712e+00
      vertex -2.323861e+01 2.995190e+00 1.290471e+01
    endloop
  endfacet
  facet normal 1.000000e+00 3.897078e-06 1.986829e-06
    outer loop
      vertex -2.323861e+01 2.995190e+00 1.290471e+01
      vertex -2.323858e+01 -4.774520e+00 1.290471e+01
      vertex -2.323857e+01 -4.774520e+00 9.856712e+00
    endloop
  endfacet
  facet normal -1.887315e-06 -9.600926e-12 1.000000e+00
    outer loop
      vertex 2.771955e+01 -1.035339e+01 1.019110e+01
      vertex 2.771949e+01 3.609200e-01 1.019110e+01
      vertex 2.130209e+01 3.608894e-01 1.019109e+01
    endloop
  endfacet
  facet normal -1.887313e-06 -8.534188e-12 1.000000e+00
    outer loop
      vertex 2.130209e+01 3.608894e-01 1.019109e+01
      vertex 2.130214e+01 -1.035342e+01 1.019109e+01
      vertex 2.771955e+01 -1.035339e+01 1.019110e+01
    endloop
  endfacet
  facet normal 4.010541e-06 -1.000000e+00 6.903987e-12
    outer loop
      vertex 2.130214e+01 -1.035342e+01 1.019109e+01
      vertex 2.130215e+01 -1.035342e+01 1.396940e+00
      vertex 2.771956e+01 -1.035339e+01 1.396940e+00
    endloop
  endfacet
  facet normal 4.246454e-06 -1.000000e+00 1.721623e-07
    outer loop
      vertex 2.771956e+01 -1.035339e+01 1.396940e+00
      vertex 2.771955e+01 -1.035339e+01 1.019110e+01
      vertex 2.130214e+01 -1.035342e+01 1.019109e+01
    endloop
  endfacet
  facet normal -2.434643e-06 6.207561e-01 -7.840038e-01
    outer loop
      vertex -2.326074e+01 -1.179983e+01 1.409051e+01
      vertex -2.326071e+01 -1.484783e+01 1.167718e+01
      vertex -2.630870e+01 -1.484786e+01 1.167717e+01
    endloop
  endfacet
  facet normal -2.434643e-06 6.207561e-01 -7.840038e-01
    outer loop
      vertex -2.630870e+01 -1.484786e+01 1.167717e+01
      vertex -2.630874e+01 -1.179986e+01 1.409050e+01
      vertex -2.326074e+01 -1.179983e+01 1.409051e+01
    endloop
  endfacet
  facet normal -2.434645e-06 6.207563e-01 -7.840036e-01
    outer loop
      vertex 2.661012e+01 -1.179936e+01 1.409085e+01
      vertex 2.661015e+01 -1.484735e+01 1.167752e+01
      vertex 2.356215e+01 -1.484738e+01 1.167751e+01
    endloop
  endfacet
  facet normal 6.807376e-07 6.207544e-01 -7.840051e-01
    outer loop
      vertex 2.356215e+01 -1.484738e+01 1.167751e+01
      vertex 2.356212e+01 -1.179939e+01 1.409083e+01
      vertex 2.661012e+01 -1.179936e+01 1.409085e+01
    endloop
  endfacet
  facet normal -1.207122e-05 6.151776e-01 7.883886e-01
    outer loop
      vertex -2.326070e+01 -1.179984e+01 -2.486130e+00
      vertex -2.630870e+01 -1.179987e+01 -2.486151e+00
      vertex -2.630867e+01 -1.484786e+01 -1.078100e-01
    endloop
  endfacet
  facet normal -1.176570e-05 6.151774e-01 7.883887e-01
    outer loop
      vertex -2.630867e+01 -1.484786e+01 -1.078100e-01
      vertex -2.326068e+01 -1.484783e+01 -1.077795e-01
      vertex -2.326070e+01 -1.179984e+01 -2.486130e+00
    endloop
  endfacet
  facet normal -1.207123e-05 6.151774e-01 7.883887e-01
    outer loop
      vertex 2.661016e+01 -1.179936e+01 -2.485889e+00
      vertex 2.356216e+01 -1.179939e+01 -2.485910e+00
      vertex 2.356219e+01 -1.484738e+01 -1.075697e-01
    endloop
  endfacet
  facet normal -1.207123e-05 6.151774e-01 7.883887e-01
    outer loop
      vertex 2.356219e+01 -1.484738e+01 -1.075697e-01
      vertex 2.661019e+01 -1.484735e+01 -1.075401e-01
      vertex 2.661016e+01 -1.179936e+01 -2.485889e+00
    endloop
  endfacet
  facet normal -4.953884e-06 5.271004e-03 9.999861e-01
    outer loop
      vertex 2.771957e+01 -1.177250e+01 -2.491501e+00
      vertex 2.281054e+01 -1.177252e+01 -2.491529e+00
      vertex 2.356217e+01 -1.179939e+01 -2.491381e+00
    endloop
  endfacet
  facet normal -8.004203e-06 5.742684e-03 9.999835e-01
    outer loop
      vertex 2.356217e+01 -1.179939e+01 -2.491381e+00
      vertex 2.661017e+01 -1.179936e+01 -2.491360e+00
      vertex 2.771957e+01 -1.177250e+01 -2.491501e+00
    endloop
  endfacet
  facet normal -2.329045e-06 5.875112e-01 -8.092160e-01
    outer loop
      vertex 2.281054e+01 -1.576981e+01 1.100767e+01
      vertex 2.356216e+01 -1.484738e+01 1.167737e+01
      vertex 2.661016e+01 -1.484735e+01 1.167739e+01
    endloop
  endfacet
  facet normal 1.846478e-07 5.875045e-01 -8.092209e-01
    outer loop
      vertex 2.661016e+01 -1.484735e+01 1.167739e+01
      vertex 2.771956e+01 -1.576979e+01 1.100768e+01
      vertex 2.281054e+01 -1.576981e+01 1.100767e+01
    endloop
  endfacet
  facet normal -8.940702e-06 1.000000e+00 -8.127911e-07
    outer loop
      vertex 2.356215e+01 -1.484738e+01 1.167751e+01
      vertex 2.661015e+01 -1.484735e+01 1.167752e+01
      vertex 2.661016e+01 -1.484735e+01 1.167739e+01
    endloop
  endfacet
  facet normal -9.391638e-06 9.999355e-01 -1.136354e-02
    outer loop
      vertex 2.661016e+01 -1.484735e+01 1.167739e+01
      vertex 2.356216e+01 -1.484738e+01 1.167737e+01
      vertex 2.356215e+01 -1.484738e+01 1.167751e+01
    endloop
  endfacet
  facet normal 3.924053e-06 5.249333e-03 -9.999863e-01
    outer loop
      vertex 2.771954e+01 -1.177250e+01 1.408934e+01
      vertex 2.661012e+01 -1.179936e+01 1.408919e+01
      vertex 2.356213e+01 -1.179939e+01 1.408918e+01
    endloop
  endfacet
  facet normal -1.987680e-08 5.859158e-03 -9.999829e-01
    outer loop
      vertex 2.356213e+01 -1.179939e+01 1.408918e+01
      vertex 2.281052e+01 -1.177252e+01 1.408934e+01
      vertex 2.771954e+01 -1.177250e+01 1.408934e+01
    endloop
  endfacet
  facet normal 8.940714e-06 -1.000000e+00 3.287027e-08
    outer loop
      vertex 2.661012e+01 -1.179936e+01 1.409085e+01
      vertex 2.356212e+01 -1.179939e+01 1.409083e+01
      vertex 2.356213e+01 -1.179939e+01 1.408918e+01
    endloop
  endfacet
  facet normal 9.441032e-06 -9.999996e-01 -9.123567e-04
    outer loop
      vertex 2.356213e+01 -1.179939e+01 1.408918e+01
      vertex 2.661012e+01 -1.179936e+01 1.408919e+01
      vertex 2.661012e+01 -1.179936e+01 1.409085e+01
    endloop
  endfacet
  facet normal 3.928419e-06 5.053815e-03 -9.999872e-01
    outer loop
      vertex -2.112941e+01 -1.177273e+01 1.408924e+01
      vertex -2.326076e+01 -1.179983e+01 1.408910e+01
      vertex -2.630875e+01 -1.179986e+01 1.408908e+01
    endloop
  endfacet
  facet normal 1.814012e-06 5.457482e-03 -9.999851e-01
    outer loop
      vertex -2.630875e+01 -1.179986e+01 1.408908e+01
      vertex -2.771950e+01 -1.177276e+01 1.408923e+01
      vertex -2.112941e+01 -1.177273e+01 1.408924e+01
    endloop
  endfacet
  facet normal 8.944946e-06 -9.999994e-01 -1.068414e-03
    outer loop
      vertex -2.326074e+01 -1.179983e+01 1.409051e+01
      vertex -2.630874e+01 -1.179986e+01 1.409050e+01
      vertex -2.630875e+01 -1.179986e+01 1.408908e+01
    endloop
  endfacet
  facet normal 8.944963e-06 -9.999994e-01 -1.068452e-03
    outer loop
      vertex -2.630875e+01 -1.179986e+01 1.408908e+01
      vertex -2.326076e+01 -1.179983e+01 1.408910e+01
      vertex -2.326074e+01 -1.179983e+01 1.409051e+01
    endloop
  endfacet
  facet normal -5.253613e-06 5.876063e-01 -8.091470e-01
    outer loop
      vertex -2.771948e+01 -1.577005e+01 1.100762e+01
      vertex -2.630871e+01 -1.484786e+01 1.167731e+01
      vertex -2.326071e+01 -1.484783e+01 1.167731e+01
    endloop
  endfacet
  facet normal -2.429822e-06 5.875973e-01 -8.091535e-01
    outer loop
      vertex -2.326071e+01 -1.484783e+01 1.167731e+01
      vertex -2.112939e+01 -1.577002e+01 1.100762e+01
      vertex -2.771948e+01 -1.577005e+01 1.100762e+01
    endloop
  endfacet
  facet normal 8.985278e-06 -9.999355e-01 -1.136249e-02
    outer loop
      vertex -2.630870e+01 -1.484786e+01 1.167717e+01
      vertex -2.326071e+01 -1.484783e+01 1.167718e+01
      vertex -2.326071e+01 -1.484783e+01 1.167731e+01
    endloop
  endfacet
  facet normal 8.940219e-06 -9.999458e-01 -1.041573e-02
    outer loop
      vertex -2.326071e+01 -1.484783e+01 1.167731e+01
      vertex -2.630871e+01 -1.484786e+01 1.167731e+01
      vertex -2.630870e+01 -1.484786e+01 1.167717e+01
    endloop
  endfacet
  facet normal -1.478029e-02 6.148605e-01 7.884974e-01
    outer loop
      vertex 2.771957e+01 -1.177250e+01 -2.491501e+00
      vertex 2.661017e+01 -1.179936e+01 -2.491360e+00
      vertex 2.661019e+01 -1.484736e+01 -1.145697e-01
    endloop
  endfacet
  facet normal -1.451263e-02 6.148026e-01 7.885475e-01
    outer loop
      vertex 2.661019e+01 -1.484736e+01 -1.145697e-01
      vertex 2.771958e+01 -1.576980e+01 6.250401e-01
      vertex 2.771957e+01 -1.177250e+01 -2.491501e+00
    endloop
  endfacet
  facet normal -5.903530e-06 6.255461e-01 7.801872e-01
    outer loop
      vertex 2.771958e+01 -1.576980e+01 6.250401e-01
      vertex 2.661019e+01 -1.484736e+01 -1.145697e-01
      vertex 2.356219e+01 -1.484739e+01 -1.145697e-01
    endloop
  endfacet
  facet normal 1.920440e-06 6.255676e-01 7.801700e-01
    outer loop
      vertex 2.356219e+01 -1.484739e+01 -1.145697e-01
      vertex 2.281056e+01 -1.576981e+01 6.250696e-01
      vertex 2.771958e+01 -1.576980e+01 6.250401e-01
    endloop
  endfacet
  facet normal 9.435683e-06 -1.000000e+00 2.162671e-04
    outer loop
      vertex 2.661019e+01 -1.484735e+01 -1.075401e-01
      vertex 2.356219e+01 -1.484738e+01 -1.075697e-01
      vertex 2.356219e+01 -1.484739e+01 -1.145697e-01
    endloop
  endfacet
  facet normal 9.437402e-06 -1.000000e+00 2.155213e-04
    outer loop
      vertex 2.356219e+01 -1.484739e+01 -1.145697e-01
      vertex 2.661019e+01 -1.484736e+01 -1.145697e-01
      vertex 2.661019e+01 -1.484735e+01 -1.075401e-01
    endloop
  endfacet
  facet normal 2.132534e-02 6.147920e-01 7.884010e-01
    outer loop
      vertex 2.281056e+01 -1.576981e+01 6.250696e-01
      vertex 2.356219e+01 -1.484739e+01 -1.145697e-01
      vertex 2.356217e+01 -1.179939e+01 -2.491381e+00
    endloop
  endfacet
  facet normal 2.182075e-02 6.147273e-01 7.884378e-01
    outer loop
      vertex 2.356217e+01 -1.179939e+01 -2.491381e+00
      vertex 2.281054e+01 -1.177252e+01 -2.491529e+00
      vertex 2.281056e+01 -1.576981e+01 6.250696e-01
    endloop
  endfacet
  facet normal -9.999998e-01 -3.441778e-04 -4.324515e-04
    outer loop
      vertex 2.356217e+01 -1.179939e+01 -2.491381e+00
      vertex 2.356219e+01 -1.484739e+01 -1.145697e-01
      vertex 2.356219e+01 -1.484738e+01 -1.075697e-01
    endloop
  endfacet
  facet normal -9.999977e-01 -1.303678e-03 -1.659288e-03
    outer loop
      vertex 2.356219e+01 -1.484738e+01 -1.075697e-01
      vertex 2.356216e+01 -1.179939e+01 -2.485910e+00
      vertex 2.356217e+01 -1.179939e+01 -2.491381e+00
    endloop
  endfacet
  facet normal -1.491747e-02 6.204455e-01 -7.841077e-01
    outer loop
      vertex 2.661016e+01 -1.484735e+01 1.167739e+01
      vertex 2.661012e+01 -1.179936e+01 1.408919e+01
      vertex 2.771954e+01 -1.177250e+01 1.408934e+01
    endloop
  endfacet
  facet normal 2.956932e-02 6.102917e-01 -7.916247e-01
    outer loop
      vertex 2.771954e+01 -1.177250e+01 1.408934e+01
      vertex 2.771956e+01 -1.576979e+01 1.100768e+01
      vertex 2.661016e+01 -1.484735e+01 1.167739e+01
    endloop
  endfacet
  facet normal -9.999758e-01 4.315670e-03 -5.470383e-03
    outer loop
      vertex 2.661012e+01 -1.179936e+01 1.409085e+01
      vertex 2.661012e+01 -1.179936e+01 1.408919e+01
      vertex 2.661016e+01 -1.484735e+01 1.167739e+01
    endloop
  endfacet
  facet normal -9.933451e-01 7.148890e-02 -9.030411e-02
    outer loop
      vertex 2.661016e+01 -1.484735e+01 1.167739e+01
      vertex 2.661015e+01 -1.484735e+01 1.167752e+01
      vertex 2.661012e+01 -1.179936e+01 1.409085e+01
    endloop
  endfacet
  facet normal -6.267540e-02 6.192943e-01 -7.826534e-01
    outer loop
      vertex 2.356213e+01 -1.179939e+01 1.408918e+01
      vertex 2.356216e+01 -1.484738e+01 1.167737e+01
      vertex 2.281054e+01 -1.576981e+01 1.100767e+01
    endloop
  endfacet
  facet normal 2.165626e-02 6.104171e-01 -7.917840e-01
    outer loop
      vertex 2.281054e+01 -1.576981e+01 1.100767e+01
      vertex 2.281052e+01 -1.177252e+01 1.408934e+01
      vertex 2.356213e+01 -1.179939e+01 1.408918e+01
    endloop
  endfacet
  facet normal 9.961741e-01 -5.421990e-02 6.853710e-02
    outer loop
      vertex 2.356215e+01 -1.484738e+01 1.167751e+01
      vertex 2.356216e+01 -1.484738e+01 1.167737e+01
      vertex 2.356213e+01 -1.179939e+01 1.408918e+01
    endloop
  endfacet
  facet normal 9.999891e-01 -2.899972e-03 3.676431e-03
    outer loop
      vertex 2.356213e+01 -1.179939e+01 1.408918e+01
      vertex 2.356212e+01 -1.179939e+01 1.409083e+01
      vertex 2.356215e+01 -1.484738e+01 1.167751e+01
    endloop
  endfacet
  facet normal -3.333648e-02 6.201634e-01 -7.837640e-01
    outer loop
      vertex -2.630875e+01 -1.179986e+01 1.408908e+01
      vertex -2.630871e+01 -1.484786e+01 1.167731e+01
      vertex -2.771948e+01 -1.577005e+01 1.100762e+01
    endloop
  endfacet
  facet normal 1.164602e-02 6.105114e-01 -7.919218e-01
    outer loop
      vertex -2.771948e+01 -1.577005e+01 1.100762e+01
      vertex -2.771950e+01 -1.177276e+01 1.408923e+01
      vertex -2.630875e+01 -1.179986e+01 1.408908e+01
    endloop
  endfacet
  facet normal -9.986147e-01 3.264268e-02 -4.126891e-02
    outer loop
      vertex -2.630870e+01 -1.484786e+01 1.167717e+01
      vertex -2.630871e+01 -1.484786e+01 1.167731e+01
      vertex -2.630875e+01 -1.179986e+01 1.408908e+01
    endloop
  endfacet
  facet normal 9.999851e-01 3.392662e-03 -4.269816e-03
    outer loop
      vertex -2.630875e+01 -1.179986e+01 1.408908e+01
      vertex -2.630874e+01 -1.179986e+01 1.409050e+01
      vertex -2.630870e+01 -1.484786e+01 1.167717e+01
    endloop
  endfacet
  facet normal -7.836459e-03 6.204914e-01 -7.841741e-01
    outer loop
      vertex -2.326071e+01 -1.484783e+01 1.167731e+01
      vertex -2.326076e+01 -1.179983e+01 1.408910e+01
      vertex -2.112941e+01 -1.177273e+01 1.408924e+01
    endloop
  endfacet
  facet normal 1.532677e-02 6.104825e-01 -7.918814e-01
    outer loop
      vertex -2.112941e+01 -1.177273e+01 1.408924e+01
      vertex -2.112939e+01 -1.577002e+01 1.100762e+01
      vertex -2.326071e+01 -1.484783e+01 1.167731e+01
    endloop
  endfacet
  facet normal -9.999407e-01 -6.770752e-03 8.539267e-03
    outer loop
      vertex -2.326074e+01 -1.179983e+01 1.409051e+01
      vertex -2.326076e+01 -1.179983e+01 1.408910e+01
      vertex -2.326071e+01 -1.484783e+01 1.167731e+01
    endloop
  endfacet
  facet normal 9.983537e-01 -3.559840e-02 4.497518e-02
    outer loop
      vertex -2.326071e+01 -1.484783e+01 1.167731e+01
      vertex -2.326071e+01 -1.484783e+01 1.167718e+01
      vertex -2.326074e+01 -1.179983e+01 1.409051e+01
    endloop
  endfacet
  facet normal 1.146291e-02 6.148955e-01 7.885253e-01
    outer loop
      vertex -2.771947e+01 -1.577005e+01 6.250000e-01
      vertex -2.630869e+01 -1.484786e+01 -1.146402e-01
      vertex -2.630870e+01 -1.179987e+01 -2.491480e+00
    endloop
  endfacet
  facet normal 1.173189e-02 6.148344e-01 7.885691e-01
    outer loop
      vertex -2.630870e+01 -1.179987e+01 -2.491480e+00
      vertex -2.771948e+01 -1.177276e+01 -2.491631e+00
      vertex -2.771947e+01 -1.577005e+01 6.250000e-01
    endloop
  endfacet
  facet normal -9.999975e-01 1.376430e-03 1.772740e-03
    outer loop
      vertex -2.630870e+01 -1.179987e+01 -2.491480e+00
      vertex -2.630869e+01 -1.484786e+01 -1.146402e-01
      vertex -2.630867e+01 -1.484786e+01 -1.078100e-01
    endloop
  endfacet
  facet normal -9.999990e-01 8.787534e-04 1.136362e-03
    outer loop
      vertex -2.630867e+01 -1.484786e+01 -1.078100e-01
      vertex -2.630870e+01 -1.179987e+01 -2.486151e+00
      vertex -2.630870e+01 -1.179987e+01 -2.491480e+00
    endloop
  endfacet
  facet normal 9.999978e-01 1.301127e-03 1.659648e-03
    outer loop
      vertex 2.661019e+01 -1.484736e+01 -1.145697e-01
      vertex 2.661017e+01 -1.179936e+01 -2.491360e+00
      vertex 2.661016e+01 -1.179936e+01 -2.485889e+00
    endloop
  endfacet
  facet normal 9.999998e-01 3.452175e-04 4.309600e-04
    outer loop
      vertex 2.661016e+01 -1.179936e+01 -2.485889e+00
      vertex 2.661019e+01 -1.484735e+01 -1.075401e-01
      vertex 2.661019e+01 -1.484736e+01 -1.145697e-01
    endloop
  endfacet
  facet normal -9.439600e-06 1.000000e+00 2.765330e-04
    outer loop
      vertex 2.356216e+01 -1.179939e+01 -2.485910e+00
      vertex 2.661016e+01 -1.179936e+01 -2.485889e+00
      vertex 2.661017e+01 -1.179936e+01 -2.491360e+00
    endloop
  endfacet
  facet normal -9.934107e-06 1.000000e+00 -1.648358e-08
    outer loop
      vertex 2.661017e+01 -1.179936e+01 -2.491360e+00
      vertex 2.356217e+01 -1.179939e+01 -2.491381e+00
      vertex 2.356216e+01 -1.179939e+01 -2.485910e+00
    endloop
  endfacet
  facet normal -5.593936e-06 6.256719e-01 7.800863e-01
    outer loop
      vertex -2.326068e+01 -1.484783e+01 -1.146402e-01
      vertex -2.630869e+01 -1.484786e+01 -1.146402e-01
      vertex -2.771947e+01 -1.577005e+01 6.250000e-01
    endloop
  endfacet
  facet normal -5.454639e-06 6.256714e-01 7.800867e-01
    outer loop
      vertex -2.771947e+01 -1.577005e+01 6.250000e-01
      vertex -2.112936e+01 -1.577002e+01 6.250200e-01
      vertex -2.326068e+01 -1.484783e+01 -1.146402e-01
    endloop
  endfacet
  facet normal 8.940688e-06 -1.000000e+00 2.216154e-04
    outer loop
      vertex -2.630867e+01 -1.484786e+01 -1.078100e-01
      vertex -2.630869e+01 -1.484786e+01 -1.146402e-01
      vertex -2.326068e+01 -1.484783e+01 -1.146402e-01
    endloop
  endfacet
  facet normal 8.938968e-06 -1.000000e+00 2.208481e-04
    outer loop
      vertex -2.326068e+01 -1.484783e+01 -1.146402e-01
      vertex -2.326068e+01 -1.484783e+01 -1.077795e-01
      vertex -2.630867e+01 -1.484786e+01 -1.078100e-01
    endloop
  endfacet
  facet normal -7.765752e-03 6.149130e-01 7.885567e-01
    outer loop
      vertex -2.112938e+01 -1.177273e+01 -2.491600e+00
      vertex -2.326070e+01 -1.179983e+01 -2.491461e+00
      vertex -2.326068e+01 -1.484783e+01 -1.146402e-01
    endloop
  endfacet
  facet normal -7.638586e-03 6.148586e-01 7.886003e-01
    outer loop
      vertex -2.326068e+01 -1.484783e+01 -1.146402e-01
      vertex -2.112936e+01 -1.577002e+01 6.250200e-01
      vertex -2.112938e+01 -1.177273e+01 -2.491600e+00
    endloop
  endfacet
  facet normal 9.999990e-01 -8.803650e-04 -1.136613e-03
    outer loop
      vertex -2.326068e+01 -1.484783e+01 -1.146402e-01
      vertex -2.326070e+01 -1.179983e+01 -2.491461e+00
      vertex -2.326070e+01 -1.179984e+01 -2.486130e+00
    endloop
  endfacet
  facet normal 1.000000e+00 3.972962e-06 -8.774210e-10
    outer loop
      vertex -2.326070e+01 -1.179984e+01 -2.486130e+00
      vertex -2.326068e+01 -1.484783e+01 -1.077795e-01
      vertex -2.326068e+01 -1.484783e+01 -1.146402e-01
    endloop
  endfacet
  facet normal -7.996312e-06 4.945683e-03 9.999878e-01
    outer loop
      vertex -2.771948e+01 -1.177276e+01 -2.491631e+00
      vertex -2.630870e+01 -1.179987e+01 -2.491480e+00
      vertex -2.326070e+01 -1.179983e+01 -2.491461e+00
    endloop
  endfacet
  facet normal -3.699036e-06 5.653329e-03 9.999840e-01
    outer loop
      vertex -2.326070e+01 -1.179983e+01 -2.491461e+00
      vertex -2.112938e+01 -1.177273e+01 -2.491600e+00
      vertex -2.771948e+01 -1.177276e+01 -2.491631e+00
    endloop
  endfacet
  facet normal -9.934096e-06 1.000000e+00 1.128875e-08
    outer loop
      vertex -2.326070e+01 -1.179983e+01 -2.491461e+00
      vertex -2.630870e+01 -1.179987e+01 -2.491480e+00
      vertex -2.630870e+01 -1.179987e+01 -2.486151e+00
    endloop
  endfacet
  facet normal -9.439651e-06 1.000000e+00 2.841016e-04
    outer loop
      vertex -2.630870e+01 -1.179987e+01 -2.486151e+00
      vertex -2.326070e+01 -1.179984e+01 -2.486130e+00
      vertex -2.326070e+01 -1.179983e+01 -2.491461e+00
    endloop
  endfacet
  facet normal 1.000000e+00 5.953822e-06 1.900358e-07
    outer loop
      vertex 2.281045e+01 3.564430e+00 1.408934e+01
      vertex 2.281038e+01 1.577003e+01 1.408934e+01
      vertex 2.281043e+01 6.487869e+00 3.403171e+01
    endloop
  endfacet
  facet normal 1.000000e+00 -5.178688e-06 1.822000e-06
    outer loop
      vertex 2.281043e+01 6.487869e+00 3.403171e+01
      vertex 2.281041e+01 3.564430e+00 3.403171e+01
      vertex 2.281045e+01 3.564430e+00 1.408934e+01
    endloop
  endfacet
  facet normal -3.823735e-06 9.682505e-01 -2.499818e-01
    outer loop
      vertex 2.281052e+01 -1.177252e+01 1.408934e+01
      vertex 2.130214e+01 -1.177252e+01 1.408933e+01
      vertex 2.130205e+01 -6.623823e+00 3.403171e+01
    endloop
  endfacet
  facet normal -2.851906e-06 9.682506e-01 -2.499817e-01
    outer loop
      vertex 2.130205e+01 -6.623823e+00 3.403171e+01
      vertex 2.281043e+01 -6.623815e+00 3.403173e+01
      vertex 2.281052e+01 -1.177252e+01 1.408934e+01
    endloop
  endfacet
  facet normal -3.284724e-06 9.682506e-01 -2.499817e-01
    outer loop
      vertex 2.771954e+01 -1.177250e+01 1.408934e+01
      vertex 2.281052e+01 -1.177252e+01 1.408934e+01
      vertex 2.281043e+01 -6.623815e+00 3.403173e+01
    endloop
  endfacet
  facet normal -3.583339e-06 9.682505e-01 -2.499818e-01
    outer loop
      vertex 2.281043e+01 -6.623815e+00 3.403173e+01
      vertex 2.771945e+01 -6.623797e+00 3.403173e+01
      vertex 2.771954e+01 -1.177250e+01 1.408934e+01
    endloop
  endfacet
  facet normal 3.355198e-06 -9.066057e-01 -4.219787e-01
    outer loop
      vertex 2.281038e+01 1.577003e+01 1.408934e+01
      vertex 2.771940e+01 1.577005e+01 1.408934e+01
      vertex 2.771945e+01 6.487881e+00 3.403173e+01
    endloop
  endfacet
  facet normal 4.116716e-06 -9.066057e-01 -4.219788e-01
    outer loop
      vertex 2.771945e+01 6.487881e+00 3.403173e+01
      vertex 2.281043e+01 6.487869e+00 3.403171e+01
      vertex 2.281038e+01 1.577003e+01 1.408934e+01
    endloop
  endfacet
  facet normal 5.018468e-06 -1.000000e+00 7.592577e-08
    outer loop
      vertex 2.130206e+01 3.564421e+00 1.408933e+01
      vertex 2.281045e+01 3.564430e+00 1.408934e+01
      vertex 2.281041e+01 3.564430e+00 3.403171e+01
    endloop
  endfacet
  facet normal 5.018468e-06 -1.000000e+00 7.592573e-08
    outer loop
      vertex 2.281041e+01 3.564430e+00 3.403171e+01
      vertex 2.130203e+01 3.564421e+00 3.403171e+01
      vertex 2.130206e+01 3.564421e+00 1.408933e+01
    endloop
  endfacet
  facet normal -1.000000e+00 -5.705745e-06 -2.125664e-06
    outer loop
      vertex 2.771940e+01 1.577005e+01 1.408934e+01
      vertex 2.771947e+01 3.564440e+00 1.408934e+01
      vertex 2.771943e+01 3.564449e+00 3.403173e+01
    endloop
  endfacet
  facet normal -1.000000e+00 7.250163e-06 5.803911e-06
    outer loop
      vertex 2.771943e+01 3.564449e+00 3.403173e+01
      vertex 2.771945e+01 6.487881e+00 3.403173e+01
      vertex 2.771940e+01 1.577005e+01 1.408934e+01
    endloop
  endfacet
  facet normal 2.467227e-06 -1.277663e-11 -1.000000e+00
    outer loop
      vertex 2.771943e+01 3.564449e+00 3.403173e+01
      vertex 2.281041e+01 3.564430e+00 3.403171e+01
      vertex 2.281043e+01 6.487869e+00 3.403171e+01
    endloop
  endfacet
  facet normal 2.467224e-06 -1.788742e-11 -1.000000e+00
    outer loop
      vertex 2.281043e+01 6.487869e+00 3.403171e+01
      vertex 2.771945e+01 6.487881e+00 3.403173e+01
      vertex 2.771943e+01 3.564449e+00 3.403173e+01
    endloop
  endfacet
  facet normal 2.467231e-06 -1.188784e-06 -1.000000e+00
    outer loop
      vertex 2.281043e+01 -6.623815e+00 3.403173e+01
      vertex 2.281041e+01 3.564430e+00 3.403171e+01
      vertex 2.771943e+01 3.564449e+00 3.403173e+01
    endloop
  endfacet
  facet normal 0.000000e+00 3.673940e-16 -1.000000e+00
    outer loop
      vertex 2.771943e+01 3.564449e+00 3.403173e+01
      vertex 2.771945e+01 -6.623797e+00 3.403173e+01
      vertex 2.281043e+01 -6.623815e+00 3.403173e+01
    endloop
  endfacet
  facet normal 0.000000e+00 3.673940e-16 -1.000000e+00
    outer loop
      vertex 2.130205e+01 -6.623823e+00 3.403171e+01
      vertex 2.130203e+01 3.564421e+00 3.403171e+01
      vertex 2.281041e+01 3.564430e+00 3.403171e+01
    endloop
  endfacet
  facet normal 8.029587e-06 -1.188774e-06 -1.000000e+00
    outer loop
      vertex 2.281041e+01 3.564430e+00 3.403171e+01
      vertex 2.281043e+01 -6.623815e+00 3.403173e+01
      vertex 2.130205e+01 -6.623823e+00 3.403171e+01
    endloop
  endfacet
  facet normal 1.000000e+00 7.227430e-07 3.987564e-06
    outer loop
      vertex 2.130202e+01 2.988871e+00 2.482440e+01
      vertex 2.130203e+01 1.401369e+00 2.207478e+01
      vertex 2.130206e+01 3.564421e+00 1.408933e+01
    endloop
  endfacet
  facet normal 1.000000e+00 7.629393e-06 3.055981e-07
    outer loop
      vertex 2.130203e+01 1.401369e+00 2.207478e+01
      vertex 2.130206e+01 -1.773630e+00 2.207478e+01
      vertex 2.130214e+01 -1.177252e+01 1.408933e+01
    endloop
  endfacet
  facet normal 1.000000e+00 4.738231e-06 5.075255e-06
    outer loop
      vertex 2.130214e+01 -1.177252e+01 1.408933e+01
      vertex 2.130206e+01 3.564421e+00 1.408933e+01
      vertex 2.130203e+01 1.401369e+00 2.207478e+01
    endloop
  endfacet
  facet normal 1.000000e+00 7.796432e-06 9.644153e-08
    outer loop
      vertex 2.130207e+01 -3.361130e+00 2.482440e+01
      vertex 2.130214e+01 -1.177252e+01 1.408933e+01
      vertex 2.130206e+01 -1.773630e+00 2.207478e+01
    endloop
  endfacet
  facet normal 1.000000e+00 3.719233e-06 3.291102e-06
    outer loop
      vertex 2.130207e+01 -3.361130e+00 2.482440e+01
      vertex 2.130205e+01 -6.623823e+00 3.403171e+01
      vertex 2.130214e+01 -1.177252e+01 1.408933e+01
    endloop
  endfacet
  facet normal 1.000000e+00 2.609912e-06 2.898004e-06
    outer loop
      vertex 2.130207e+01 -3.361130e+00 2.482440e+01
      vertex 2.130206e+01 -1.773630e+00 2.757403e+01
      vertex 2.130205e+01 -6.623823e+00 3.403171e+01
    endloop
  endfacet
  facet normal 1.000000e+00 7.629391e-06 -1.617753e-06
    outer loop
      vertex 2.130206e+01 -1.773630e+00 2.757403e+01
      vertex 2.130203e+01 1.401369e+00 2.757403e+01
      vertex 2.130203e+01 3.564421e+00 3.403171e+01
    endloop
  endfacet
  facet normal 1.000000e+00 2.377576e-06 2.723504e-06
    outer loop
      vertex 2.130203e+01 3.564421e+00 3.403171e+01
      vertex 2.130205e+01 -6.623823e+00 3.403171e+01
      vertex 2.130206e+01 -1.773630e+00 2.757403e+01
    endloop
  endfacet
  facet normal 1.000000e+00 5.856141e-06 -1.023789e-06
    outer loop
      vertex 2.130202e+01 2.988871e+00 2.482440e+01
      vertex 2.130203e+01 3.564421e+00 3.403171e+01
      vertex 2.130203e+01 1.401369e+00 2.757403e+01
    endloop
  endfacet
  facet normal 1.000000e+00 -3.966896e-05 1.822001e-06
    outer loop
      vertex 2.130202e+01 2.988871e+00 2.482440e+01
      vertex 2.130206e+01 3.564421e+00 1.408933e+01
      vertex 2.130203e+01 3.564421e+00 3.403171e+01
    endloop
  endfacet
  facet normal -1.000000e+00 -8.877021e-06 3.353929e-05
    outer loop
      vertex 2.771913e+01 6.666698e-01 2.630141e+01
      vertex 2.771914e+01 -1.038810e+00 2.630141e+01
      vertex 2.771945e+01 -6.623797e+00 3.403173e+01
    endloop
  endfacet
  facet normal -1.000000e+00 -2.080380e-06 3.994921e-05
    outer loop
      vertex 2.771945e+01 -6.623797e+00 3.403173e+01
      vertex 2.771943e+01 3.564449e+00 3.403173e+01
      vertex 2.771913e+01 6.666698e-01 2.630141e+01
    endloop
  endfacet
  facet normal -1.000000e+00 -8.812734e-05 4.473003e-05
    outer loop
      vertex 2.771914e+01 -1.038810e+00 2.630141e+01
      vertex 2.771915e+01 -1.891550e+00 2.482442e+01
      vertex 2.771954e+01 -1.177250e+01 1.408934e+01
    endloop
  endfacet
  facet normal -1.000000e+00 -4.538565e-05 7.162618e-06
    outer loop
      vertex 2.771954e+01 -1.177250e+01 1.408934e+01
      vertex 2.771945e+01 -6.623797e+00 3.403173e+01
      vertex 2.771914e+01 -1.038810e+00 2.630141e+01
    endloop
  endfacet
  facet normal -1.000000e+00 -2.703031e-05 -1.150584e-05
    outer loop
      vertex 2.771915e+01 -1.038820e+00 2.334743e+01
      vertex 2.771954e+01 -1.177250e+01 1.408934e+01
      vertex 2.771915e+01 -1.891550e+00 2.482442e+01
    endloop
  endfacet
  facet normal -1.000000e+00 -4.540805e-06 -3.837865e-05
    outer loop
      vertex 2.771913e+01 6.666603e-01 2.334742e+01
      vertex 2.771947e+01 3.564440e+00 1.408934e+01
      vertex 2.771954e+01 -1.177250e+01 1.408934e+01
    endloop
  endfacet
  facet normal -1.000000e+00 -8.877252e-06 -3.255220e-05
    outer loop
      vertex 2.771954e+01 -1.177250e+01 1.408934e+01
      vertex 2.771915e+01 -1.038820e+00 2.334743e+01
      vertex 2.771913e+01 6.666603e-01 2.334742e+01
    endloop
  endfacet
  facet normal -1.000000e+00 3.460126e-05 -2.612718e-05
    outer loop
      vertex 2.771913e+01 6.666603e-01 2.334742e+01
      vertex 2.771912e+01 1.519400e+00 2.482442e+01
      vertex 2.771947e+01 3.564440e+00 1.408934e+01
    endloop
  endfacet
  facet normal -1.000000e+00 1.605930e-04 -2.125676e-06
    outer loop
      vertex 2.771912e+01 1.519400e+00 2.482442e+01
      vertex 2.771943e+01 3.564449e+00 3.403173e+01
      vertex 2.771947e+01 3.564440e+00 1.408934e+01
    endloop
  endfacet
  facet normal -1.000000e+00 3.682946e-05 2.536350e-05
    outer loop
      vertex 2.771912e+01 1.519400e+00 2.482442e+01
      vertex 2.771913e+01 6.666698e-01 2.630141e+01
      vertex 2.771943e+01 3.564449e+00 3.403173e+01
    endloop
  endfacet
endsolid Default
