solid Default
  facet normal 8.615708e-06 -1.000000e+00 -1.757296e-06
    outer loop
      vertex -2.341472e+01 -1.577314e+01 1.092496e+00
      vertex -2.231964e+01 -1.577312e+01 6.055832e-06
      vertex -2.341472e+01 -1.577314e+01 1.954023e+00
    endloop
  endfacet
  facet normal 9.898117e-06 -1.000000e+00 -1.038604e-06
    outer loop
      vertex -2.231964e+01 -1.577312e+01 6.055832e-06
      vertex -2.341473e+01 -1.577314e+01 4.140493e+00
      vertex -2.341472e+01 -1.577314e+01 1.954023e+00
    endloop
  endfacet
  facet normal -1.000000e+00 -2.062757e-06 -3.624876e-12
    outer loop
      vertex -2.341476e+01 4.777426e+00 1.092508e+00
      vertex -2.341472e+01 -1.577314e+01 1.092496e+00
      vertex -2.341472e+01 -1.577314e+01 1.954023e+00
    endloop
  endfacet
  facet normal 4.718709e-06 -1.000000e+00 -1.660076e-06
    outer loop
      vertex -2.646273e+01 -1.577317e+01 1.234831e+01
      vertex -2.646272e+01 -1.577315e+01 4.140487e+00
      vertex -2.341473e+01 -1.577314e+01 4.140493e+00
    endloop
  endfacet
  facet normal 2.672228e-06 -1.000000e+00 -2.028984e-06
    outer loop
      vertex 2.263439e+01 -2.996444e+00 1.658084e+01
      vertex 2.338657e+01 -2.996417e+00 4.140499e+00
      vertex 2.338656e+01 -2.996434e+00 1.234831e+01
    endloop
  endfacet
  facet normal -5.241400e-06 1.000000e+00 5.076169e-06
    outer loop
      vertex 9.540427e+00 1.577308e+01 9.768014e+00
      vertex 8.687687e+00 1.577308e+01 8.291021e+00
      vertex -2.231973e+01 1.577295e+01 3.116640e+00
    endloop
  endfacet
  facet normal -7.101649e-06 1.000000e+00 9.066494e-06
    outer loop
      vertex 2.112586e+01 1.577313e+01 1.349923e+01
      vertex 1.124591e+01 1.577309e+01 9.768021e+00
      vertex 9.540427e+00 1.577308e+01 9.768014e+00
    endloop
  endfacet
  facet normal 8.156637e-06 -1.000000e+00 -1.490096e-06
    outer loop
      vertex 2.771987e+01 -2.996386e+00 0.000000e+00
      vertex 2.643456e+01 -2.996403e+00 4.140506e+00
      vertex 2.643456e+01 -2.996398e+00 1.092496e+00
    endloop
  endfacet
  facet normal 9.465103e-06 -1.000000e+00 -1.660074e-06
    outer loop
      vertex -2.646272e+01 -1.577315e+01 4.140487e+00
      vertex -2.646273e+01 -1.577317e+01 1.234831e+01
      vertex -2.771978e+01 -1.577319e+01 1.658084e+01
    endloop
  endfacet
  facet normal 4.416999e-06 -1.000000e+00 -1.999550e-06
    outer loop
      vertex 2.112589e+01 1.177586e+01 3.936291e-05
      vertex 1.356819e+01 1.177581e+01 8.291027e+00
      vertex 1.198069e+01 1.177581e+01 5.541395e+00
    endloop
  endfacet
  facet normal 4.455545e-06 -1.000000e+00 -2.021809e-06
    outer loop
      vertex 7.218185e+00 1.177578e+01 8.291027e+00
      vertex 8.805685e+00 1.177579e+01 1.104065e+01
      vertex -2.231970e+01 1.177564e+01 1.658087e+01
    endloop
  endfacet
  facet normal -4.008145e-06 1.000000e+00 -2.314099e-06
    outer loop
      vertex 8.687687e+00 1.577308e+01 8.291021e+00
      vertex 9.540421e+00 1.577308e+01 6.814040e+00
      vertex -2.231973e+01 1.577295e+01 3.116640e+00
    endloop
  endfacet
  facet normal 4.306943e-06 -1.000000e+00 -1.738476e-06
    outer loop
      vertex 2.338656e+01 -2.996434e+00 1.234831e+01
      vertex 2.338657e+01 -2.996439e+00 1.539632e+01
      vertex 2.263439e+01 -2.996444e+00 1.658084e+01
    endloop
  endfacet
  facet normal 1.003731e-05 -1.000000e+00 -1.490132e-06
    outer loop
      vertex -2.646273e+01 -1.577317e+01 1.234831e+01
      vertex -2.646272e+01 -1.577317e+01 1.539632e+01
      vertex -2.771978e+01 -1.577319e+01 1.658084e+01
    endloop
  endfacet
  facet normal 4.768374e-06 -1.000000e+00 -1.419657e-06
    outer loop
      vertex 1.198069e+01 1.177581e+01 5.541395e+00
      vertex 8.805685e+00 1.177579e+01 5.541389e+00
      vertex 2.112589e+01 1.177586e+01 3.936291e-05
    endloop
  endfacet
  facet normal 4.703384e-06 -1.000000e+00 -1.138726e-06
    outer loop
      vertex 8.805685e+00 1.177579e+01 5.541389e+00
      vertex 7.218185e+00 1.177578e+01 8.291027e+00
      vertex -2.231970e+01 1.177564e+01 1.658087e+01
    endloop
  endfacet
  facet normal -4.032297e-06 1.000000e+00 2.328041e-06
    outer loop
      vertex 2.112586e+01 1.577314e+01 3.116616e+00
      vertex 1.124591e+01 1.577310e+01 6.814034e+00
      vertex 1.209865e+01 1.577310e+01 8.291027e+00
    endloop
  endfacet
  facet normal 4.718719e-06 -1.000000e+00 -2.028982e-06
    outer loop
      vertex 2.643456e+01 -2.996403e+00 4.140506e+00
      vertex 2.338656e+01 -2.996434e+00 1.234831e+01
      vertex 2.338657e+01 -2.996417e+00 4.140499e+00
    endloop
  endfacet
  facet normal 7.548347e-06 -1.000000e+00 -1.660075e-06
    outer loop
      vertex -2.341473e+01 -1.577314e+01 4.140493e+00
      vertex -2.231964e+01 -1.577312e+01 6.055832e-06
      vertex -2.341473e+01 -1.577315e+01 1.234831e+01
    endloop
  endfacet
  facet normal 4.718709e-06 -1.000000e+00 -1.660076e-06
    outer loop
      vertex -2.341473e+01 -1.577315e+01 1.234831e+01
      vertex -2.646273e+01 -1.577317e+01 1.234831e+01
      vertex -2.341473e+01 -1.577314e+01 4.140493e+00
    endloop
  endfacet
  facet normal 6.420629e-06 -1.000000e+00 -2.028992e-06
    outer loop
      vertex 2.771987e+01 -2.996386e+00 0.000000e+00
      vertex 2.643456e+01 -2.996419e+00 1.234831e+01
      vertex 2.643456e+01 -2.996403e+00 4.140506e+00
    endloop
  endfacet
  facet normal 4.718696e-06 -1.000000e+00 -2.028991e-06
    outer loop
      vertex 2.643456e+01 -2.996419e+00 1.234831e+01
      vertex 2.338656e+01 -2.996434e+00 1.234831e+01
      vertex 2.643456e+01 -2.996403e+00 4.140506e+00
    endloop
  endfacet
  facet normal -2.388632e-06 6.148774e-01 -7.886227e-01
    outer loop
      vertex 2.112589e+01 1.177586e+01 3.936291e-05
      vertex -2.231971e+01 1.177566e+01 1.513958e-05
      vertex -2.231973e+01 1.577295e+01 3.116640e+00
    endloop
  endfacet
  facet normal -3.225158e-06 6.148717e-01 -7.886271e-01
    outer loop
      vertex -2.231973e+01 1.577295e+01 3.116640e+00
      vertex 2.112586e+01 1.577314e+01 3.116616e+00
      vertex 2.112589e+01 1.177586e+01 3.936291e-05
    endloop
  endfacet
  facet normal -2.324343e-06 6.105578e-01 7.919717e-01
    outer loop
      vertex 2.112589e+01 1.177584e+01 1.658088e+01
      vertex 2.112586e+01 1.577313e+01 1.349923e+01
      vertex -2.231973e+01 1.577293e+01 1.349925e+01
    endloop
  endfacet
  facet normal -3.029227e-06 6.105530e-01 7.919754e-01
    outer loop
      vertex -2.231973e+01 1.577293e+01 1.349925e+01
      vertex -2.231970e+01 1.177564e+01 1.658087e+01
      vertex 2.112589e+01 1.177584e+01 1.658088e+01
    endloop
  endfacet
  facet normal 3.989750e-06 -1.000000e+00 -3.150790e-06
    outer loop
      vertex 2.112589e+01 1.177586e+01 3.936291e-05
      vertex 8.805685e+00 1.177579e+01 5.541389e+00
      vertex -2.231970e+01 1.177564e+01 1.658087e+01
    endloop
  endfacet
  facet normal 4.599833e-06 -1.000000e+00 -1.552230e-06
    outer loop
      vertex -2.231970e+01 1.177564e+01 1.658087e+01
      vertex -2.231971e+01 1.177566e+01 1.513958e-05
      vertex 2.112589e+01 1.177586e+01 3.936291e-05
    endloop
  endfacet
  facet normal -4.530137e-06 1.000000e+00 1.458164e-06
    outer loop
      vertex -2.231973e+01 1.577295e+01 3.116640e+00
      vertex -2.231973e+01 1.577293e+01 1.349925e+01
      vertex 2.112586e+01 1.577313e+01 1.349923e+01
    endloop
  endfacet
  facet normal -4.181610e-06 1.000000e+00 -2.350276e-10
    outer loop
      vertex 2.112586e+01 1.577313e+01 1.349923e+01
      vertex 9.540427e+00 1.577308e+01 9.768014e+00
      vertex -2.231973e+01 1.577295e+01 3.116640e+00
    endloop
  endfacet
  facet normal -6.022191e-06 1.000000e+00 1.458166e-06
    outer loop
      vertex 2.112586e+01 1.577314e+01 3.116616e+00
      vertex 2.112586e+01 1.577313e+01 1.349923e+01
      vertex 2.263424e+01 1.577314e+01 1.349924e+01
    endloop
  endfacet
  facet normal -8.029588e-06 1.000000e+00 1.749800e-06
    outer loop
      vertex 2.263424e+01 1.577314e+01 1.349924e+01
      vertex 2.263424e+01 1.577316e+01 3.116622e+00
      vertex 2.112586e+01 1.577314e+01 3.116616e+00
    endloop
  endfacet
  facet normal -5.630862e-06 6.105578e-01 7.919717e-01
    outer loop
      vertex 2.112586e+01 1.577313e+01 1.349923e+01
      vertex 2.112589e+01 1.177584e+01 1.658088e+01
      vertex 2.263427e+01 1.177584e+01 1.658089e+01
    endloop
  endfacet
  facet normal -6.856492e-06 6.105575e-01 7.919719e-01
    outer loop
      vertex 2.263427e+01 1.177584e+01 1.658089e+01
      vertex 2.263424e+01 1.577314e+01 1.349924e+01
      vertex 2.112586e+01 1.577313e+01 1.349923e+01
    endloop
  endfacet
  facet normal -1.770990e-06 6.148717e-01 -7.886271e-01
    outer loop
      vertex 2.112589e+01 1.177586e+01 3.936291e-05
      vertex 2.112586e+01 1.577314e+01 3.116616e+00
      vertex 2.263424e+01 1.577316e+01 3.116622e+00
    endloop
  endfacet
  facet normal -7.834986e-06 6.148732e-01 -7.886260e-01
    outer loop
      vertex 2.263424e+01 1.577316e+01 3.116622e+00
      vertex 2.263427e+01 1.177587e+01 3.027916e-05
      vertex 2.112589e+01 1.177586e+01 3.936291e-05
    endloop
  endfacet
  facet normal -5.954045e-06 1.000000e+00 1.749800e-06
    outer loop
      vertex 2.263424e+01 1.577316e+01 3.116622e+00
      vertex 2.263424e+01 1.577314e+01 1.349924e+01
      vertex 2.771972e+01 1.577317e+01 1.349923e+01
    endloop
  endfacet
  facet normal -5.954040e-06 1.000000e+00 1.749798e-06
    outer loop
      vertex 2.771972e+01 1.577317e+01 1.349923e+01
      vertex 2.771972e+01 1.577319e+01 3.116604e+00
      vertex 2.263424e+01 1.577316e+01 3.116622e+00
    endloop
  endfacet
  facet normal 1.000000e+00 6.059933e-06 9.959730e-12
    outer loop
      vertex 2.771974e+01 1.177587e+01 1.658088e+01
      vertex 2.771974e+01 1.177590e+01 3.936291e-05
      vertex 2.771972e+01 1.577319e+01 3.116604e+00
    endloop
  endfacet
  facet normal 1.000000e+00 6.059935e-06 1.060366e-11
    outer loop
      vertex 2.771972e+01 1.577319e+01 3.116604e+00
      vertex 2.771972e+01 1.577317e+01 1.349923e+01
      vertex 2.771974e+01 1.177587e+01 1.658088e+01
    endloop
  endfacet
  facet normal 1.786205e-06 1.474276e-06 -1.000000e+00
    outer loop
      vertex 2.263427e+01 1.177587e+01 3.027916e-05
      vertex 2.771974e+01 1.177590e+01 3.936291e-05
      vertex 2.771982e+01 -2.601014e+00 1.816750e-05
    endloop
  endfacet
  facet normal -5.015924e-12 8.424385e-07 -1.000000e+00
    outer loop
      vertex 2.771982e+01 -2.601014e+00 1.816750e-05
      vertex 2.263435e+01 -2.601045e+00 1.816750e-05
      vertex 2.263427e+01 1.177587e+01 3.027916e-05
    endloop
  endfacet
  facet normal -6.022190e-06 8.424054e-07 -1.000000e+00
    outer loop
      vertex 2.112589e+01 1.177586e+01 3.936291e-05
      vertex 2.263427e+01 1.177587e+01 3.027916e-05
      vertex 2.263435e+01 -2.601045e+00 1.816750e-05
    endloop
  endfacet
  facet normal -6.658707e-12 1.474267e-06 -1.000000e+00
    outer loop
      vertex 2.263435e+01 -2.601045e+00 1.816750e-05
      vertex 2.112596e+01 -2.601051e+00 1.816750e-05
      vertex 2.112589e+01 1.177586e+01 3.936291e-05
    endloop
  endfacet
  facet normal 4.516621e-06 -1.000000e+00 -1.826153e-06
    outer loop
      vertex 2.112596e+01 -2.601082e+00 1.658086e+01
      vertex 2.112596e+01 -2.601051e+00 1.816750e-05
      vertex 2.263435e+01 -2.601045e+00 1.816750e-05
    endloop
  endfacet
  facet normal 4.516621e-06 -1.000000e+00 -1.826153e-06
    outer loop
      vertex 2.263435e+01 -2.601045e+00 1.816750e-05
      vertex 2.263435e+01 -2.601075e+00 1.658086e+01
      vertex 2.112596e+01 -2.601082e+00 1.658086e+01
    endloop
  endfacet
  facet normal -1.000000e+00 -1.072183e-04 -1.957970e-10
    outer loop
      vertex 2.263435e+01 -2.601075e+00 1.658086e+01
      vertex 2.263435e+01 -2.601045e+00 1.816750e-05
      vertex 2.263439e+01 -2.996414e+00 3.027916e-06
    endloop
  endfacet
  facet normal -1.000000e+00 -1.072183e-04 -1.957970e-10
    outer loop
      vertex 2.263439e+01 -2.996414e+00 3.027916e-06
      vertex 2.263439e+01 -2.996444e+00 1.658084e+01
      vertex 2.263435e+01 -2.601075e+00 1.658086e+01
    endloop
  endfacet
  facet normal -2.735913e-10 4.595042e-05 -1.000000e+00
    outer loop
      vertex 2.263435e+01 -2.601045e+00 1.816750e-05
      vertex 2.771982e+01 -2.601014e+00 1.816750e-05
      vertex 2.771987e+01 -2.996386e+00 0.000000e+00
    endloop
  endfacet
  facet normal -5.956156e-07 3.829218e-05 -1.000000e+00
    outer loop
      vertex 2.771987e+01 -2.996386e+00 0.000000e+00
      vertex 2.263439e+01 -2.996414e+00 3.027916e-06
      vertex 2.263435e+01 -2.601045e+00 1.816750e-05
    endloop
  endfacet
  facet normal 1.000000e+00 1.225347e-04 2.237671e-10
    outer loop
      vertex 2.771982e+01 -2.601014e+00 1.816750e-05
      vertex 2.771982e+01 -2.601045e+00 1.658086e+01
      vertex 2.771987e+01 -2.996415e+00 1.658084e+01
    endloop
  endfacet
  facet normal 1.000000e+00 1.225345e-04 2.181725e-10
    outer loop
      vertex 2.771987e+01 -2.996415e+00 1.658084e+01
      vertex 2.771987e+01 -2.996386e+00 0.000000e+00
      vertex 2.771982e+01 -2.601014e+00 1.816750e-05
    endloop
  endfacet
  facet normal -6.728528e-06 1.000000e+00 1.458163e-06
    outer loop
      vertex -2.231973e+01 1.577293e+01 1.349925e+01
      vertex -2.231973e+01 1.577295e+01 3.116640e+00
      vertex -2.771987e+01 1.577291e+01 3.116640e+00
    endloop
  endfacet
  facet normal -6.728532e-06 1.000000e+00 1.458165e-06
    outer loop
      vertex -2.771987e+01 1.577291e+01 3.116640e+00
      vertex -2.771987e+01 1.577290e+01 1.349927e+01
      vertex -2.231973e+01 1.577293e+01 1.349925e+01
    endloop
  endfacet
  facet normal -1.000000e+00 -5.443228e-06 -1.826227e-07
    outer loop
      vertex -2.771984e+01 1.177562e+01 1.211166e-05
      vertex -2.771984e+01 1.177560e+01 1.658087e+01
      vertex -2.771987e+01 1.577290e+01 1.349927e+01
    endloop
  endfacet
  facet normal -1.000000e+00 -6.059936e-06 -8.836384e-12
    outer loop
      vertex -2.771987e+01 1.577290e+01 1.349927e+01
      vertex -2.771987e+01 1.577291e+01 3.116640e+00
      vertex -2.771984e+01 1.177562e+01 1.211166e-05
    endloop
  endfacet
  facet normal 5.851737e-07 -3.636171e-03 -9.999934e-01
    outer loop
      vertex -2.771984e+01 1.177562e+01 1.211166e-05
      vertex -2.231971e+01 1.177566e+01 1.513958e-05
      vertex -2.231969e+01 7.061659e+00 1.715617e-02
    endloop
  endfacet
  facet normal 2.447040e-08 -3.636814e-03 -9.999934e-01
    outer loop
      vertex -2.231969e+01 7.061659e+00 1.715617e-02
      vertex -2.771983e+01 7.061623e+00 1.715617e-02
      vertex -2.771984e+01 1.177562e+01 1.211166e-05
    endloop
  endfacet
  facet normal -1.000000e+00 -3.212283e-06 -1.826196e-07
    outer loop
      vertex -2.771984e+01 1.177560e+01 1.658087e+01
      vertex -2.771984e+01 1.177562e+01 1.211166e-05
      vertex -2.771983e+01 7.061623e+00 1.715617e-02
    endloop
  endfacet
  facet normal -1.000000e+00 -3.853941e-06 -5.994600e-12
    outer loop
      vertex -2.771983e+01 7.061623e+00 1.715617e-02
      vertex -2.771983e+01 7.061597e+00 1.656371e+01
      vertex -2.771984e+01 1.177560e+01 1.658087e+01
    endloop
  endfacet
  facet normal 1.000000e+00 4.496933e-06 -1.826082e-07
    outer loop
      vertex -2.231971e+01 1.177566e+01 1.513958e-05
      vertex -2.231970e+01 1.177564e+01 1.658087e+01
      vertex -2.231968e+01 7.061635e+00 1.656371e+01
    endloop
  endfacet
  facet normal 1.000000e+00 4.495602e-06 -1.829872e-07
    outer loop
      vertex -2.231968e+01 7.061635e+00 1.656371e+01
      vertex -2.231969e+01 7.061659e+00 1.715617e-02
      vertex -2.231971e+01 1.177566e+01 1.513958e-05
    endloop
  endfacet
  facet normal 1.000000e+00 3.324358e-06 -1.829889e-07
    outer loop
      vertex -2.231969e+01 7.061659e+00 1.715617e-02
      vertex -2.231968e+01 7.061635e+00 1.656371e+01
      vertex -2.231967e+01 3.418325e+00 1.656371e+01
    endloop
  endfacet
  facet normal 1.000000e+00 6.648717e-06 5.489915e-07
    outer loop
      vertex -2.231967e+01 3.418325e+00 1.656371e+01
      vertex -2.231966e+01 3.418351e+00 1.715012e-02
      vertex -2.231969e+01 7.061659e+00 1.715617e-02
    endloop
  endfacet
  facet normal -1.000000e+00 -5.817628e-06 -9.049011e-12
    outer loop
      vertex -2.771983e+01 7.061597e+00 1.656371e+01
      vertex -2.771983e+01 7.061623e+00 1.715617e-02
      vertex -2.771980e+01 3.418315e+00 1.715012e-02
    endloop
  endfacet
  facet normal -1.000000e+00 -4.986542e-06 -1.830006e-07
    outer loop
      vertex -2.771980e+01 3.418315e+00 1.715012e-02
      vertex -2.771981e+01 3.418292e+00 1.656371e+01
      vertex -2.771983e+01 7.061597e+00 1.656371e+01
    endloop
  endfacet
  facet normal -1.118402e-11 1.662179e-06 -1.000000e+00
    outer loop
      vertex -2.771983e+01 7.061623e+00 1.715617e-02
      vertex -2.231969e+01 7.061659e+00 1.715617e-02
      vertex -2.231966e+01 3.418351e+00 1.715012e-02
    endloop
  endfacet
  facet normal -1.118401e-11 1.662179e-06 -1.000000e+00
    outer loop
      vertex -2.231966e+01 3.418351e+00 1.715012e-02
      vertex -2.771980e+01 3.418315e+00 1.715012e-02
      vertex -2.771983e+01 7.061623e+00 1.715617e-02
    endloop
  endfacet
  facet normal -2.447038e-08 3.636812e-03 -9.999934e-01
    outer loop
      vertex -2.771980e+01 3.418315e+00 1.715012e-02
      vertex -2.231966e+01 3.418351e+00 1.715012e-02
      vertex -2.231964e+01 -1.295653e+00 6.055832e-06
    endloop
  endfacet
  facet normal -2.396061e-08 3.636813e-03 -9.999934e-01
    outer loop
      vertex -2.231964e+01 -1.295653e+00 6.055832e-06
      vertex -2.771978e+01 -1.295689e+00 6.055832e-06
      vertex -2.771980e+01 3.418315e+00 1.715012e-02
    endloop
  endfacet
  facet normal -1.000000e+00 -5.137924e-06 -1.830008e-07
    outer loop
      vertex -2.771981e+01 3.418292e+00 1.656371e+01
      vertex -2.771980e+01 3.418315e+00 1.715012e-02
      vertex -2.771978e+01 -1.295689e+00 6.055832e-06
    endloop
  endfacet
  facet normal -1.000000e+00 -5.139252e-06 -1.826226e-07
    outer loop
      vertex -2.771978e+01 -1.295689e+00 6.055832e-06
      vertex -2.771978e+01 -1.295712e+00 1.658085e+01
      vertex -2.771981e+01 3.418292e+00 1.656371e+01
    endloop
  endfacet
  facet normal 1.000000e+00 4.498262e-06 5.489882e-07
    outer loop
      vertex -2.231966e+01 3.418351e+00 1.715012e-02
      vertex -2.231967e+01 3.418325e+00 1.656371e+01
      vertex -2.231965e+01 -1.295679e+00 1.658085e+01
    endloop
  endfacet
  facet normal 1.000000e+00 3.852613e-06 3.652366e-07
    outer loop
      vertex -2.231965e+01 -1.295679e+00 1.658085e+01
      vertex -2.231964e+01 -1.295653e+00 6.055832e-06
      vertex -2.231966e+01 3.418351e+00 1.715012e-02
    endloop
  endfacet
  facet normal 1.000000e+00 4.182935e-07 3.652313e-07
    outer loop
      vertex -2.231964e+01 -1.295653e+00 6.055832e-06
      vertex -2.231965e+01 -1.295679e+00 1.658085e+01
      vertex -2.231964e+01 -1.577315e+01 1.658085e+01
    endloop
  endfacet
  facet normal 1.000000e+00 0.000000e+00 0.000000e+00
    outer loop
      vertex -2.231964e+01 -1.577315e+01 1.658085e+01
      vertex -2.231964e+01 -1.577312e+01 6.055832e-06
      vertex -2.231964e+01 -1.295653e+00 6.055832e-06
    endloop
  endfacet
  facet normal -1.000000e+00 -2.091467e-07 -1.826156e-07
    outer loop
      vertex -2.771978e+01 -1.295712e+00 1.658085e+01
      vertex -2.771978e+01 -1.295689e+00 6.055832e-06
      vertex -2.771978e+01 -1.577316e+01 3.027916e-06
    endloop
  endfacet
  facet normal -1.000000e+00 -2.091466e-07 -1.826157e-07
    outer loop
      vertex -2.771978e+01 -1.577316e+01 3.027916e-06
      vertex -2.771978e+01 -1.577319e+01 1.658084e+01
      vertex -2.771978e+01 -1.295712e+00 1.658085e+01
    endloop
  endfacet
  facet normal 0.000000e+00 0.000000e+00 -1.000000e+00
    outer loop
      vertex -2.771978e+01 -1.295689e+00 6.055832e-06
      vertex -2.231964e+01 -1.295653e+00 6.055832e-06
      vertex -2.231964e+01 -1.577312e+01 6.055832e-06
    endloop
  endfacet
  facet normal 5.607099e-07 2.091469e-07 -1.000000e+00
    outer loop
      vertex -2.231964e+01 -1.577312e+01 6.055832e-06
      vertex -2.771978e+01 -1.577316e+01 3.027916e-06
      vertex -2.771978e+01 -1.295689e+00 6.055832e-06
    endloop
  endfacet
  facet normal 2.483530e-06 -1.000000e+00 -4.967059e-07
    outer loop
      vertex -2.341476e+01 4.777425e+00 4.140506e+00
      vertex -2.646276e+01 4.777417e+00 4.140499e+00
      vertex -2.646276e+01 4.777419e+00 1.092502e+00
    endloop
  endfacet
  facet normal 2.483533e-06 -1.000000e+00 -4.967083e-07
    outer loop
      vertex -2.646276e+01 4.777419e+00 1.092502e+00
      vertex -2.341476e+01 4.777426e+00 1.092508e+00
      vertex -2.341476e+01 4.777425e+00 4.140506e+00
    endloop
  endfacet
  facet normal 1.986822e-06 -1.000000e+00 -4.967019e-07
    outer loop
      vertex -2.341477e+01 4.777405e+00 1.539632e+01
      vertex -2.646276e+01 4.777399e+00 1.539633e+01
      vertex -2.646276e+01 4.777401e+00 1.234832e+01
    endloop
  endfacet
  facet normal 1.490118e-06 -1.000000e+00 1.480300e-12
    outer loop
      vertex -2.646276e+01 4.777401e+00 1.234832e+01
      vertex -2.341476e+01 4.777405e+00 1.234833e+01
      vertex -2.341477e+01 4.777405e+00 1.539632e+01
    endloop
  endfacet
  facet normal 4.921493e-06 -1.000000e+00 4.621875e-07
    outer loop
      vertex 1.124591e+01 1.463457e+01 6.814034e+00
      vertex 1.198067e+01 1.463457e+01 5.541389e+00
      vertex 1.356817e+01 1.463458e+01 8.291027e+00
    endloop
  endfacet
  facet normal 6.181438e-06 -1.000000e+00 -1.518815e-06
    outer loop
      vertex 1.356817e+01 1.463458e+01 8.291027e+00
      vertex 1.209865e+01 1.463457e+01 8.291027e+00
      vertex 1.124591e+01 1.463457e+01 6.814034e+00
    endloop
  endfacet
  facet normal 4.768375e-06 -1.000000e+00 2.005445e-06
    outer loop
      vertex 9.540427e+00 1.463456e+01 6.814040e+00
      vertex 8.805667e+00 1.463455e+01 5.541395e+00
      vertex 1.198067e+01 1.463457e+01 5.541389e+00
    endloop
  endfacet
  facet normal 3.550807e-06 -1.000000e+00 -3.291760e-07
    outer loop
      vertex 1.198067e+01 1.463457e+01 5.541389e+00
      vertex 1.124591e+01 1.463457e+01 6.814034e+00
      vertex 9.540427e+00 1.463456e+01 6.814040e+00
    endloop
  endfacet
  facet normal 4.120959e-06 -1.000000e+00 1.768112e-07
    outer loop
      vertex 8.687693e+00 1.463455e+01 8.291021e+00
      vertex 7.218173e+00 1.463455e+01 8.291027e+00
      vertex 8.805667e+00 1.463455e+01 5.541395e+00
    endloop
  endfacet
  facet normal 7.671792e-06 -1.000000e+00 3.291609e-07
    outer loop
      vertex 8.805667e+00 1.463455e+01 5.541395e+00
      vertex 9.540427e+00 1.463456e+01 6.814040e+00
      vertex 8.687693e+00 1.463455e+01 8.291021e+00
    endloop
  endfacet
  facet normal 5.074629e-06 -1.000000e+00 -1.828629e-06
    outer loop
      vertex 9.540433e+00 1.463456e+01 9.768014e+00
      vertex 8.805673e+00 1.463455e+01 1.104066e+01
      vertex 7.218173e+00 1.463455e+01 8.291027e+00
    endloop
  endfacet
  facet normal 4.120957e-06 -1.000000e+00 -3.291744e-07
    outer loop
      vertex 7.218173e+00 1.463455e+01 8.291027e+00
      vertex 8.687693e+00 1.463455e+01 8.291021e+00
      vertex 9.540433e+00 1.463456e+01 9.768014e+00
    endloop
  endfacet
  facet normal 4.768366e-06 -1.000000e+00 -2.753037e-06
    outer loop
      vertex 1.124591e+01 1.463457e+01 9.768021e+00
      vertex 1.198067e+01 1.463457e+01 1.104065e+01
      vertex 8.805673e+00 1.463455e+01 1.104066e+01
    endloop
  endfacet
  facet normal 5.326219e-06 -1.000000e+00 -1.683375e-06
    outer loop
      vertex 8.805673e+00 1.463455e+01 1.104066e+01
      vertex 9.540433e+00 1.463456e+01 9.768014e+00
      vertex 1.124591e+01 1.463457e+01 9.768021e+00
    endloop
  endfacet
  facet normal 6.181438e-06 -1.000000e+00 -8.359797e-07
    outer loop
      vertex 1.209865e+01 1.463457e+01 8.291027e+00
      vertex 1.356817e+01 1.463458e+01 8.291027e+00
      vertex 1.198067e+01 1.463457e+01 1.104065e+01
    endloop
  endfacet
  facet normal 1.775396e-06 -1.000000e+00 -1.025032e-06
    outer loop
      vertex 1.198067e+01 1.463457e+01 1.104065e+01
      vertex 1.124591e+01 1.463457e+01 9.768021e+00
      vertex 1.209865e+01 1.463457e+01 8.291027e+00
    endloop
  endfacet
  facet normal 4.768372e-06 -1.000000e+00 -2.643222e-07
    outer loop
      vertex -2.231970e+01 1.177564e+01 1.658087e+01
      vertex 8.805685e+00 1.177579e+01 1.104065e+01
      vertex 1.198069e+01 1.177580e+01 1.104066e+01
    endloop
  endfacet
  facet normal 4.599833e-06 -1.000000e+00 -1.307777e-06
    outer loop
      vertex 1.198069e+01 1.177580e+01 1.104066e+01
      vertex 2.112589e+01 1.177584e+01 1.658088e+01
      vertex -2.231970e+01 1.177564e+01 1.658087e+01
    endloop
  endfacet
  facet normal -1.907339e-06 -2.118346e-06 -1.000000e+00
    outer loop
      vertex 8.805673e+00 1.463455e+01 1.104066e+01
      vertex 1.198067e+01 1.463457e+01 1.104065e+01
      vertex 1.198069e+01 1.177580e+01 1.104066e+01
    endloop
  endfacet
  facet normal 1.907339e-06 2.118346e-06 -1.000000e+00
    outer loop
      vertex 1.198069e+01 1.177580e+01 1.104066e+01
      vertex 8.805685e+00 1.177579e+01 1.104065e+01
      vertex 8.805673e+00 1.463455e+01 1.104066e+01
    endloop
  endfacet
  facet normal 3.550809e-06 1.888678e-11 -1.000000e+00
    outer loop
      vertex 1.124591e+01 1.577309e+01 9.768021e+00
      vertex 1.124591e+01 1.463457e+01 9.768021e+00
      vertex 9.540433e+00 1.463456e+01 9.768014e+00
    endloop
  endfacet
  facet normal 3.550809e-06 1.888683e-11 -1.000000e+00
    outer loop
      vertex 9.540433e+00 1.463456e+01 9.768014e+00
      vertex 9.540427e+00 1.577308e+01 9.768014e+00
      vertex 1.124591e+01 1.577309e+01 9.768021e+00
    endloop
  endfacet
  facet normal -1.000000e+00 -2.422342e-06 -4.423568e-12
    outer loop
      vertex 2.112596e+01 -2.601051e+00 1.816750e-05
      vertex 2.112596e+01 -2.601082e+00 1.658086e+01
      vertex 2.112595e+01 2.398906e+00 1.268263e+01
    endloop
  endfacet
  facet normal -1.000000e+00 -2.422345e-06 -3.336154e-12
    outer loop
      vertex 2.112595e+01 2.398906e+00 1.268263e+01
      vertex 2.112595e+01 2.398918e+00 3.888480e+00
      vertex 2.112596e+01 -2.601051e+00 1.816750e-05
    endloop
  endfacet
  facet normal -1.000000e+00 -6.848927e-06 5.691907e-06
    outer loop
      vertex 2.112596e+01 -2.601051e+00 1.816750e-05
      vertex 2.112595e+01 2.398918e+00 3.888480e+00
      vertex 2.112589e+01 1.035675e+01 3.888498e+00
    endloop
  endfacet
  facet normal -1.000000e+00 -5.054630e-06 -2.873272e-07
    outer loop
      vertex 2.112589e+01 1.035675e+01 3.888498e+00
      vertex 2.112589e+01 1.177586e+01 3.936291e-05
      vertex 2.112596e+01 -2.601051e+00 1.816750e-05
    endloop
  endfacet
  facet normal 8.669554e-06 -1.000000e+00 -1.738464e-06
    outer loop
      vertex 2.771987e+01 -2.996415e+00 1.658084e+01
      vertex 2.643456e+01 -2.996424e+00 1.539632e+01
      vertex 2.643456e+01 -2.996419e+00 1.234831e+01
    endloop
  endfacet
  facet normal 8.807979e-06 -1.000000e+00 -1.780499e-06
    outer loop
      vertex 2.643456e+01 -2.996419e+00 1.234831e+01
      vertex 2.771987e+01 -2.996386e+00 0.000000e+00
      vertex 2.771987e+01 -2.996415e+00 1.658084e+01
    endloop
  endfacet
  facet normal 5.507491e-06 -1.000000e+00 -4.606767e-06
    outer loop
      vertex 2.263439e+01 -2.996414e+00 3.027916e-06
      vertex 2.771987e+01 -2.996386e+00 0.000000e+00
      vertex 2.643456e+01 -2.996398e+00 1.092496e+00
    endloop
  endfacet
  facet normal 4.718704e-06 -1.000000e+00 -1.863019e-06
    outer loop
      vertex 2.643456e+01 -2.996398e+00 1.092496e+00
      vertex 2.338657e+01 -2.996412e+00 1.092499e+00
      vertex 2.263439e+01 -2.996414e+00 3.027916e-06
    endloop
  endfacet
  facet normal 8.524386e-06 -1.000000e+00 -1.490126e-06
    outer loop
      vertex -2.231964e+01 -1.577315e+01 1.658085e+01
      vertex -2.341473e+01 -1.577316e+01 1.539631e+01
      vertex -2.341473e+01 -1.577315e+01 1.234831e+01
    endloop
  endfacet
  facet normal 8.764419e-06 -1.000000e+00 -1.552230e-06
    outer loop
      vertex -2.341473e+01 -1.577315e+01 1.234831e+01
      vertex -2.231964e+01 -1.577312e+01 6.055832e-06
      vertex -2.231964e+01 -1.577315e+01 1.658085e+01
    endloop
  endfacet
  facet normal 8.660263e-01 3.669075e-06 4.999983e-01
    outer loop
      vertex 8.805667e+00 1.463455e+01 5.541395e+00
      vertex 7.218173e+00 1.463455e+01 8.291027e+00
      vertex 7.218185e+00 1.177578e+01 8.291027e+00
    endloop
  endfacet
  facet normal 8.660260e-01 4.444450e-06 4.999989e-01
    outer loop
      vertex 7.218185e+00 1.177578e+01 8.291027e+00
      vertex 8.805685e+00 1.177579e+01 5.541389e+00
      vertex 8.805667e+00 1.463455e+01 5.541395e+00
    endloop
  endfacet
  facet normal -1.000000e+00 -2.178867e-06 -2.769686e-06
    outer loop
      vertex -2.341476e+01 4.777426e+00 1.092508e+00
      vertex -2.341472e+01 -1.577314e+01 1.954023e+00
      vertex -2.341473e+01 -1.577314e+01 4.140493e+00
    endloop
  endfacet
  facet normal -1.000000e+00 -1.620738e-06 9.934109e-07
    outer loop
      vertex -2.341473e+01 -1.577314e+01 4.140493e+00
      vertex -2.341476e+01 4.777425e+00 4.140506e+00
      vertex -2.341476e+01 4.777426e+00 1.092508e+00
    endloop
  endfacet
  facet normal 1.136167e-05 -1.000000e+00 -1.986823e-06
    outer loop
      vertex -2.771978e+01 -1.577316e+01 3.027916e-06
      vertex -2.646272e+01 -1.577315e+01 1.092490e+00
      vertex -2.646272e+01 -1.577315e+01 4.140487e+00
    endloop
  endfacet
  facet normal 1.008058e-05 -1.000000e+00 -1.597882e-06
    outer loop
      vertex -2.646272e+01 -1.577315e+01 4.140487e+00
      vertex -2.771978e+01 -1.577319e+01 1.658084e+01
      vertex -2.771978e+01 -1.577316e+01 3.027916e-06
    endloop
  endfacet
  facet normal -8.660252e-01 -4.444441e-06 5.000004e-01
    outer loop
      vertex 1.356817e+01 1.463458e+01 8.291027e+00
      vertex 1.198067e+01 1.463457e+01 5.541389e+00
      vertex 1.198069e+01 1.177581e+01 5.541395e+00
    endloop
  endfacet
  facet normal -8.660256e-01 -3.669068e-06 4.999998e-01
    outer loop
      vertex 1.198069e+01 1.177581e+01 5.541395e+00
      vertex 1.356819e+01 1.177581e+01 8.291027e+00
      vertex 1.356817e+01 1.463458e+01 8.291027e+00
    endloop
  endfacet
  facet normal 8.660256e-01 4.728238e-06 -4.999998e-01
    outer loop
      vertex 7.218173e+00 1.463455e+01 8.291027e+00
      vertex 8.805673e+00 1.463455e+01 1.104066e+01
      vertex 8.805685e+00 1.177579e+01 1.104065e+01
    endloop
  endfacet
  facet normal 8.660250e-01 3.669069e-06 -5.000006e-01
    outer loop
      vertex 8.805685e+00 1.177579e+01 1.104065e+01
      vertex 7.218185e+00 1.177578e+01 8.291027e+00
      vertex 7.218173e+00 1.463455e+01 8.291027e+00
    endloop
  endfacet
  facet normal 8.660258e-01 4.606386e-06 4.999993e-01
    outer loop
      vertex 8.687687e+00 1.577308e+01 8.291021e+00
      vertex 8.687693e+00 1.463455e+01 8.291021e+00
      vertex 9.540427e+00 1.463456e+01 6.814040e+00
    endloop
  endfacet
  facet normal 8.660258e-01 4.606410e-06 4.999993e-01
    outer loop
      vertex 9.540427e+00 1.463456e+01 6.814040e+00
      vertex 9.540421e+00 1.577308e+01 6.814040e+00
      vertex 8.687687e+00 1.577308e+01 8.291021e+00
    endloop
  endfacet
  facet normal -1.000000e+00 -7.497751e-06 -1.303457e-11
    outer loop
      vertex 2.643453e+01 1.849700e+00 1.234834e+01
      vertex 2.643456e+01 -2.996419e+00 1.234831e+01
      vertex 2.643456e+01 -2.996424e+00 1.539632e+01
    endloop
  endfacet
  facet normal -1.000000e+00 -7.497740e-06 3.724172e-12
    outer loop
      vertex 2.643456e+01 -2.996424e+00 1.539632e+01
      vertex 2.643453e+01 1.849701e+00 1.539634e+01
      vertex 2.643453e+01 1.849700e+00 1.234834e+01
    endloop
  endfacet
  facet normal 1.907359e-06 -2.118330e-06 1.000000e+00
    outer loop
      vertex 1.198067e+01 1.463457e+01 5.541389e+00
      vertex 8.805667e+00 1.463455e+01 5.541395e+00
      vertex 8.805685e+00 1.177579e+01 5.541389e+00
    endloop
  endfacet
  facet normal -1.907359e-06 2.118330e-06 1.000000e+00
    outer loop
      vertex 8.805685e+00 1.177579e+01 5.541389e+00
      vertex 1.198069e+01 1.177581e+01 5.541395e+00
      vertex 1.198067e+01 1.463457e+01 5.541389e+00
    endloop
  endfacet
  facet normal -7.101612e-06 1.000000e+00 -5.873549e-06
    outer loop
      vertex 9.540421e+00 1.577308e+01 6.814040e+00
      vertex 1.124591e+01 1.577310e+01 6.814034e+00
      vertex 2.112586e+01 1.577314e+01 3.116616e+00
    endloop
  endfacet
  facet normal -4.530137e-06 1.000000e+00 2.183865e-06
    outer loop
      vertex 2.112586e+01 1.577314e+01 3.116616e+00
      vertex -2.231973e+01 1.577295e+01 3.116640e+00
      vertex 9.540421e+00 1.577308e+01 6.814040e+00
    endloop
  endfacet
  facet normal 3.550809e-06 1.888683e-11 1.000000e+00
    outer loop
      vertex 9.540421e+00 1.577308e+01 6.814040e+00
      vertex 9.540427e+00 1.463456e+01 6.814040e+00
      vertex 1.124591e+01 1.463457e+01 6.814034e+00
    endloop
  endfacet
  facet normal 3.550796e-06 0.000000e+00 1.000000e+00
    outer loop
      vertex 1.124591e+01 1.463457e+01 6.814034e+00
      vertex 1.124591e+01 1.577310e+01 6.814034e+00
      vertex 9.540421e+00 1.577308e+01 6.814040e+00
    endloop
  endfacet
  facet normal 6.497982e-06 -1.000000e+00 -1.026169e-07
    outer loop
      vertex 1.198069e+01 1.177580e+01 1.104066e+01
      vertex 1.356819e+01 1.177581e+01 8.291027e+00
      vertex 2.112589e+01 1.177586e+01 3.936291e-05
    endloop
  endfacet
  facet normal 4.747925e-06 -1.000000e+00 -1.552230e-06
    outer loop
      vertex 2.112589e+01 1.177586e+01 3.936291e-05
      vertex 2.112589e+01 1.177584e+01 1.658088e+01
      vertex 1.198069e+01 1.177580e+01 1.104066e+01
    endloop
  endfacet
  facet normal -8.660256e-01 -3.669068e-06 -4.999998e-01
    outer loop
      vertex 1.356817e+01 1.463458e+01 8.291027e+00
      vertex 1.356819e+01 1.177581e+01 8.291027e+00
      vertex 1.198069e+01 1.177580e+01 1.104066e+01
    endloop
  endfacet
  facet normal -8.660250e-01 -4.728237e-06 -5.000006e-01
    outer loop
      vertex 1.198069e+01 1.177580e+01 1.104066e+01
      vertex 1.198067e+01 1.463457e+01 1.104065e+01
      vertex 1.356817e+01 1.463458e+01 8.291027e+00
    endloop
  endfacet
  facet normal -6.264938e-06 1.000000e+00 -1.566999e-06
    outer loop
      vertex 2.112586e+01 1.577314e+01 3.116616e+00
      vertex 1.209865e+01 1.577310e+01 8.291027e+00
      vertex 1.124591e+01 1.577309e+01 9.768021e+00
    endloop
  endfacet
  facet normal -4.228330e-06 1.000000e+00 1.458166e-06
    outer loop
      vertex 1.124591e+01 1.577309e+01 9.768021e+00
      vertex 2.112586e+01 1.577313e+01 1.349923e+01
      vertex 2.112586e+01 1.577314e+01 3.116616e+00
    endloop
  endfacet
  facet normal -8.660260e-01 -4.606399e-06 -4.999989e-01
    outer loop
      vertex 1.124591e+01 1.577309e+01 9.768021e+00
      vertex 1.209865e+01 1.577310e+01 8.291027e+00
      vertex 1.209865e+01 1.463457e+01 8.291027e+00
    endloop
  endfacet
  facet normal -8.660260e-01 -4.606399e-06 -4.999989e-01
    outer loop
      vertex 1.209865e+01 1.463457e+01 8.291027e+00
      vertex 1.124591e+01 1.463457e+01 9.768021e+00
      vertex 1.124591e+01 1.577309e+01 9.768021e+00
    endloop
  endfacet
  facet normal 1.000000e+00 6.087932e-06 -4.713374e-06
    outer loop
      vertex 2.771976e+01 1.035678e+01 3.888498e+00
      vertex 2.771980e+01 2.398955e+00 3.888486e+00
      vertex 2.771982e+01 -2.601014e+00 1.816750e-05
    endloop
  endfacet
  facet normal 1.000000e+00 5.054632e-06 -1.270054e-06
    outer loop
      vertex 2.771982e+01 -2.601014e+00 1.816750e-05
      vertex 2.771974e+01 1.177590e+01 3.936291e-05
      vertex 2.771976e+01 1.035678e+01 3.888498e+00
    endloop
  endfacet
  facet normal -1.000000e+00 -6.848918e-06 9.397803e-07
    outer loop
      vertex 2.112589e+01 1.177584e+01 1.658088e+01
      vertex 2.112589e+01 1.035673e+01 1.268264e+01
      vertex 2.112595e+01 2.398906e+00 1.268263e+01
    endloop
  endfacet
  facet normal -1.000000e+00 -5.054625e-06 -3.376245e-06
    outer loop
      vertex 2.112595e+01 2.398906e+00 1.268263e+01
      vertex 2.112596e+01 -2.601082e+00 1.658086e+01
      vertex 2.112589e+01 1.177584e+01 1.658088e+01
    endloop
  endfacet
  facet normal -1.000000e+00 -4.267347e-06 -7.346461e-12
    outer loop
      vertex 2.112589e+01 1.035675e+01 3.888498e+00
      vertex 2.112589e+01 1.035673e+01 1.268264e+01
      vertex 2.112589e+01 1.177584e+01 1.658088e+01
    endloop
  endfacet
  facet normal -1.000000e+00 -4.267354e-06 -6.623917e-12
    outer loop
      vertex 2.112589e+01 1.177584e+01 1.658088e+01
      vertex 2.112589e+01 1.177586e+01 3.936291e-05
      vertex 2.112589e+01 1.035675e+01 3.888498e+00
    endloop
  endfacet
  facet normal 2.358638e-11 -4.998495e-06 1.000000e+00
    outer loop
      vertex 2.338653e+01 1.849691e+00 1.234834e+01
      vertex 2.338656e+01 -2.996434e+00 1.234831e+01
      vertex 2.643456e+01 -2.996419e+00 1.234831e+01
    endloop
  endfacet
  facet normal -1.986805e-06 -6.248140e-06 1.000000e+00
    outer loop
      vertex 2.643456e+01 -2.996419e+00 1.234831e+01
      vertex 2.643453e+01 1.849700e+00 1.234834e+01
      vertex 2.338653e+01 1.849691e+00 1.234834e+01
    endloop
  endfacet
  facet normal 9.934323e-07 -4.373679e-06 1.000000e+00
    outer loop
      vertex 2.338653e+01 1.849709e+00 1.092521e+00
      vertex 2.338657e+01 -2.996412e+00 1.092499e+00
      vertex 2.643456e+01 -2.996398e+00 1.092496e+00
    endloop
  endfacet
  facet normal 1.986833e-06 -3.748864e-06 1.000000e+00
    outer loop
      vertex 2.643456e+01 -2.996398e+00 1.092496e+00
      vertex 2.643453e+01 1.849716e+00 1.092514e+00
      vertex 2.338653e+01 1.849709e+00 1.092521e+00
    endloop
  endfacet
  facet normal 3.973626e-06 -1.000000e+00 6.514127e-06
    outer loop
      vertex -2.341472e+01 -1.577314e+01 1.092496e+00
      vertex -2.646272e+01 -1.577315e+01 1.092490e+00
      vertex -2.771978e+01 -1.577316e+01 3.027916e-06
    endloop
  endfacet
  facet normal 6.588360e-06 -1.000000e+00 -3.789443e-06
    outer loop
      vertex -2.771978e+01 -1.577316e+01 3.027916e-06
      vertex -2.231964e+01 -1.577312e+01 6.055832e-06
      vertex -2.341472e+01 -1.577314e+01 1.092496e+00
    endloop
  endfacet
  facet normal -1.986824e-06 -5.893633e-07 1.000000e+00
    outer loop
      vertex -2.341472e+01 -1.577314e+01 1.092496e+00
      vertex -2.341476e+01 4.777426e+00 1.092508e+00
      vertex -2.646276e+01 4.777419e+00 1.092502e+00
    endloop
  endfacet
  facet normal -1.986817e-06 -5.893623e-07 1.000000e+00
    outer loop
      vertex -2.646276e+01 4.777419e+00 1.092502e+00
      vertex -2.646272e+01 -1.577315e+01 1.092490e+00
      vertex -2.341472e+01 -1.577314e+01 1.092496e+00
    endloop
  endfacet
  facet normal -1.986821e-06 -5.893623e-07 1.000000e+00
    outer loop
      vertex -2.646276e+01 4.777401e+00 1.234832e+01
      vertex -2.646273e+01 -1.577317e+01 1.234831e+01
      vertex -2.341473e+01 -1.577315e+01 1.234831e+01
    endloop
  endfacet
  facet normal -1.986823e-06 -5.893626e-07 1.000000e+00
    outer loop
      vertex -2.341473e+01 -1.577315e+01 1.234831e+01
      vertex -2.341476e+01 4.777405e+00 1.234833e+01
      vertex -2.646276e+01 4.777401e+00 1.234832e+01
    endloop
  endfacet
  facet normal 1.000000e+00 4.170398e-06 6.886278e-07
    outer loop
      vertex 2.771980e+01 2.398955e+00 3.888486e+00
      vertex 2.771980e+01 2.398941e+00 1.268263e+01
      vertex 2.771982e+01 -2.601045e+00 1.658086e+01
    endloop
  endfacet
  facet normal 1.000000e+00 2.422345e-06 4.423572e-12
    outer loop
      vertex 2.771982e+01 -2.601045e+00 1.658086e+01
      vertex 2.771982e+01 -2.601014e+00 1.816750e-05
      vertex 2.771980e+01 2.398955e+00 3.888486e+00
    endloop
  endfacet
  facet normal 1.000000e+00 6.087926e-06 -6.627508e-07
    outer loop
      vertex 2.771980e+01 2.398941e+00 1.268263e+01
      vertex 2.771975e+01 1.035677e+01 1.268264e+01
      vertex 2.771974e+01 1.177587e+01 1.658088e+01
    endloop
  endfacet
  facet normal 1.000000e+00 5.054627e-06 1.822765e-06
    outer loop
      vertex 2.771974e+01 1.177587e+01 1.658088e+01
      vertex 2.771982e+01 -2.601045e+00 1.658086e+01
      vertex 2.771980e+01 2.398941e+00 1.268263e+01
    endloop
  endfacet
  facet normal 1.000000e+00 2.375735e-06 6.886245e-07
    outer loop
      vertex 2.771974e+01 1.177587e+01 1.658088e+01
      vertex 2.771975e+01 1.035677e+01 1.268264e+01
      vertex 2.771976e+01 1.035678e+01 3.888498e+00
    endloop
  endfacet
  facet normal 1.000000e+00 8.534692e-06 1.402709e-11
    outer loop
      vertex 2.771976e+01 1.035678e+01 3.888498e+00
      vertex 2.771974e+01 1.177590e+01 3.936291e-05
      vertex 2.771974e+01 1.177587e+01 1.658088e+01
    endloop
  endfacet
  facet normal 4.718700e-06 -1.000000e+00 2.548536e-06
    outer loop
      vertex 2.338657e+01 -2.996439e+00 1.539632e+01
      vertex 2.643456e+01 -2.996424e+00 1.539632e+01
      vertex 2.771987e+01 -2.996415e+00 1.658084e+01
    endloop
  endfacet
  facet normal 5.656344e-06 -1.000000e+00 -8.816031e-07
    outer loop
      vertex 2.771987e+01 -2.996415e+00 1.658084e+01
      vertex 2.263439e+01 -2.996444e+00 1.658084e+01
      vertex 2.338657e+01 -2.996439e+00 1.539632e+01
    endloop
  endfacet
  facet normal 1.986810e-06 3.748887e-06 -1.000000e+00
    outer loop
      vertex 2.643453e+01 1.849718e+00 4.140524e+00
      vertex 2.643456e+01 -2.996403e+00 4.140506e+00
      vertex 2.338657e+01 -2.996417e+00 4.140499e+00
    endloop
  endfacet
  facet normal 1.986806e-06 3.748889e-06 -1.000000e+00
    outer loop
      vertex 2.338657e+01 -2.996417e+00 4.140499e+00
      vertex 2.338652e+01 1.849707e+00 4.140518e+00
      vertex 2.643453e+01 1.849718e+00 4.140524e+00
    endloop
  endfacet
  facet normal 1.986821e-06 5.893622e-07 -1.000000e+00
    outer loop
      vertex -2.341473e+01 -1.577314e+01 4.140493e+00
      vertex -2.646272e+01 -1.577315e+01 4.140487e+00
      vertex -2.646276e+01 4.777417e+00 4.140499e+00
    endloop
  endfacet
  facet normal 1.986822e-06 5.893624e-07 -1.000000e+00
    outer loop
      vertex -2.646276e+01 4.777417e+00 4.140499e+00
      vertex -2.341476e+01 4.777425e+00 4.140506e+00
      vertex -2.341473e+01 -1.577314e+01 4.140493e+00
    endloop
  endfacet
  facet normal 1.000000e+00 2.062758e-06 -1.986812e-06
    outer loop
      vertex -2.646276e+01 4.777399e+00 1.539633e+01
      vertex -2.646272e+01 -1.577317e+01 1.539632e+01
      vertex -2.646273e+01 -1.577317e+01 1.234831e+01
    endloop
  endfacet
  facet normal 1.000000e+00 1.620737e-06 9.934085e-07
    outer loop
      vertex -2.646273e+01 -1.577317e+01 1.234831e+01
      vertex -2.646276e+01 4.777401e+00 1.234832e+01
      vertex -2.646276e+01 4.777399e+00 1.539633e+01
    endloop
  endfacet
  facet normal 8.660260e-01 4.606411e-06 -4.999989e-01
    outer loop
      vertex 8.687687e+00 1.577308e+01 8.291021e+00
      vertex 9.540427e+00 1.577308e+01 9.768014e+00
      vertex 9.540433e+00 1.463456e+01 9.768014e+00
    endloop
  endfacet
  facet normal 8.660260e-01 4.606387e-06 -4.999989e-01
    outer loop
      vertex 9.540433e+00 1.463456e+01 9.768014e+00
      vertex 8.687693e+00 1.463455e+01 8.291021e+00
      vertex 8.687687e+00 1.577308e+01 8.291021e+00
    endloop
  endfacet
  facet normal -8.660260e-01 0.000000e+00 4.999989e-01
    outer loop
      vertex 1.209865e+01 1.577310e+01 8.291027e+00
      vertex 1.124591e+01 1.577310e+01 6.814034e+00
      vertex 1.124591e+01 1.463457e+01 6.814034e+00
    endloop
  endfacet
  facet normal -8.660245e-01 -4.606391e-06 5.000015e-01
    outer loop
      vertex 1.124591e+01 1.463457e+01 6.814034e+00
      vertex 1.209865e+01 1.463457e+01 8.291027e+00
      vertex 1.209865e+01 1.577310e+01 8.291027e+00
    endloop
  endfacet
  facet normal -5.280835e-06 1.000000e+00 1.549394e-06
    outer loop
      vertex 2.112595e+01 2.398906e+00 1.268263e+01
      vertex 2.771980e+01 2.398941e+00 1.268263e+01
      vertex 2.771980e+01 2.398955e+00 3.888486e+00
    endloop
  endfacet
  facet normal -5.510432e-06 1.000000e+00 1.377242e-06
    outer loop
      vertex 2.771980e+01 2.398955e+00 3.888486e+00
      vertex 2.112595e+01 2.398918e+00 3.888480e+00
      vertex 2.112595e+01 2.398906e+00 1.268263e+01
    endloop
  endfacet
  facet normal 1.205597e-11 -2.282971e-06 1.000000e+00
    outer loop
      vertex 2.771976e+01 1.035678e+01 3.888498e+00
      vertex 2.112589e+01 1.035675e+01 3.888498e+00
      vertex 2.112595e+01 2.398918e+00 3.888480e+00
    endloop
  endfacet
  facet normal -9.183968e-07 -1.521987e-06 1.000000e+00
    outer loop
      vertex 2.112595e+01 2.398918e+00 3.888480e+00
      vertex 2.771980e+01 2.398955e+00 3.888486e+00
      vertex 2.771976e+01 1.035678e+01 3.888498e+00
    endloop
  endfacet
  facet normal 1.986806e-06 3.748882e-06 -1.000000e+00
    outer loop
      vertex 2.643456e+01 -2.996424e+00 1.539632e+01
      vertex 2.338657e+01 -2.996439e+00 1.539632e+01
      vertex 2.338653e+01 1.849691e+00 1.539633e+01
    endloop
  endfacet
  facet normal 1.986810e-06 3.748885e-06 -1.000000e+00
    outer loop
      vertex 2.338653e+01 1.849691e+00 1.539633e+01
      vertex 2.643453e+01 1.849701e+00 1.539634e+01
      vertex 2.643456e+01 -2.996424e+00 1.539632e+01
    endloop
  endfacet
  facet normal 1.000000e+00 7.497742e-06 -1.986806e-06
    outer loop
      vertex 2.338653e+01 1.849691e+00 1.539633e+01
      vertex 2.338657e+01 -2.996439e+00 1.539632e+01
      vertex 2.338656e+01 -2.996434e+00 1.234831e+01
    endloop
  endfacet
  facet normal 1.000000e+00 6.248119e-06 0.000000e+00
    outer loop
      vertex 2.338656e+01 -2.996434e+00 1.234831e+01
      vertex 2.338653e+01 1.849691e+00 1.234834e+01
      vertex 2.338653e+01 1.849691e+00 1.539633e+01
    endloop
  endfacet
  facet normal -1.000000e+00 -6.248124e-06 3.103467e-12
    outer loop
      vertex 2.643456e+01 -2.996403e+00 4.140506e+00
      vertex 2.643453e+01 1.849718e+00 4.140524e+00
      vertex 2.643453e+01 1.849716e+00 1.092514e+00
    endloop
  endfacet
  facet normal -1.000000e+00 -7.497750e-06 -1.986827e-06
    outer loop
      vertex 2.643453e+01 1.849716e+00 1.092514e+00
      vertex 2.643456e+01 -2.996398e+00 1.092496e+00
      vertex 2.643456e+01 -2.996403e+00 4.140506e+00
    endloop
  endfacet
  facet normal 1.158463e-05 -1.000000e+00 -1.490116e-06
    outer loop
      vertex 2.338657e+01 -2.996412e+00 1.092499e+00
      vertex 2.338657e+01 -2.996417e+00 4.140499e+00
      vertex 2.263439e+01 -2.996444e+00 1.658084e+01
    endloop
  endfacet
  facet normal 4.665159e-06 -1.000000e+00 -1.826153e-06
    outer loop
      vertex 2.263439e+01 -2.996444e+00 1.658084e+01
      vertex 2.263439e+01 -2.996414e+00 3.027916e-06
      vertex 2.338657e+01 -2.996412e+00 1.092499e+00
    endloop
  endfacet
  facet normal 1.000000e+00 8.747366e-06 1.303459e-11
    outer loop
      vertex 2.338652e+01 1.849707e+00 4.140518e+00
      vertex 2.338657e+01 -2.996417e+00 4.140499e+00
      vertex 2.338657e+01 -2.996412e+00 1.092499e+00
    endloop
  endfacet
  facet normal 1.000000e+00 7.497738e-06 1.986827e-06
    outer loop
      vertex 2.338657e+01 -2.996412e+00 1.092499e+00
      vertex 2.338653e+01 1.849709e+00 1.092521e+00
      vertex 2.338652e+01 1.849707e+00 4.140518e+00
    endloop
  endfacet
  facet normal 1.000000e+00 1.620737e-06 8.050298e-13
    outer loop
      vertex -2.646272e+01 -1.577315e+01 1.092490e+00
      vertex -2.646276e+01 4.777419e+00 1.092502e+00
      vertex -2.646276e+01 4.777417e+00 4.140499e+00
    endloop
  endfacet
  facet normal 1.000000e+00 1.620737e-06 3.220119e-12
    outer loop
      vertex -2.646276e+01 4.777417e+00 4.140499e+00
      vertex -2.646272e+01 -1.577315e+01 4.140487e+00
      vertex -2.646272e+01 -1.577315e+01 1.092490e+00
    endloop
  endfacet
  facet normal 4.718714e-06 -1.000000e+00 2.028140e-06
    outer loop
      vertex -2.646272e+01 -1.577317e+01 1.539632e+01
      vertex -2.341473e+01 -1.577316e+01 1.539631e+01
      vertex -2.231964e+01 -1.577315e+01 1.658085e+01
    endloop
  endfacet
  facet normal 6.728537e-06 -1.000000e+00 -5.001510e-06
    outer loop
      vertex -2.231964e+01 -1.577315e+01 1.658085e+01
      vertex -2.771978e+01 -1.577319e+01 1.658084e+01
      vertex -2.646272e+01 -1.577317e+01 1.539632e+01
    endloop
  endfacet
  facet normal -1.986828e-06 5.893554e-07 -1.000000e+00
    outer loop
      vertex -2.341477e+01 4.777405e+00 1.539632e+01
      vertex -2.341473e+01 -1.577316e+01 1.539631e+01
      vertex -2.646272e+01 -1.577317e+01 1.539632e+01
    endloop
  endfacet
  facet normal -1.986825e-06 5.893549e-07 -1.000000e+00
    outer loop
      vertex -2.646272e+01 -1.577317e+01 1.539632e+01
      vertex -2.646276e+01 4.777399e+00 1.539633e+01
      vertex -2.341477e+01 4.777405e+00 1.539632e+01
    endloop
  endfacet
  facet normal -1.000000e+00 -1.620739e-06 9.934092e-07
    outer loop
      vertex -2.341476e+01 4.777405e+00 1.234833e+01
      vertex -2.341473e+01 -1.577315e+01 1.234831e+01
      vertex -2.341473e+01 -1.577316e+01 1.539631e+01
    endloop
  endfacet
  facet normal -1.000000e+00 -1.915417e-06 -9.934117e-07
    outer loop
      vertex -2.341473e+01 -1.577316e+01 1.539631e+01
      vertex -2.341477e+01 4.777405e+00 1.539632e+01
      vertex -2.341476e+01 4.777405e+00 1.234833e+01
    endloop
  endfacet
  facet normal -1.205600e-11 2.282972e-06 -1.000000e+00
    outer loop
      vertex 2.771975e+01 1.035677e+01 1.268264e+01
      vertex 2.771980e+01 2.398941e+00 1.268263e+01
      vertex 2.112595e+01 2.398906e+00 1.268263e+01
    endloop
  endfacet
  facet normal -1.258016e-11 2.282972e-06 -1.000000e+00
    outer loop
      vertex 2.112595e+01 2.398906e+00 1.268263e+01
      vertex 2.112589e+01 1.035673e+01 1.268264e+01
      vertex 2.771975e+01 1.035677e+01 1.268264e+01
    endloop
  endfacet
  facet normal 5.280825e-06 -1.000000e+00 -1.721552e-06
    outer loop
      vertex 2.112589e+01 1.035673e+01 1.268264e+01
      vertex 2.112589e+01 1.035675e+01 3.888498e+00
      vertex 2.771976e+01 1.035678e+01 3.888498e+00
    endloop
  endfacet
  facet normal 5.510431e-06 -1.000000e+00 -1.549393e-06
    outer loop
      vertex 2.771976e+01 1.035678e+01 3.888498e+00
      vertex 2.771975e+01 1.035677e+01 1.268264e+01
      vertex 2.112589e+01 1.035673e+01 1.268264e+01
    endloop
  endfacet
  facet normal 1.754279e-06 5.359306e-03 -9.999856e-01
    outer loop
      vertex 2.771974e+01 1.177590e+01 3.936291e-05
      vertex 2.263427e+01 1.177587e+01 3.027916e-05
      vertex 2.338590e+01 1.180274e+01 1.756191e-04
    endloop
  endfacet
  facet normal 1.986794e-06 5.396845e-03 -9.999854e-01
    outer loop
      vertex 2.338590e+01 1.180274e+01 1.756191e-04
      vertex 2.643390e+01 1.180274e+01 1.816750e-04
      vertex 2.771974e+01 1.177590e+01 3.936291e-05
    endloop
  endfacet
  facet normal -2.191409e-06 5.875038e-01 8.092214e-01
    outer loop
      vertex 2.263424e+01 1.577314e+01 1.349924e+01
      vertex 2.338588e+01 1.485072e+01 1.416893e+01
      vertex 2.643388e+01 1.485072e+01 1.416893e+01
    endloop
  endfacet
  facet normal -2.534390e-06 5.875029e-01 8.092221e-01
    outer loop
      vertex 2.643388e+01 1.485072e+01 1.416893e+01
      vertex 2.771972e+01 1.577317e+01 1.349923e+01
      vertex 2.263424e+01 1.577314e+01 1.349924e+01
    endloop
  endfacet
  facet normal -3.978761e-06 5.202502e-03 9.999865e-01
    outer loop
      vertex -2.231970e+01 1.177564e+01 1.658087e+01
      vertex -2.343701e+01 1.180272e+01 1.658072e+01
      vertex -2.648501e+01 1.180271e+01 1.658071e+01
    endloop
  endfacet
  facet normal -3.582881e-08 5.808994e-03 9.999831e-01
    outer loop
      vertex -2.648501e+01 1.180271e+01 1.658071e+01
      vertex -2.771984e+01 1.177560e+01 1.658087e+01
      vertex -2.231970e+01 1.177564e+01 1.658087e+01
    endloop
  endfacet
  facet normal 1.274853e-02 6.148791e-01 -7.885184e-01
    outer loop
      vertex 2.771974e+01 1.177590e+01 3.936291e-05
      vertex 2.643390e+01 1.180274e+01 1.816750e-04
      vertex 2.643389e+01 1.485074e+01 2.376981e+00
    endloop
  endfacet
  facet normal 1.252170e-02 6.148217e-01 -7.885668e-01
    outer loop
      vertex 2.643389e+01 1.485074e+01 2.376981e+00
      vertex 2.771972e+01 1.577319e+01 3.116604e+00
      vertex 2.771974e+01 1.177590e+01 3.936291e-05
    endloop
  endfacet
  facet normal -1.550078e-06 6.255542e-01 -7.801807e-01
    outer loop
      vertex 2.771972e+01 1.577319e+01 3.116604e+00
      vertex 2.643389e+01 1.485074e+01 2.376981e+00
      vertex 2.338589e+01 1.485074e+01 2.376987e+00
    endloop
  endfacet
  facet normal -6.511762e-06 6.255684e-01 -7.801694e-01
    outer loop
      vertex 2.338589e+01 1.485074e+01 2.376987e+00
      vertex 2.263424e+01 1.577316e+01 3.116622e+00
      vertex 2.771972e+01 1.577319e+01 3.116604e+00
    endloop
  endfacet
  facet normal -2.133321e-02 6.147910e-01 -7.884015e-01
    outer loop
      vertex 2.263424e+01 1.577316e+01 3.116622e+00
      vertex 2.338589e+01 1.485074e+01 2.376987e+00
      vertex 2.338590e+01 1.180274e+01 1.756191e-04
    endloop
  endfacet
  facet normal -2.182559e-02 6.147266e-01 -7.884382e-01
    outer loop
      vertex 2.338590e+01 1.180274e+01 1.756191e-04
      vertex 2.263427e+01 1.177587e+01 3.027916e-05
      vertex 2.263424e+01 1.577316e+01 3.116622e+00
    endloop
  endfacet
  facet normal 1.286493e-02 6.204616e-01 7.841313e-01
    outer loop
      vertex 2.643388e+01 1.485072e+01 1.416893e+01
      vertex 2.643387e+01 1.180272e+01 1.658073e+01
      vertex 2.771974e+01 1.177587e+01 1.658088e+01
    endloop
  endfacet
  facet normal -2.551762e-02 6.103586e-01 7.917141e-01
    outer loop
      vertex 2.771974e+01 1.177587e+01 1.658088e+01
      vertex 2.771972e+01 1.577317e+01 1.349923e+01
      vertex 2.643388e+01 1.485072e+01 1.416893e+01
    endloop
  endfacet
  facet normal 6.268180e-02 6.192932e-01 7.826537e-01
    outer loop
      vertex 2.338588e+01 1.180272e+01 1.658073e+01
      vertex 2.338588e+01 1.485072e+01 1.416893e+01
      vertex 2.263424e+01 1.577314e+01 1.349924e+01
    endloop
  endfacet
  facet normal -2.166116e-02 6.104141e-01 7.917862e-01
    outer loop
      vertex 2.263424e+01 1.577314e+01 1.349924e+01
      vertex 2.263427e+01 1.177584e+01 1.658089e+01
      vertex 2.338588e+01 1.180272e+01 1.658073e+01
    endloop
  endfacet
  facet normal -1.309972e-02 6.148843e-01 -7.885086e-01
    outer loop
      vertex -2.771987e+01 1.577291e+01 3.116640e+00
      vertex -2.648499e+01 1.485074e+01 2.377008e+00
      vertex -2.648498e+01 1.180274e+01 1.604795e-04
    endloop
  endfacet
  facet normal -1.340704e-02 6.148224e-01 -7.885515e-01
    outer loop
      vertex -2.648498e+01 1.180274e+01 1.604795e-04
      vertex -2.771984e+01 1.177562e+01 1.211166e-05
      vertex -2.771987e+01 1.577291e+01 3.116640e+00
    endloop
  endfacet
  facet normal -1.549897e-06 6.256701e-01 -7.800878e-01
    outer loop
      vertex -2.343699e+01 1.485074e+01 2.377002e+00
      vertex -2.648499e+01 1.485074e+01 2.377008e+00
      vertex -2.771987e+01 1.577291e+01 3.116640e+00
    endloop
  endfacet
  facet normal -4.209788e-06 6.256625e-01 -7.800938e-01
    outer loop
      vertex -2.771987e+01 1.577291e+01 3.116640e+00
      vertex -2.231973e+01 1.577295e+01 3.116640e+00
      vertex -2.343699e+01 1.485074e+01 2.377002e+00
    endloop
  endfacet
  facet normal 1.479782e-02 6.148680e-01 -7.884912e-01
    outer loop
      vertex -2.231971e+01 1.177566e+01 1.513958e-05
      vertex -2.343698e+01 1.180274e+01 1.665354e-04
      vertex -2.343699e+01 1.485074e+01 2.377002e+00
    endloop
  endfacet
  facet normal 1.454264e-02 6.148124e-01 -7.885393e-01
    outer loop
      vertex -2.343699e+01 1.485074e+01 2.377002e+00
      vertex -2.231973e+01 1.577295e+01 3.116640e+00
      vertex -2.231971e+01 1.177566e+01 1.513958e-05
    endloop
  endfacet
  facet normal 1.984118e-06 5.380764e-03 -9.999855e-01
    outer loop
      vertex -2.771984e+01 1.177562e+01 1.211166e-05
      vertex -2.648498e+01 1.180274e+01 1.604795e-04
      vertex -2.343698e+01 1.180274e+01 1.665354e-04
    endloop
  endfacet
  facet normal 5.229452e-07 5.611513e-03 -9.999843e-01
    outer loop
      vertex -2.343698e+01 1.180274e+01 1.665354e-04
      vertex -2.231971e+01 1.177566e+01 1.513958e-05
      vertex -2.771984e+01 1.177562e+01 1.211166e-05
    endloop
  endfacet
  facet normal 2.599119e-10 -4.595051e-05 1.000000e+00
    outer loop
      vertex 2.263439e+01 -2.996444e+00 1.658084e+01
      vertex 2.771987e+01 -2.996415e+00 1.658084e+01
      vertex 2.771982e+01 -2.601045e+00 1.658086e+01
    endloop
  endfacet
  facet normal 2.735929e-10 -4.595069e-05 1.000000e+00
    outer loop
      vertex 2.771982e+01 -2.601045e+00 1.658086e+01
      vertex 2.263435e+01 -2.601075e+00 1.658086e+01
      vertex 2.263439e+01 -2.996444e+00 1.658084e+01
    endloop
  endfacet
  facet normal 7.523884e-12 -1.263657e-06 1.000000e+00
    outer loop
      vertex 2.771974e+01 1.177587e+01 1.658088e+01
      vertex 2.263435e+01 -2.601075e+00 1.658086e+01
      vertex 2.771982e+01 -2.601045e+00 1.658086e+01
    endloop
  endfacet
  facet normal 5.707461e-12 -1.263657e-06 1.000000e+00
    outer loop
      vertex 2.112589e+01 1.177584e+01 1.658088e+01
      vertex 2.112596e+01 -2.601082e+00 1.658086e+01
      vertex 2.263435e+01 -2.601075e+00 1.658086e+01
    endloop
  endfacet
  facet normal 3.728022e-06 -6.271138e-01 -7.789277e-01
    outer loop
      vertex 2.643453e+01 1.849718e+00 4.140524e+00
      vertex 2.338652e+01 1.849707e+00 4.140518e+00
      vertex 2.338653e+01 2.384646e+00 3.709839e+00
    endloop
  endfacet
  facet normal 3.728029e-06 -6.271138e-01 -7.789277e-01
    outer loop
      vertex 2.338653e+01 2.384646e+00 3.709839e+00
      vertex 2.643453e+01 2.384657e+00 3.709845e+00
      vertex 2.643453e+01 1.849718e+00 4.140524e+00
    endloop
  endfacet
  facet normal 1.986823e-06 0.000000e+00 1.000000e+00
    outer loop
      vertex 2.338653e+01 1.849709e+00 1.092521e+00
      vertex 2.643453e+01 1.849716e+00 1.092514e+00
      vertex 2.643453e+01 2.384657e+00 1.092514e+00
    endloop
  endfacet
  facet normal 1.986823e-06 0.000000e+00 1.000000e+00
    outer loop
      vertex 2.643453e+01 2.384657e+00 1.092514e+00
      vertex 2.338653e+01 2.384649e+00 1.092521e+00
      vertex 2.338653e+01 1.849709e+00 1.092521e+00
    endloop
  endfacet
  facet normal 1.986823e-06 0.000000e+00 -1.000000e+00
    outer loop
      vertex 2.643453e+01 1.849701e+00 1.539634e+01
      vertex 2.338653e+01 1.849691e+00 1.539633e+01
      vertex 2.338653e+01 2.384631e+00 1.539633e+01
    endloop
  endfacet
  facet normal 1.986823e-06 0.000000e+00 -1.000000e+00
    outer loop
      vertex 2.338653e+01 2.384631e+00 1.539633e+01
      vertex 2.643453e+01 2.384642e+00 1.539634e+01
      vertex 2.643453e+01 1.849701e+00 1.539634e+01
    endloop
  endfacet
  facet normal 3.213497e-07 -6.271127e-01 7.789286e-01
    outer loop
      vertex 2.338653e+01 1.849691e+00 1.234834e+01
      vertex 2.643453e+01 1.849700e+00 1.234834e+01
      vertex 2.643453e+01 2.384640e+00 1.277902e+01
    endloop
  endfacet
  facet normal 3.213497e-07 -6.271127e-01 7.789286e-01
    outer loop
      vertex 2.643453e+01 2.384640e+00 1.277902e+01
      vertex 2.338653e+01 2.384631e+00 1.277902e+01
      vertex 2.338653e+01 1.849691e+00 1.234834e+01
    endloop
  endfacet
  facet normal 1.000000e+00 0.000000e+00 0.000000e+00
    outer loop
      vertex 2.338653e+01 1.849691e+00 1.539633e+01
      vertex 2.338653e+01 1.849691e+00 1.234834e+01
      vertex 2.338653e+01 2.384631e+00 1.277902e+01
    endloop
  endfacet
  facet normal 1.000000e+00 0.000000e+00 0.000000e+00
    outer loop
      vertex 2.338653e+01 2.384631e+00 1.277902e+01
      vertex 2.338653e+01 2.384631e+00 1.539633e+01
      vertex 2.338653e+01 1.849691e+00 1.539633e+01
    endloop
  endfacet
  facet normal 1.000000e+00 0.000000e+00 1.986823e-06
    outer loop
      vertex 2.338652e+01 1.849707e+00 4.140518e+00
      vertex 2.338653e+01 1.849709e+00 1.092521e+00
      vertex 2.338653e+01 2.384649e+00 1.092521e+00
    endloop
  endfacet
  facet normal 1.000000e+00 -1.132062e-05 -1.309656e-11
    outer loop
      vertex 2.338653e+01 2.384649e+00 1.092521e+00
      vertex 2.338653e+01 2.384646e+00 3.709839e+00
      vertex 2.338652e+01 1.849707e+00 4.140518e+00
    endloop
  endfacet
  facet normal -1.000000e+00 0.000000e+00 0.000000e+00
    outer loop
      vertex 2.643453e+01 1.849716e+00 1.092514e+00
      vertex 2.643453e+01 1.849718e+00 4.140524e+00
      vertex 2.643453e+01 2.384657e+00 3.709845e+00
    endloop
  endfacet
  facet normal -1.000000e+00 0.000000e+00 0.000000e+00
    outer loop
      vertex 2.643453e+01 2.384657e+00 3.709845e+00
      vertex 2.643453e+01 2.384657e+00 1.092514e+00
      vertex 2.643453e+01 1.849716e+00 1.092514e+00
    endloop
  endfacet
  facet normal -1.000000e+00 0.000000e+00 0.000000e+00
    outer loop
      vertex 2.643453e+01 1.849700e+00 1.234834e+01
      vertex 2.643453e+01 1.849701e+00 1.539634e+01
      vertex 2.643453e+01 2.384642e+00 1.539634e+01
    endloop
  endfacet
  facet normal -1.000000e+00 0.000000e+00 0.000000e+00
    outer loop
      vertex 2.643453e+01 2.384642e+00 1.539634e+01
      vertex 2.643453e+01 2.384640e+00 1.277902e+01
      vertex 2.643453e+01 1.849700e+00 1.234834e+01
    endloop
  endfacet
  facet normal -1.000000e+00 -2.541664e-06 1.470197e-12
    outer loop
      vertex 2.643453e+01 2.384640e+00 1.277902e+01
      vertex 2.643453e+01 2.384642e+00 1.539634e+01
      vertex 2.643452e+01 4.767266e+00 1.539634e+01
    endloop
  endfacet
  facet normal -1.000000e+00 -2.541666e-06 2.940395e-12
    outer loop
      vertex 2.643452e+01 4.767266e+00 1.539634e+01
      vertex 2.643452e+01 4.767263e+00 1.277902e+01
      vertex 2.643453e+01 2.384640e+00 1.277902e+01
    endloop
  endfacet
  facet normal -1.000000e+00 -2.541663e-06 0.000000e+00
    outer loop
      vertex 2.643453e+01 2.384657e+00 1.092514e+00
      vertex 2.643453e+01 2.384657e+00 3.709845e+00
      vertex 2.643452e+01 4.767283e+00 3.709845e+00
    endloop
  endfacet
  facet normal -1.000000e+00 -2.541664e-06 1.470190e-12
    outer loop
      vertex 2.643452e+01 4.767283e+00 3.709845e+00
      vertex 2.643452e+01 4.767281e+00 1.092514e+00
      vertex 2.643453e+01 2.384657e+00 1.092514e+00
    endloop
  endfacet
  facet normal 1.000000e+00 2.541666e-06 2.940395e-12
    outer loop
      vertex 2.338653e+01 2.384646e+00 3.709839e+00
      vertex 2.338653e+01 2.384649e+00 1.092521e+00
      vertex 2.338652e+01 4.767272e+00 1.092521e+00
    endloop
  endfacet
  facet normal 1.000000e+00 5.083325e-06 2.313754e-06
    outer loop
      vertex 2.338652e+01 4.767272e+00 1.092521e+00
      vertex 2.338652e+01 4.767272e+00 3.709839e+00
      vertex 2.338653e+01 2.384646e+00 3.709839e+00
    endloop
  endfacet
  facet normal 1.000000e+00 2.541666e-06 0.000000e+00
    outer loop
      vertex 2.338653e+01 2.384631e+00 1.539633e+01
      vertex 2.338653e+01 2.384631e+00 1.277902e+01
      vertex 2.338652e+01 4.767254e+00 1.277902e+01
    endloop
  endfacet
  facet normal 1.000000e+00 2.541666e-06 0.000000e+00
    outer loop
      vertex 2.338652e+01 4.767254e+00 1.277902e+01
      vertex 2.338652e+01 4.767254e+00 1.539633e+01
      vertex 2.338653e+01 2.384631e+00 1.539633e+01
    endloop
  endfacet
  facet normal -1.986823e-06 -5.049841e-12 1.000000e+00
    outer loop
      vertex 2.338653e+01 2.384631e+00 1.277902e+01
      vertex 2.643453e+01 2.384640e+00 1.277902e+01
      vertex 2.643452e+01 4.767263e+00 1.277902e+01
    endloop
  endfacet
  facet normal -1.986823e-06 -5.049841e-12 1.000000e+00
    outer loop
      vertex 2.643452e+01 4.767263e+00 1.277902e+01
      vertex 2.338652e+01 4.767254e+00 1.277902e+01
      vertex 2.338653e+01 2.384631e+00 1.277902e+01
    endloop
  endfacet
  facet normal 1.986823e-06 5.049841e-12 -1.000000e+00
    outer loop
      vertex 2.643453e+01 2.384642e+00 1.539634e+01
      vertex 2.338653e+01 2.384631e+00 1.539633e+01
      vertex 2.338652e+01 4.767254e+00 1.539633e+01
    endloop
  endfacet
  facet normal 1.986823e-06 5.049838e-12 -1.000000e+00
    outer loop
      vertex 2.338652e+01 4.767254e+00 1.539633e+01
      vertex 2.643452e+01 4.767266e+00 1.539634e+01
      vertex 2.643453e+01 2.384642e+00 1.539634e+01
    endloop
  endfacet
  facet normal 1.986823e-06 5.049838e-12 1.000000e+00
    outer loop
      vertex 2.338653e+01 2.384649e+00 1.092521e+00
      vertex 2.643453e+01 2.384657e+00 1.092514e+00
      vertex 2.643452e+01 4.767281e+00 1.092514e+00
    endloop
  endfacet
  facet normal 1.986823e-06 5.049841e-12 1.000000e+00
    outer loop
      vertex 2.643452e+01 4.767281e+00 1.092514e+00
      vertex 2.338652e+01 4.767272e+00 1.092521e+00
      vertex 2.338653e+01 2.384649e+00 1.092521e+00
    endloop
  endfacet
  facet normal 1.986823e-06 1.009967e-11 -1.000000e+00
    outer loop
      vertex 2.643453e+01 2.384657e+00 3.709845e+00
      vertex 2.338653e+01 2.384646e+00 3.709839e+00
      vertex 2.338652e+01 4.767272e+00 3.709839e+00
    endloop
  endfacet
  facet normal 1.986819e-06 5.049825e-12 -1.000000e+00
    outer loop
      vertex 2.338652e+01 4.767272e+00 3.709839e+00
      vertex 2.643452e+01 4.767283e+00 3.709845e+00
      vertex 2.643453e+01 2.384657e+00 3.709845e+00
    endloop
  endfacet
  facet normal 3.476934e-06 -1.000000e+00 8.044771e-12
    outer loop
      vertex 2.643452e+01 4.767283e+00 3.709845e+00
      vertex 2.338652e+01 4.767272e+00 3.709839e+00
      vertex 2.338652e+01 4.767272e+00 1.092521e+00
    endloop
  endfacet
  facet normal 2.980236e-06 -1.000000e+00 5.784359e-07
    outer loop
      vertex 2.338652e+01 4.767272e+00 1.092521e+00
      vertex 2.643452e+01 4.767281e+00 1.092514e+00
      vertex 2.643452e+01 4.767283e+00 3.709845e+00
    endloop
  endfacet
  facet normal 3.973647e-06 -1.000000e+00 0.000000e+00
    outer loop
      vertex 2.643452e+01 4.767266e+00 1.539634e+01
      vertex 2.338652e+01 4.767254e+00 1.539633e+01
      vertex 2.338652e+01 4.767254e+00 1.277902e+01
    endloop
  endfacet
  facet normal 2.980233e-06 -1.000000e+00 1.156877e-06
    outer loop
      vertex 2.338652e+01 4.767254e+00 1.277902e+01
      vertex 2.643452e+01 4.767263e+00 1.277902e+01
      vertex 2.643452e+01 4.767266e+00 1.539634e+01
    endloop
  endfacet
  facet normal 1.000000e+00 -1.531361e-07 2.290828e-06
    outer loop
      vertex -2.517293e+01 3.206995e+00 2.978588e+01
      vertex -2.517293e+01 2.472235e+00 3.105851e+01
      vertex -2.517293e+01 8.847347e-01 2.830888e+01
    endloop
  endfacet
  facet normal 1.000000e+00 2.060475e-06 -1.189608e-06
    outer loop
      vertex -2.517293e+01 8.847347e-01 2.830888e+01
      vertex -2.517293e+01 2.354258e+00 2.830888e+01
      vertex -2.517293e+01 3.206995e+00 2.978588e+01
    endloop
  endfacet
  facet normal 1.000000e+00 9.536739e-07 1.828637e-06
    outer loop
      vertex -2.517293e+01 4.912476e+00 2.978588e+01
      vertex -2.517294e+01 5.647236e+00 3.105851e+01
      vertex -2.517293e+01 2.472235e+00 3.105851e+01
    endloop
  endfacet
  facet normal 1.000000e+00 1.775403e-06 3.404273e-06
    outer loop
      vertex -2.517293e+01 2.472235e+00 3.105851e+01
      vertex -2.517293e+01 3.206995e+00 2.978588e+01
      vertex -2.517293e+01 4.912476e+00 2.978588e+01
    endloop
  endfacet
  facet normal 1.000000e+00 -4.538030e-12 1.101207e-06
    outer loop
      vertex -2.517293e+01 5.765216e+00 2.830888e+01
      vertex -2.517293e+01 7.234736e+00 2.830889e+01
      vertex -2.517294e+01 5.647236e+00 3.105851e+01
    endloop
  endfacet
  facet normal 1.000000e+00 2.060485e-06 1.189618e-06
    outer loop
      vertex -2.517294e+01 5.647236e+00 3.105851e+01
      vertex -2.517293e+01 4.912476e+00 2.978588e+01
      vertex -2.517293e+01 5.765216e+00 2.830888e+01
    endloop
  endfacet
  facet normal 1.000000e+00 9.536724e-07 5.506054e-07
    outer loop
      vertex -2.517293e+01 4.912476e+00 2.683190e+01
      vertex -2.517293e+01 5.647238e+00 2.555926e+01
      vertex -2.517293e+01 7.234736e+00 2.830889e+01
    endloop
  endfacet
  facet normal 1.000000e+00 -8.448242e-12 2.050067e-06
    outer loop
      vertex -2.517293e+01 7.234736e+00 2.830889e+01
      vertex -2.517293e+01 5.765216e+00 2.830888e+01
      vertex -2.517293e+01 4.912476e+00 2.683190e+01
    endloop
  endfacet
  facet normal 1.000000e+00 1.907348e-06 3.657271e-06
    outer loop
      vertex -2.517293e+01 3.206998e+00 2.683190e+01
      vertex -2.517292e+01 2.472236e+00 2.555926e+01
      vertex -2.517293e+01 5.647238e+00 2.555926e+01
    endloop
  endfacet
  facet normal 1.000000e+00 0.000000e+00 0.000000e+00
    outer loop
      vertex -2.517293e+01 5.647238e+00 2.555926e+01
      vertex -2.517293e+01 4.912476e+00 2.683190e+01
      vertex -2.517293e+01 3.206998e+00 2.683190e+01
    endloop
  endfacet
  facet normal 1.000000e+00 2.060475e-06 2.290829e-06
    outer loop
      vertex -2.517293e+01 2.354258e+00 2.830888e+01
      vertex -2.517293e+01 8.847347e-01 2.830888e+01
      vertex -2.517292e+01 2.472236e+00 2.555926e+01
    endloop
  endfacet
  facet normal 1.000000e+00 4.120956e-06 2.379238e-06
    outer loop
      vertex -2.517292e+01 2.472236e+00 2.555926e+01
      vertex -2.517293e+01 3.206998e+00 2.683190e+01
      vertex -2.517293e+01 2.354258e+00 2.830888e+01
    endloop
  endfacet
  facet normal 2.118337e-06 4.040405e-12 1.000000e+00
    outer loop
      vertex -2.517293e+01 5.647238e+00 2.555926e+01
      vertex -2.517292e+01 2.472236e+00 2.555926e+01
      vertex -2.231416e+01 2.472242e+00 2.555925e+01
    endloop
  endfacet
  facet normal 4.040405e-12 -1.907348e-06 1.000000e+00
    outer loop
      vertex -2.231416e+01 2.472242e+00 2.555925e+01
      vertex -2.231416e+01 5.647244e+00 2.555926e+01
      vertex -2.517293e+01 5.647238e+00 2.555926e+01
    endloop
  endfacet
  facet normal 2.378562e-06 -3.550804e-06 1.000000e+00
    outer loop
      vertex -2.517293e+01 4.912476e+00 2.683190e+01
      vertex -2.771894e+01 4.912475e+00 2.683190e+01
      vertex -2.771894e+01 3.206995e+00 2.683190e+01
    endloop
  endfacet
  facet normal 0.000000e+00 0.000000e+00 1.000000e+00
    outer loop
      vertex -2.771894e+01 3.206995e+00 2.683190e+01
      vertex -2.517293e+01 3.206998e+00 2.683190e+01
      vertex -2.517293e+01 4.912476e+00 2.683190e+01
    endloop
  endfacet
  facet normal 1.976440e-06 -8.660250e-01 -5.000006e-01
    outer loop
      vertex -2.517294e+01 5.647236e+00 3.105851e+01
      vertex -2.517293e+01 7.234736e+00 2.830889e+01
      vertex -2.231417e+01 7.234739e+00 2.830889e+01
    endloop
  endfacet
  facet normal 1.517807e-06 -8.660249e-01 -5.000010e-01
    outer loop
      vertex -2.231417e+01 7.234739e+00 2.830889e+01
      vertex -2.231418e+01 5.647238e+00 3.105852e+01
      vertex -2.517294e+01 5.647236e+00 3.105851e+01
    endloop
  endfacet
  facet normal 0.000000e+00 8.660256e-01 -4.999998e-01
    outer loop
      vertex -2.517293e+01 8.847347e-01 2.830888e+01
      vertex -2.517293e+01 2.472235e+00 3.105851e+01
      vertex -2.231417e+01 2.472235e+00 3.105851e+01
    endloop
  endfacet
  facet normal -1.375903e-06 8.660262e-01 -4.999987e-01
    outer loop
      vertex -2.231417e+01 2.472235e+00 3.105851e+01
      vertex -2.231416e+01 8.847393e-01 2.830888e+01
      vertex -2.517293e+01 8.847347e-01 2.830888e+01
    endloop
  endfacet
  facet normal 1.834534e-06 -8.660257e-01 4.999994e-01
    outer loop
      vertex -2.517293e+01 7.234736e+00 2.830889e+01
      vertex -2.517293e+01 5.647238e+00 2.555926e+01
      vertex -2.231416e+01 5.647244e+00 2.555926e+01
    endloop
  endfacet
  facet normal -1.418962e-07 -8.660266e-01 4.999979e-01
    outer loop
      vertex -2.231416e+01 5.647244e+00 2.555926e+01
      vertex -2.231417e+01 7.234739e+00 2.830889e+01
      vertex -2.517293e+01 7.234736e+00 2.830889e+01
    endloop
  endfacet
  facet normal 5.149743e-07 -8.660260e-01 -4.999989e-01
    outer loop
      vertex -2.771894e+01 5.765214e+00 2.830888e+01
      vertex -2.517293e+01 5.765216e+00 2.830888e+01
      vertex -2.517293e+01 4.912476e+00 2.978588e+01
    endloop
  endfacet
  facet normal 5.149736e-07 -8.660260e-01 -4.999989e-01
    outer loop
      vertex -2.517293e+01 4.912476e+00 2.978588e+01
      vertex -2.771894e+01 4.912475e+00 2.978588e+01
      vertex -2.771894e+01 5.765214e+00 2.830888e+01
    endloop
  endfacet
  facet normal 2.118341e-06 2.020206e-12 -1.000000e+00
    outer loop
      vertex -2.517293e+01 2.472235e+00 3.105851e+01
      vertex -2.517294e+01 5.647236e+00 3.105851e+01
      vertex -2.231418e+01 5.647238e+00 3.105852e+01
    endloop
  endfacet
  facet normal 0.000000e+00 1.907347e-06 -1.000000e+00
    outer loop
      vertex -2.231418e+01 5.647238e+00 3.105852e+01
      vertex -2.231417e+01 2.472235e+00 3.105851e+01
      vertex -2.517293e+01 2.472235e+00 3.105851e+01
    endloop
  endfacet
  facet normal 0.000000e+00 0.000000e+00 -1.000000e+00
    outer loop
      vertex -2.771894e+01 4.912475e+00 2.978588e+01
      vertex -2.517293e+01 4.912476e+00 2.978588e+01
      vertex -2.517293e+01 3.206995e+00 2.978588e+01
    endloop
  endfacet
  facet normal 0.000000e+00 0.000000e+00 -1.000000e+00
    outer loop
      vertex -2.517293e+01 3.206995e+00 2.978588e+01
      vertex -2.771894e+01 3.206993e+00 2.978588e+01
      vertex -2.771894e+01 4.912475e+00 2.978588e+01
    endloop
  endfacet
  facet normal -1.375901e-06 8.660251e-01 5.000005e-01
    outer loop
      vertex -2.517293e+01 8.847347e-01 2.830888e+01
      vertex -2.231416e+01 8.847393e-01 2.830888e+01
      vertex -2.231416e+01 2.472242e+00 2.555925e+01
    endloop
  endfacet
  facet normal -7.753618e-07 8.660249e-01 5.000010e-01
    outer loop
      vertex -2.231416e+01 2.472242e+00 2.555925e+01
      vertex -2.517292e+01 2.472236e+00 2.555926e+01
      vertex -2.517293e+01 8.847347e-01 2.830888e+01
    endloop
  endfacet
  facet normal -5.149740e-07 8.660256e-01 4.999998e-01
    outer loop
      vertex -2.771894e+01 3.206995e+00 2.683190e+01
      vertex -2.771894e+01 2.354257e+00 2.830888e+01
      vertex -2.517293e+01 2.354258e+00 2.830888e+01
    endloop
  endfacet
  facet normal -1.029947e-06 8.660251e-01 5.000004e-01
    outer loop
      vertex -2.517293e+01 2.354258e+00 2.830888e+01
      vertex -2.517293e+01 3.206998e+00 2.683190e+01
      vertex -2.771894e+01 3.206995e+00 2.683190e+01
    endloop
  endfacet
  facet normal 1.704257e-06 -8.660243e-01 5.000020e-01
    outer loop
      vertex -2.771894e+01 5.765214e+00 2.830888e+01
      vertex -2.771894e+01 4.912475e+00 2.683190e+01
      vertex -2.517293e+01 4.912476e+00 2.683190e+01
    endloop
  endfacet
  facet normal 5.149737e-07 -8.660251e-01 5.000004e-01
    outer loop
      vertex -2.517293e+01 4.912476e+00 2.683190e+01
      vertex -2.517293e+01 5.765216e+00 2.830888e+01
      vertex -2.771894e+01 5.765214e+00 2.830888e+01
    endloop
  endfacet
  facet normal -5.149741e-07 8.660268e-01 -4.999976e-01
    outer loop
      vertex -2.771894e+01 2.354257e+00 2.830888e+01
      vertex -2.771894e+01 3.206993e+00 2.978588e+01
      vertex -2.517293e+01 3.206995e+00 2.978588e+01
    endloop
  endfacet
  facet normal -5.149747e-07 8.660268e-01 -4.999976e-01
    outer loop
      vertex -2.517293e+01 3.206995e+00 2.978588e+01
      vertex -2.517293e+01 2.354258e+00 2.830888e+01
      vertex -2.771894e+01 2.354257e+00 2.830888e+01
    endloop
  endfacet
  facet normal -1.554093e-06 -2.414449e-11 1.000000e+00
    outer loop
      vertex -2.771929e+01 7.810242e+00 3.751620e+01
      vertex -2.382259e+01 7.810272e+00 3.751621e+01
      vertex -2.382263e+01 1.073371e+01 3.751621e+01
    endloop
  endfacet
  facet normal -1.554091e-06 -2.736372e-11 1.000000e+00
    outer loop
      vertex -2.382263e+01 1.073371e+01 3.751621e+01
      vertex -2.771934e+01 1.073368e+01 3.751620e+01
      vertex -2.771929e+01 7.810242e+00 3.751620e+01
    endloop
  endfacet
  facet normal -1.554084e-06 -1.188800e-06 1.000000e+00
    outer loop
      vertex -2.382251e+01 -2.377972e+00 3.751619e+01
      vertex -2.382259e+01 7.810272e+00 3.751621e+01
      vertex -2.771929e+01 7.810242e+00 3.751620e+01
    endloop
  endfacet
  facet normal -3.108173e-06 -1.783205e-06 1.000000e+00
    outer loop
      vertex -2.771929e+01 7.810242e+00 3.751620e+01
      vertex -2.771921e+01 -2.378002e+00 3.751618e+01
      vertex -2.382251e+01 -2.377972e+00 3.751619e+01
    endloop
  endfacet
  facet normal 4.014792e-06 -1.783151e-06 1.000000e+00
    outer loop
      vertex -2.231413e+01 -2.377967e+00 3.751618e+01
      vertex -2.231421e+01 7.810279e+00 3.751620e+01
      vertex -2.382259e+01 7.810272e+00 3.751621e+01
    endloop
  endfacet
  facet normal 8.029553e-06 -1.188729e-06 1.000000e+00
    outer loop
      vertex -2.382259e+01 7.810272e+00 3.751621e+01
      vertex -2.382251e+01 -2.377972e+00 3.751619e+01
      vertex -2.231413e+01 -2.377967e+00 3.751618e+01
    endloop
  endfacet
  facet normal 1.000000e+00 6.599420e-06 -1.607749e-06
    outer loop
      vertex -2.231416e+01 8.847393e-01 2.830888e+01
      vertex -2.231417e+01 2.472235e+00 3.105851e+01
      vertex -2.231413e+01 -2.377967e+00 3.751618e+01
    endloop
  endfacet
  facet normal 1.000000e+00 1.907339e-06 4.049985e-06
    outer loop
      vertex -2.231417e+01 2.472235e+00 3.105851e+01
      vertex -2.231418e+01 5.647238e+00 3.105852e+01
      vertex -2.231421e+01 7.810279e+00 3.751620e+01
    endloop
  endfacet
  facet normal 1.000000e+00 7.727122e-06 -7.607581e-07
    outer loop
      vertex -2.231421e+01 7.810279e+00 3.751620e+01
      vertex -2.231413e+01 -2.377967e+00 3.751618e+01
      vertex -2.231417e+01 2.472235e+00 3.105851e+01
    endloop
  endfacet
  facet normal 1.000000e+00 3.932499e-06 3.371645e-06
    outer loop
      vertex -2.231417e+01 7.234739e+00 2.830889e+01
      vertex -2.231421e+01 7.810279e+00 3.751620e+01
      vertex -2.231418e+01 5.647238e+00 3.105852e+01
    endloop
  endfacet
  facet normal -1.000000e+00 -1.775403e-06 -3.653517e-05
    outer loop
      vertex -2.771894e+01 4.912475e+00 2.978588e+01
      vertex -2.771894e+01 3.206993e+00 2.978588e+01
      vertex -2.771921e+01 -2.378002e+00 3.751618e+01
    endloop
  endfacet
  facet normal -1.000000e+00 -7.429851e-06 -4.186790e-05
    outer loop
      vertex -2.771921e+01 -2.378002e+00 3.751618e+01
      vertex -2.771929e+01 7.810242e+00 3.751620e+01
      vertex -2.771894e+01 4.912475e+00 2.978588e+01
    endloop
  endfacet
  facet normal -1.000000e+00 -4.474137e-05 -2.788142e-05
    outer loop
      vertex -2.771894e+01 5.765214e+00 2.830888e+01
      vertex -2.771894e+01 4.912475e+00 2.978588e+01
      vertex -2.771929e+01 7.810242e+00 3.751620e+01
    endloop
  endfacet
  facet normal -6.160193e-06 9.987639e-01 4.970703e-02
    outer loop
      vertex -2.231970e+01 1.177564e+01 1.658087e+01
      vertex -2.771984e+01 1.177560e+01 1.658087e+01
      vertex -2.771934e+01 1.073368e+01 3.751620e+01
    endloop
  endfacet
  facet normal -7.838098e-06 9.987639e-01 4.970659e-02
    outer loop
      vertex -2.771934e+01 1.073368e+01 3.751620e+01
      vertex -2.382263e+01 1.073371e+01 3.751621e+01
      vertex -2.231970e+01 1.177564e+01 1.658087e+01
    endloop
  endfacet
  facet normal 5.063275e-06 -8.423341e-01 5.389557e-01
    outer loop
      vertex -2.771978e+01 -1.577319e+01 1.658084e+01
      vertex -2.231964e+01 -1.577315e+01 1.658085e+01
      vertex -2.382251e+01 -2.377972e+00 3.751619e+01
    endloop
  endfacet
  facet normal 4.870154e-06 -8.423341e-01 5.389557e-01
    outer loop
      vertex -2.382251e+01 -2.377972e+00 3.751619e+01
      vertex -2.771921e+01 -2.378002e+00 3.751618e+01
      vertex -2.771978e+01 -1.577319e+01 1.658084e+01
    endloop
  endfacet
  facet normal 7.286631e-06 -8.423340e-01 5.389558e-01
    outer loop
      vertex -2.231964e+01 -1.577315e+01 1.658085e+01
      vertex -2.231413e+01 -2.377967e+00 3.751618e+01
      vertex -2.382251e+01 -2.377972e+00 3.751619e+01
    endloop
  endfacet
  facet normal 9.999999e-01 -2.610880e-04 -9.646568e-05
    outer loop
      vertex -2.231964e+01 -1.577315e+01 1.658085e+01
      vertex -2.231416e+01 8.847393e-01 2.830888e+01
      vertex -2.231413e+01 -2.377967e+00 3.751618e+01
    endloop
  endfacet
  facet normal 9.999999e-01 -2.350224e-04 -1.334880e-04
    outer loop
      vertex -2.231964e+01 -1.577315e+01 1.658085e+01
      vertex -2.231416e+01 2.472242e+00 2.555925e+01
      vertex -2.231416e+01 8.847393e-01 2.830888e+01
    endloop
  endfacet
  facet normal 9.999998e-01 1.908516e-06 -6.125623e-04
    outer loop
      vertex -2.231965e+01 -1.295679e+00 1.658085e+01
      vertex -2.231416e+01 5.647244e+00 2.555926e+01
      vertex -2.231416e+01 2.472242e+00 2.555925e+01
    endloop
  endfacet
  facet normal 9.999998e-01 4.182934e-07 -6.119369e-04
    outer loop
      vertex -2.231416e+01 2.472242e+00 2.555925e+01
      vertex -2.231964e+01 -1.577315e+01 1.658085e+01
      vertex -2.231965e+01 -1.295679e+00 1.658085e+01
    endloop
  endfacet
  facet normal 9.999998e-01 2.267466e-06 -6.128399e-04
    outer loop
      vertex -2.231967e+01 3.418325e+00 1.656371e+01
      vertex -2.231416e+01 5.647244e+00 2.555926e+01
      vertex -2.231965e+01 -1.295679e+00 1.658085e+01
    endloop
  endfacet
  facet normal 9.999998e-01 3.325376e-06 -6.131020e-04
    outer loop
      vertex -2.231968e+01 7.061635e+00 1.656371e+01
      vertex -2.231416e+01 5.647244e+00 2.555926e+01
      vertex -2.231967e+01 3.418325e+00 1.656371e+01
    endloop
  endfacet
  facet normal 9.999998e-01 6.725651e-06 -6.125674e-04
    outer loop
      vertex -2.231970e+01 1.177564e+01 1.658087e+01
      vertex -2.231416e+01 5.647244e+00 2.555926e+01
      vertex -2.231968e+01 7.061635e+00 1.656371e+01
    endloop
  endfacet
  facet normal 9.999998e-01 4.924618e-04 -2.810177e-04
    outer loop
      vertex -2.231970e+01 1.177564e+01 1.658087e+01
      vertex -2.231417e+01 7.234739e+00 2.830889e+01
      vertex -2.231416e+01 5.647244e+00 2.555926e+01
    endloop
  endfacet
  facet normal 9.999995e-01 1.056963e-03 -6.245230e-05
    outer loop
      vertex -2.231970e+01 1.177564e+01 1.658087e+01
      vertex -2.231421e+01 7.810279e+00 3.751620e+01
      vertex -2.231417e+01 7.234739e+00 2.830889e+01
    endloop
  endfacet
  facet normal 4.014793e-06 -2.058030e-06 1.000000e+00
    outer loop
      vertex -2.382259e+01 7.810272e+00 3.751621e+01
      vertex -2.231421e+01 7.810279e+00 3.751620e+01
      vertex -2.232400e+01 1.073371e+01 3.751621e+01
    endloop
  endfacet
  facet normal 0.000000e+00 0.000000e+00 1.000000e+00
    outer loop
      vertex -2.232400e+01 1.073371e+01 3.751621e+01
      vertex -2.382263e+01 1.073371e+01 3.751621e+01
      vertex -2.382259e+01 7.810272e+00 3.751621e+01
    endloop
  endfacet
  facet normal 1.008977e-06 9.987639e-01 4.970723e-02
    outer loop
      vertex -2.231970e+01 1.177564e+01 1.658087e+01
      vertex -2.382263e+01 1.073371e+01 3.751621e+01
      vertex -2.232400e+01 1.073371e+01 3.751621e+01
    endloop
  endfacet
  facet normal 9.999943e-01 3.350602e-03 3.719867e-04
    outer loop
      vertex -2.231970e+01 1.177564e+01 1.658087e+01
      vertex -2.232400e+01 1.073371e+01 3.751621e+01
      vertex -2.231421e+01 7.810279e+00 3.751620e+01
    endloop
  endfacet
  facet normal -1.000000e+00 -1.760754e-05 -3.390808e-05
    outer loop
      vertex -2.771894e+01 5.765214e+00 2.830888e+01
      vertex -2.771929e+01 7.810242e+00 3.751620e+01
      vertex -2.771934e+01 1.073368e+01 3.751620e+01
    endloop
  endfacet
  facet normal -1.000000e+00 -1.146321e-04 1.844845e-05
    outer loop
      vertex -2.771984e+01 1.177560e+01 1.658087e+01
      vertex -2.771894e+01 5.765214e+00 2.830888e+01
      vertex -2.771934e+01 1.073368e+01 3.751620e+01
    endloop
  endfacet
  facet normal -1.000000e+00 -7.083207e-05 4.089513e-05
    outer loop
      vertex -2.771984e+01 1.177560e+01 1.658087e+01
      vertex -2.771894e+01 4.912475e+00 2.683190e+01
      vertex -2.771894e+01 5.765214e+00 2.830888e+01
    endloop
  endfacet
  facet normal -1.000000e+00 -4.165215e-06 8.552898e-05
    outer loop
      vertex -2.771984e+01 1.177560e+01 1.658087e+01
      vertex -2.771983e+01 7.061597e+00 1.656371e+01
      vertex -2.771894e+01 4.912475e+00 2.683190e+01
    endloop
  endfacet
  facet normal -1.000000e+00 -4.986684e-06 8.482373e-05
    outer loop
      vertex -2.771983e+01 7.061597e+00 1.656371e+01
      vertex -2.771981e+01 3.418292e+00 1.656371e+01
      vertex -2.771894e+01 3.206995e+00 2.683190e+01
    endloop
  endfacet
  facet normal -1.000000e+00 -1.775710e-06 8.602911e-05
    outer loop
      vertex -2.771894e+01 3.206995e+00 2.683190e+01
      vertex -2.771894e+01 4.912475e+00 2.683190e+01
      vertex -2.771983e+01 7.061597e+00 1.656371e+01
    endloop
  endfacet
  facet normal -1.000000e+00 -4.830087e-06 8.482695e-05
    outer loop
      vertex -2.771981e+01 3.418292e+00 1.656371e+01
      vertex -2.771978e+01 -1.295712e+00 1.658085e+01
      vertex -2.771894e+01 3.206995e+00 2.683190e+01
    endloop
  endfacet
  facet normal -1.000000e+00 8.135538e-05 4.697052e-05
    outer loop
      vertex -2.771978e+01 -1.295712e+00 1.658085e+01
      vertex -2.771894e+01 2.354257e+00 2.830888e+01
      vertex -2.771894e+01 3.206995e+00 2.683190e+01
    endloop
  endfacet
  facet normal -1.000000e+00 -2.091770e-07 7.235484e-05
    outer loop
      vertex -2.771978e+01 -1.577319e+01 1.658084e+01
      vertex -2.771894e+01 2.354257e+00 2.830888e+01
      vertex -2.771978e+01 -1.295712e+00 1.658085e+01
    endloop
  endfacet
  facet normal -1.000000e+00 4.950327e-05 -4.483193e-06
    outer loop
      vertex -2.771978e+01 -1.577319e+01 1.658084e+01
      vertex -2.771921e+01 -2.378002e+00 3.751618e+01
      vertex -2.771894e+01 2.354257e+00 2.830888e+01
    endloop
  endfacet
  facet normal -1.000000e+00 2.554372e-05 -1.679763e-05
    outer loop
      vertex -2.771894e+01 3.206993e+00 2.978588e+01
      vertex -2.771894e+01 2.354257e+00 2.830888e+01
      vertex -2.771921e+01 -2.378002e+00 3.751618e+01
    endloop
  endfacet
  facet normal -3.732510e-06 6.205302e-01 7.841825e-01
    outer loop
      vertex -2.343701e+01 1.180272e+01 1.658072e+01
      vertex -2.343699e+01 1.485072e+01 1.416881e+01
      vertex -2.648499e+01 1.485072e+01 1.416880e+01
    endloop
  endfacet
  facet normal -3.732506e-06 6.205302e-01 7.841825e-01
    outer loop
      vertex -2.648499e+01 1.485072e+01 1.416880e+01
      vertex -2.648501e+01 1.180271e+01 1.658071e+01
      vertex -2.343701e+01 1.180272e+01 1.658072e+01
    endloop
  endfacet
  facet normal -2.174480e-06 6.205130e-01 7.841961e-01
    outer loop
      vertex 2.643387e+01 1.180272e+01 1.658073e+01
      vertex 2.643388e+01 1.485072e+01 1.416893e+01
      vertex 2.338588e+01 1.485072e+01 1.416893e+01
    endloop
  endfacet
  facet normal -1.558059e-06 6.205134e-01 7.841959e-01
    outer loop
      vertex 2.338588e+01 1.485072e+01 1.416893e+01
      vertex 2.338588e+01 1.180272e+01 1.658073e+01
      vertex 2.643387e+01 1.180272e+01 1.658073e+01
    endloop
  endfacet
  facet normal 1.261316e-06 6.149370e-01 -7.885762e-01
    outer loop
      vertex -2.343698e+01 1.180274e+01 1.665354e-04
      vertex -2.648498e+01 1.180274e+01 1.604795e-04
      vertex -2.648499e+01 1.485074e+01 2.377008e+00
    endloop
  endfacet
  facet normal -1.566764e-06 6.149353e-01 -7.885776e-01
    outer loop
      vertex -2.648499e+01 1.485074e+01 2.377008e+00
      vertex -2.343699e+01 1.485074e+01 2.377002e+00
      vertex -2.343698e+01 1.180274e+01 1.665354e-04
    endloop
  endfacet
  facet normal 1.566771e-06 6.149310e-01 -7.885810e-01
    outer loop
      vertex 2.643390e+01 1.180274e+01 1.816750e-04
      vertex 2.338590e+01 1.180274e+01 1.756191e-04
      vertex 2.338589e+01 1.485074e+01 2.376987e+00
    endloop
  endfacet
  facet normal -1.566771e-06 6.149290e-01 -7.885825e-01
    outer loop
      vertex 2.338589e+01 1.485074e+01 2.376987e+00
      vertex 2.643389e+01 1.485074e+01 2.376981e+00
      vertex 2.643390e+01 1.180274e+01 1.816750e-04
    endloop
  endfacet
  facet normal -3.799181e-06 5.875122e-01 8.092153e-01
    outer loop
      vertex -2.771987e+01 1.577290e+01 1.349927e+01
      vertex -2.648499e+01 1.485072e+01 1.416880e+01
      vertex -2.343699e+01 1.485072e+01 1.416881e+01
    endloop
  endfacet
  facet normal -2.138195e-06 5.875173e-01 8.092117e-01
    outer loop
      vertex -2.343699e+01 1.485072e+01 1.416881e+01
      vertex -2.231973e+01 1.577293e+01 1.349925e+01
      vertex -2.771987e+01 1.577290e+01 1.349927e+01
    endloop
  endfacet
  facet normal 3.819767e-02 6.200773e-01 7.836103e-01
    outer loop
      vertex -2.648501e+01 1.180271e+01 1.658071e+01
      vertex -2.648499e+01 1.485072e+01 1.416880e+01
      vertex -2.771987e+01 1.577290e+01 1.349927e+01
    endloop
  endfacet
  facet normal -1.330303e-02 6.104977e-01 7.919063e-01
    outer loop
      vertex -2.771987e+01 1.577290e+01 1.349927e+01
      vertex -2.771984e+01 1.177560e+01 1.658087e+01
      vertex -2.648501e+01 1.180271e+01 1.658071e+01
    endloop
  endfacet
  facet normal 1.493700e-02 6.204610e-01 7.840950e-01
    outer loop
      vertex -2.343699e+01 1.485072e+01 1.416881e+01
      vertex -2.343701e+01 1.180272e+01 1.658072e+01
      vertex -2.231970e+01 1.177564e+01 1.658087e+01
    endloop
  endfacet
  facet normal -2.933292e-02 6.102901e-01 7.916347e-01
    outer loop
      vertex -2.231970e+01 1.177564e+01 1.658087e+01
      vertex -2.231973e+01 1.577293e+01 1.349925e+01
      vertex -2.343699e+01 1.485072e+01 1.416881e+01
    endloop
  endfacet
  facet normal -1.122260e-04 3.843281e-05 1.000000e+00
    outer loop
      vertex 2.263435e+01 -2.601075e+00 1.658086e+01
      vertex 2.771974e+01 1.177587e+01 1.658088e+01
      vertex 2.643387e+01 1.180272e+01 1.658073e+01
    endloop
  endfacet
  facet normal -1.986823e-06 9.353193e-06 1.000000e+00
    outer loop
      vertex 2.263435e+01 -2.601075e+00 1.658086e+01
      vertex 2.643387e+01 1.180272e+01 1.658073e+01
      vertex 2.338588e+01 1.180272e+01 1.658073e+01
    endloop
  endfacet
  facet normal 2.095467e-04 -1.683729e-06 1.000000e+00
    outer loop
      vertex 2.263427e+01 1.177584e+01 1.658089e+01
      vertex 2.263435e+01 -2.601075e+00 1.658086e+01
      vertex 2.338588e+01 1.180272e+01 1.658073e+01
    endloop
  endfacet
  facet normal -4.014784e-06 -1.684899e-06 1.000000e+00
    outer loop
      vertex 2.112589e+01 1.177584e+01 1.658088e+01
      vertex 2.263435e+01 -2.601075e+00 1.658086e+01
      vertex 2.263427e+01 1.177584e+01 1.658089e+01
    endloop
  endfacet
endsolid Default
