solid Default
  facet normal -1.061887e-06 1.000000e+00 1.757296e-06
    outer loop
      vertex 2.341485e+01 -1.577303e+01 1.092557e+00
      vertex 2.231977e+01 -1.577303e+01 6.661415e-05
      vertex 2.341485e+01 -1.577303e+01 1.954084e+00
    endloop
  endfacet
  facet normal 2.204710e-07 1.000000e+00 1.038632e-06
    outer loop
      vertex 2.231977e+01 -1.577303e+01 6.661415e-05
      vertex 2.341485e+01 -1.577303e+01 4.140554e+00
      vertex 2.341485e+01 -1.577303e+01 1.954084e+00
    endloop
  endfacet
  facet normal -1.000000e+00 -7.366990e-06 -1.294599e-11
    outer loop
      vertex 2.341470e+01 4.777533e+00 1.092569e+00
      vertex 2.341485e+01 -1.577303e+01 1.092557e+00
      vertex 2.341485e+01 -1.577303e+01 1.954084e+00
    endloop
  endfacet
  facet normal -4.718705e-06 1.000000e+00 1.660073e-06
    outer loop
      vertex 2.646284e+01 -1.577303e+01 1.234837e+01
      vertex 2.646285e+01 -1.577302e+01 4.140554e+00
      vertex 2.341485e+01 -1.577303e+01 4.140554e+00
    endloop
  endfacet
  facet normal -7.391729e-06 1.000000e+00 2.028979e-06
    outer loop
      vertex -2.263440e+01 -2.996779e+00 1.658085e+01
      vertex -2.338656e+01 -2.996759e+00 4.140499e+00
      vertex -2.338657e+01 -2.996776e+00 1.234832e+01
    endloop
  endfacet
  facet normal 4.591595e-06 -1.000000e+00 -3.499193e-06
    outer loop
      vertex -9.540615e+00 1.577287e+01 9.768039e+00
      vertex -8.687869e+00 1.577288e+01 8.291046e+00
      vertex 2.231955e+01 1.577304e+01 3.116701e+00
    endloop
  endfacet
  facet normal 3.550821e-06 -1.000000e+00 -6.016406e-06
    outer loop
      vertex -2.112606e+01 1.577281e+01 1.349924e+01
      vertex -1.124609e+01 1.577286e+01 9.768039e+00
      vertex -9.540615e+00 1.577287e+01 9.768039e+00
    endloop
  endfacet
  facet normal -1.266586e-06 1.000000e+00 1.490115e-06
    outer loop
      vertex -2.771986e+01 -2.996769e+00 0.000000e+00
      vertex -2.643456e+01 -2.996774e+00 4.140499e+00
      vertex -2.643456e+01 -2.996769e+00 1.092496e+00
    endloop
  endfacet
  facet normal -1.698727e-07 1.000000e+00 1.660078e-06
    outer loop
      vertex 2.646285e+01 -1.577302e+01 4.140554e+00
      vertex 2.646284e+01 -1.577303e+01 1.234837e+01
      vertex 2.771989e+01 -1.577304e+01 1.658092e+01
    endloop
  endfacet
  facet normal -5.415036e-06 1.000000e+00 2.379661e-06
    outer loop
      vertex -2.112602e+01 1.177554e+01 4.541874e-05
      vertex -1.356833e+01 1.177556e+01 8.291039e+00
      vertex -1.198082e+01 1.177558e+01 5.541413e+00
    endloop
  endfacet
  facet normal -4.945333e-06 1.000000e+00 1.549646e-06
    outer loop
      vertex -7.218331e+00 1.177559e+01 8.291052e+00
      vertex -8.805831e+00 1.177558e+01 1.104068e+01
      vertex 2.231955e+01 1.177573e+01 1.658093e+01
    endloop
  endfacet
  facet normal 5.344787e-06 -1.000000e+00 1.014333e-06
    outer loop
      vertex -8.687869e+00 1.577288e+01 8.291046e+00
      vertex -9.540603e+00 1.577287e+01 6.814064e+00
      vertex 2.231955e+01 1.577304e+01 3.116701e+00
    endloop
  endfacet
  facet normal -5.756936e-06 1.000000e+00 1.738459e-06
    outer loop
      vertex -2.338657e+01 -2.996776e+00 1.234832e+01
      vertex -2.338657e+01 -2.996781e+00 1.539632e+01
      vertex -2.263440e+01 -2.996779e+00 1.658085e+01
    endloop
  endfacet
  facet normal 4.024089e-07 1.000000e+00 1.490112e-06
    outer loop
      vertex 2.646284e+01 -1.577303e+01 1.234837e+01
      vertex 2.646283e+01 -1.577304e+01 1.539638e+01
      vertex 2.771989e+01 -1.577304e+01 1.658092e+01
    endloop
  endfacet
  facet normal -4.768372e-06 1.000000e+00 1.312438e-06
    outer loop
      vertex -1.198082e+01 1.177558e+01 5.541413e+00
      vertex -8.805825e+00 1.177559e+01 5.541413e+00
      vertex -2.112602e+01 1.177554e+01 4.541874e-05
    endloop
  endfacet
  facet normal -5.013765e-06 1.000000e+00 1.793474e-06
    outer loop
      vertex -8.805825e+00 1.177559e+01 5.541413e+00
      vertex -7.218331e+00 1.177559e+01 8.291052e+00
      vertex 2.231955e+01 1.177573e+01 1.658093e+01
    endloop
  endfacet
  facet normal 5.042050e-06 -1.000000e+00 -1.189067e-06
    outer loop
      vertex -2.112604e+01 1.577282e+01 3.116622e+00
      vertex -1.124608e+01 1.577287e+01 6.814052e+00
      vertex -1.209883e+01 1.577286e+01 8.291046e+00
    endloop
  endfacet
  facet normal -4.718705e-06 1.000000e+00 2.028981e-06
    outer loop
      vertex -2.643456e+01 -2.996774e+00 4.140499e+00
      vertex -2.338657e+01 -2.996776e+00 1.234832e+01
      vertex -2.338656e+01 -2.996759e+00 4.140499e+00
    endloop
  endfacet
  facet normal -2.129205e-06 1.000000e+00 1.660076e-06
    outer loop
      vertex 2.341485e+01 -1.577303e+01 4.140554e+00
      vertex 2.231977e+01 -1.577303e+01 6.661415e-05
      vertex 2.341484e+01 -1.577305e+01 1.234837e+01
    endloop
  endfacet
  facet normal -4.718705e-06 1.000000e+00 1.660073e-06
    outer loop
      vertex 2.341484e+01 -1.577305e+01 1.234837e+01
      vertex 2.646284e+01 -1.577303e+01 1.234837e+01
      vertex 2.341485e+01 -1.577303e+01 4.140554e+00
    endloop
  endfacet
  facet normal -3.002507e-06 1.000000e+00 2.028983e-06
    outer loop
      vertex -2.771986e+01 -2.996769e+00 0.000000e+00
      vertex -2.643457e+01 -2.996790e+00 1.234831e+01
      vertex -2.643456e+01 -2.996774e+00 4.140499e+00
    endloop
  endfacet
  facet normal -4.718704e-06 1.000000e+00 2.028980e-06
    outer loop
      vertex -2.643457e+01 -2.996790e+00 1.234831e+01
      vertex -2.338657e+01 -2.996776e+00 1.234832e+01
      vertex -2.643456e+01 -2.996774e+00 4.140499e+00
    endloop
  endfacet
  facet normal 2.492975e-06 -6.148775e-01 7.886227e-01
    outer loop
      vertex -2.112602e+01 1.177554e+01 4.541874e-05
      vertex 2.231957e+01 1.177576e+01 7.569790e-05
      vertex 2.231955e+01 1.577304e+01 3.116701e+00
    endloop
  endfacet
  facet normal 1.656391e-06 -6.148719e-01 7.886270e-01
    outer loop
      vertex 2.231955e+01 1.577304e+01 3.116701e+00
      vertex -2.112604e+01 1.577282e+01 3.116622e+00
      vertex -2.112602e+01 1.177554e+01 4.541874e-05
    endloop
  endfacet
  facet normal 4.498875e-06 -6.105578e-01 -7.919717e-01
    outer loop
      vertex -2.112604e+01 1.177551e+01 1.658089e+01
      vertex -2.112606e+01 1.577281e+01 1.349924e+01
      vertex 2.231954e+01 1.577303e+01 1.349932e+01
    endloop
  endfacet
  facet normal 3.793950e-06 -6.105530e-01 -7.919754e-01
    outer loop
      vertex 2.231954e+01 1.577303e+01 1.349932e+01
      vertex 2.231955e+01 1.177573e+01 1.658093e+01
      vertex -2.112604e+01 1.177551e+01 1.658089e+01
    endloop
  endfacet
  facet normal -5.122043e-06 1.000000e+00 2.098760e-06
    outer loop
      vertex -2.112602e+01 1.177554e+01 4.541874e-05
      vertex -8.805825e+00 1.177559e+01 5.541413e+00
      vertex 2.231955e+01 1.177573e+01 1.658093e+01
    endloop
  endfacet
  facet normal -4.948306e-06 1.000000e+00 1.643531e-06
    outer loop
      vertex 2.231955e+01 1.177573e+01 1.658093e+01
      vertex 2.231957e+01 1.177576e+01 7.569790e-05
      vertex -2.112602e+01 1.177554e+01 4.541874e-05
    endloop
  endfacet
  facet normal 5.018001e-06 -1.000000e+00 -1.458162e-06
    outer loop
      vertex 2.231955e+01 1.577304e+01 3.116701e+00
      vertex 2.231954e+01 1.577303e+01 1.349932e+01
      vertex -2.112606e+01 1.577281e+01 1.349924e+01
    endloop
  endfacet
  facet normal 5.015573e-06 -1.000000e+00 -1.468323e-06
    outer loop
      vertex -2.112606e+01 1.577281e+01 1.349924e+01
      vertex -9.540615e+00 1.577287e+01 9.768039e+00
      vertex 2.231955e+01 1.577304e+01 3.116701e+00
    endloop
  endfacet
  facet normal 4.014791e-06 -1.000000e+00 -1.458159e-06
    outer loop
      vertex -2.112604e+01 1.577282e+01 3.116622e+00
      vertex -2.112606e+01 1.577281e+01 1.349924e+01
      vertex -2.263444e+01 1.577280e+01 1.349924e+01
    endloop
  endfacet
  facet normal 2.007388e-06 -1.000000e+00 -1.749797e-06
    outer loop
      vertex -2.263444e+01 1.577280e+01 1.349924e+01
      vertex -2.263442e+01 1.577282e+01 3.116628e+00
      vertex -2.112604e+01 1.577282e+01 3.116622e+00
    endloop
  endfacet
  facet normal 3.676878e-06 -6.105578e-01 -7.919717e-01
    outer loop
      vertex -2.112606e+01 1.577281e+01 1.349924e+01
      vertex -2.112604e+01 1.177551e+01 1.658089e+01
      vertex -2.263443e+01 1.177550e+01 1.658089e+01
    endloop
  endfacet
  facet normal 2.451260e-06 -6.105575e-01 -7.919719e-01
    outer loop
      vertex -2.263443e+01 1.177550e+01 1.658089e+01
      vertex -2.263444e+01 1.577280e+01 1.349924e+01
      vertex -2.112606e+01 1.577281e+01 1.349924e+01
    endloop
  endfacet
  facet normal 4.400463e-06 -6.148719e-01 7.886270e-01
    outer loop
      vertex -2.112602e+01 1.177554e+01 4.541874e-05
      vertex -2.112604e+01 1.577282e+01 3.116622e+00
      vertex -2.263442e+01 1.577282e+01 3.116628e+00
    endloop
  endfacet
  facet normal -2.629452e-06 -6.148735e-01 7.886257e-01
    outer loop
      vertex -2.263442e+01 1.577282e+01 3.116628e+00
      vertex -2.263440e+01 1.177553e+01 3.330708e-05
      vertex -2.112602e+01 1.177554e+01 4.541874e-05
    endloop
  endfacet
  facet normal 3.572434e-06 -1.000000e+00 -1.749794e-06
    outer loop
      vertex -2.263442e+01 1.577282e+01 3.116628e+00
      vertex -2.263444e+01 1.577280e+01 1.349924e+01
      vertex -2.771991e+01 1.577278e+01 1.349923e+01
    endloop
  endfacet
  facet normal 3.572436e-06 -1.000000e+00 -1.749793e-06
    outer loop
      vertex -2.771991e+01 1.577278e+01 1.349923e+01
      vertex -2.771990e+01 1.577280e+01 3.116604e+00
      vertex -2.263442e+01 1.577282e+01 3.116628e+00
    endloop
  endfacet
  facet normal 1.000000e+00 4.920896e-06 1.460931e-06
    outer loop
      vertex -2.771990e+01 1.177549e+01 1.658088e+01
      vertex -2.771987e+01 1.177551e+01 3.633499e-05
      vertex -2.771990e+01 1.577280e+01 3.116604e+00
    endloop
  endfacet
  facet normal 1.000000e+00 3.929287e-06 1.166539e-06
    outer loop
      vertex -2.771990e+01 1.577280e+01 3.116604e+00
      vertex -2.771991e+01 1.577278e+01 1.349923e+01
      vertex -2.771990e+01 1.177549e+01 1.658088e+01
    endloop
  endfacet
  facet normal 5.954107e-07 -1.474265e-06 1.000000e+00
    outer loop
      vertex -2.263440e+01 1.177553e+01 3.330708e-05
      vertex -2.771987e+01 1.177551e+01 3.633499e-05
      vertex -2.771982e+01 -2.601398e+00 1.513958e-05
    endloop
  endfacet
  facet normal -1.786212e-06 -6.318364e-07 1.000000e+00
    outer loop
      vertex -2.771982e+01 -2.601398e+00 1.513958e-05
      vertex -2.263434e+01 -2.601379e+00 2.422333e-05
      vertex -2.263440e+01 1.177553e+01 3.330708e-05
    endloop
  endfacet
  facet normal -8.029577e-06 -6.318628e-07 1.000000e+00
    outer loop
      vertex -2.112602e+01 1.177554e+01 4.541874e-05
      vertex -2.263440e+01 1.177553e+01 3.330708e-05
      vertex -2.263434e+01 -2.601379e+00 2.422333e-05
    endloop
  endfacet
  facet normal 6.658733e-12 -1.474267e-06 1.000000e+00
    outer loop
      vertex -2.263434e+01 -2.601379e+00 2.422333e-05
      vertex -2.112596e+01 -2.601373e+00 2.422333e-05
      vertex -2.112602e+01 1.177554e+01 4.541874e-05
    endloop
  endfacet
  facet normal -4.516639e-06 1.000000e+00 1.826148e-06
    outer loop
      vertex -2.112598e+01 -2.601403e+00 1.658087e+01
      vertex -2.112596e+01 -2.601373e+00 2.422333e-05
      vertex -2.263434e+01 -2.601379e+00 2.422333e-05
    endloop
  endfacet
  facet normal -4.516621e-06 1.000000e+00 1.826147e-06
    outer loop
      vertex -2.263434e+01 -2.601379e+00 2.422333e-05
      vertex -2.263437e+01 -2.601410e+00 1.658087e+01
      vertex -2.112598e+01 -2.601403e+00 1.658087e+01
    endloop
  endfacet
  facet normal -1.000000e+00 1.072183e-04 -1.460727e-06
    outer loop
      vertex -2.263437e+01 -2.601410e+00 1.658087e+01
      vertex -2.263434e+01 -2.601379e+00 2.422333e-05
      vertex -2.263438e+01 -2.996749e+00 6.055832e-06
    endloop
  endfacet
  facet normal -1.000000e+00 9.190143e-05 -1.095524e-06
    outer loop
      vertex -2.263438e+01 -2.996749e+00 6.055832e-06
      vertex -2.263440e+01 -2.996779e+00 1.658085e+01
      vertex -2.263437e+01 -2.601410e+00 1.658087e+01
    endloop
  endfacet
  facet normal -1.786077e-06 -3.829183e-05 1.000000e+00
    outer loop
      vertex -2.263434e+01 -2.601379e+00 2.422333e-05
      vertex -2.771982e+01 -2.601398e+00 1.513958e-05
      vertex -2.771986e+01 -2.996769e+00 0.000000e+00
    endloop
  endfacet
  facet normal -1.190625e-06 -4.595057e-05 1.000000e+00
    outer loop
      vertex -2.771986e+01 -2.996769e+00 0.000000e+00
      vertex -2.263438e+01 -2.996749e+00 6.055832e-06
      vertex -2.263434e+01 -2.601379e+00 2.422333e-05
    endloop
  endfacet
  facet normal 1.000000e+00 -1.072179e-04 1.095496e-06
    outer loop
      vertex -2.771982e+01 -2.601398e+00 1.513958e-05
      vertex -2.771983e+01 -2.601428e+00 1.658086e+01
      vertex -2.771988e+01 -2.996799e+00 1.658084e+01
    endloop
  endfacet
  facet normal 1.000000e+00 -1.072177e-04 1.095501e-06
    outer loop
      vertex -2.771988e+01 -2.996799e+00 1.658084e+01
      vertex -2.771986e+01 -2.996769e+00 0.000000e+00
      vertex -2.771982e+01 -2.601398e+00 1.513958e-05
    endloop
  endfacet
  facet normal 2.803557e-06 -1.000000e+00 -1.458164e-06
    outer loop
      vertex 2.231954e+01 1.577303e+01 1.349932e+01
      vertex 2.231955e+01 1.577304e+01 3.116701e+00
      vertex 2.771969e+01 1.577306e+01 3.116707e+00
    endloop
  endfacet
  facet normal 2.803561e-06 -1.000000e+00 -1.458161e-06
    outer loop
      vertex 2.771969e+01 1.577306e+01 3.116707e+00
      vertex 2.771967e+01 1.577304e+01 1.349933e+01
      vertex 2.231954e+01 1.577303e+01 1.349932e+01
    endloop
  endfacet
  facet normal -1.000000e+00 -4.772937e-06 -1.278313e-06
    outer loop
      vertex 2.771971e+01 1.177577e+01 8.175373e-05
      vertex 2.771969e+01 1.177575e+01 1.658093e+01
      vertex 2.771967e+01 1.577304e+01 1.349933e+01
    endloop
  endfacet
  facet normal -1.000000e+00 -5.150411e-06 -1.166539e-06
    outer loop
      vertex 2.771967e+01 1.577304e+01 1.349933e+01
      vertex 2.771969e+01 1.577306e+01 3.116707e+00
      vertex 2.771971e+01 1.177577e+01 8.175373e-05
    endloop
  endfacet
  facet normal -1.131609e-06 3.636171e-03 9.999934e-01
    outer loop
      vertex 2.771971e+01 1.177577e+01 8.175373e-05
      vertex 2.231957e+01 1.177576e+01 7.569790e-05
      vertex 2.231960e+01 7.061753e+00 1.721673e-02
    endloop
  endfacet
  facet normal -1.131608e-06 3.636171e-03 9.999934e-01
    outer loop
      vertex 2.231960e+01 7.061753e+00 1.721673e-02
      vertex 2.771974e+01 7.061768e+00 1.722279e-02
      vertex 2.771971e+01 1.177577e+01 8.175373e-05
    endloop
  endfacet
  facet normal -1.000000e+00 -5.785563e-06 -1.278315e-06
    outer loop
      vertex 2.771969e+01 1.177575e+01 1.658093e+01
      vertex 2.771971e+01 1.177577e+01 8.175373e-05
      vertex 2.771974e+01 7.061768e+00 1.722279e-02
    endloop
  endfacet
  facet normal -1.000000e+00 -5.133259e-06 -1.463958e-06
    outer loop
      vertex 2.771974e+01 7.061768e+00 1.722279e-02
      vertex 2.771971e+01 7.061741e+00 1.656378e+01
      vertex 2.771969e+01 1.177575e+01 1.658093e+01
    endloop
  endfacet
  facet normal 1.000000e+00 4.491618e-06 1.278314e-06
    outer loop
      vertex 2.231957e+01 1.177576e+01 7.569790e-05
      vertex 2.231955e+01 1.177573e+01 1.658093e+01
      vertex 2.231957e+01 7.061729e+00 1.656377e+01
    endloop
  endfacet
  facet normal 1.000000e+00 4.500925e-06 1.280963e-06
    outer loop
      vertex 2.231957e+01 7.061729e+00 1.656377e+01
      vertex 2.231960e+01 7.061753e+00 1.721673e-02
      vertex 2.231957e+01 1.177576e+01 7.569790e-05
    endloop
  endfacet
  facet normal 1.000000e+00 5.817624e-06 1.280965e-06
    outer loop
      vertex 2.231960e+01 7.061753e+00 1.721673e-02
      vertex 2.231957e+01 7.061729e+00 1.656377e+01
      vertex 2.231960e+01 3.418419e+00 1.656377e+01
    endloop
  endfacet
  facet normal 1.000000e+00 3.324357e-06 7.319800e-07
    outer loop
      vertex 2.231960e+01 3.418419e+00 1.656377e+01
      vertex 2.231961e+01 3.418444e+00 1.721370e-02
      vertex 2.231960e+01 7.061753e+00 1.721673e-02
    endloop
  endfacet
  facet normal -1.000000e+00 -4.155446e-06 -1.463957e-06
    outer loop
      vertex 2.771971e+01 7.061741e+00 1.656378e+01
      vertex 2.771974e+01 7.061768e+00 1.722279e-02
      vertex 2.771975e+01 3.418459e+00 1.721976e-02
    endloop
  endfacet
  facet normal -1.000000e+00 -4.986543e-06 -1.280963e-06
    outer loop
      vertex 2.771975e+01 3.418459e+00 1.721976e-02
      vertex 2.771973e+01 3.418438e+00 1.656377e+01
      vertex 2.771971e+01 7.061741e+00 1.656378e+01
    endloop
  endfacet
  facet normal -1.121418e-06 -8.310931e-07 1.000000e+00
    outer loop
      vertex 2.771974e+01 7.061768e+00 1.722279e-02
      vertex 2.231960e+01 7.061753e+00 1.721673e-02
      vertex 2.231961e+01 3.418444e+00 1.721370e-02
    endloop
  endfacet
  facet normal -1.121418e-06 -8.310940e-07 1.000000e+00
    outer loop
      vertex 2.231961e+01 3.418444e+00 1.721370e-02
      vertex 2.771975e+01 3.418459e+00 1.721976e-02
      vertex 2.771974e+01 7.061768e+00 1.722279e-02
    endloop
  endfacet
  facet normal -1.111217e-06 -3.636814e-03 9.999934e-01
    outer loop
      vertex 2.771975e+01 3.418459e+00 1.721976e-02
      vertex 2.231961e+01 3.418444e+00 1.721370e-02
      vertex 2.231964e+01 -1.295558e+00 6.964207e-05
    endloop
  endfacet
  facet normal -1.110709e-06 -3.636814e-03 9.999934e-01
    outer loop
      vertex 2.231964e+01 -1.295558e+00 6.964207e-05
      vertex 2.771977e+01 -1.295542e+00 7.569790e-05
      vertex 2.771975e+01 3.418459e+00 1.721976e-02
    endloop
  endfacet
  facet normal -1.000000e+00 -3.849285e-06 -1.280961e-06
    outer loop
      vertex 2.771973e+01 3.418438e+00 1.656377e+01
      vertex 2.771975e+01 3.418459e+00 1.721976e-02
      vertex 2.771977e+01 -1.295542e+00 7.569790e-05
    endloop
  endfacet
  facet normal -1.000000e+00 -3.858591e-06 -1.278313e-06
    outer loop
      vertex 2.771977e+01 -1.295542e+00 7.569790e-05
      vertex 2.771975e+01 -1.295566e+00 1.658092e+01
      vertex 2.771973e+01 3.418438e+00 1.656377e+01
    endloop
  endfacet
  facet normal 1.000000e+00 5.141252e-06 7.319826e-07
    outer loop
      vertex 2.231961e+01 3.418444e+00 1.721370e-02
      vertex 2.231960e+01 3.418419e+00 1.656377e+01
      vertex 2.231962e+01 -1.295584e+00 1.658091e+01
    endloop
  endfacet
  facet normal 1.000000e+00 6.419254e-06 1.095702e-06
    outer loop
      vertex 2.231962e+01 -1.295584e+00 1.658091e+01
      vertex 2.231964e+01 -1.295558e+00 6.964207e-05
      vertex 2.231961e+01 3.418444e+00 1.721370e-02
    endloop
  endfacet
  facet normal 1.000000e+00 9.202457e-06 1.095706e-06
    outer loop
      vertex 2.231964e+01 -1.295558e+00 6.964207e-05
      vertex 2.231962e+01 -1.295584e+00 1.658091e+01
      vertex 2.231975e+01 -1.577306e+01 1.658091e+01
    endloop
  endfacet
  facet normal 1.000000e+00 9.202457e-06 1.095706e-06
    outer loop
      vertex 2.231975e+01 -1.577306e+01 1.658091e+01
      vertex 2.231977e+01 -1.577303e+01 6.661415e-05
      vertex 2.231964e+01 -1.295558e+00 6.964207e-05
    endloop
  endfacet
  facet normal -1.000000e+00 -9.411603e-06 -1.278321e-06
    outer loop
      vertex 2.771975e+01 -1.295566e+00 1.658092e+01
      vertex 2.771977e+01 -1.295542e+00 7.569790e-05
      vertex 2.771991e+01 -1.577301e+01 6.964207e-05
    endloop
  endfacet
  facet normal -1.000000e+00 -9.411601e-06 -1.278322e-06
    outer loop
      vertex 2.771991e+01 -1.577301e+01 6.964207e-05
      vertex 2.771989e+01 -1.577304e+01 1.658092e+01
      vertex 2.771975e+01 -1.295566e+00 1.658092e+01
    endloop
  endfacet
  facet normal -1.121422e-06 -2.091571e-07 1.000000e+00
    outer loop
      vertex 2.771977e+01 -1.295542e+00 7.569790e-05
      vertex 2.231964e+01 -1.295558e+00 6.964207e-05
      vertex 2.231977e+01 -1.577303e+01 6.661415e-05
    endloop
  endfacet
  facet normal -5.607097e-07 -4.182988e-07 1.000000e+00
    outer loop
      vertex 2.231977e+01 -1.577303e+01 6.661415e-05
      vertex 2.771991e+01 -1.577301e+01 6.964207e-05
      vertex 2.771977e+01 -1.295542e+00 7.569790e-05
    endloop
  endfacet
  facet normal -6.953882e-06 1.000000e+00 -1.381613e-11
    outer loop
      vertex 2.341469e+01 4.777530e+00 4.140566e+00
      vertex 2.646269e+01 4.777551e+00 4.140566e+00
      vertex 2.646269e+01 4.777551e+00 1.092569e+00
    endloop
  endfacet
  facet normal -5.960476e-06 1.000000e+00 9.933939e-07
    outer loop
      vertex 2.646269e+01 4.777551e+00 1.092569e+00
      vertex 2.341470e+01 4.777533e+00 1.092569e+00
      vertex 2.341469e+01 4.777530e+00 4.140566e+00
    endloop
  endfacet
  facet normal -6.953882e-06 1.000000e+00 6.908040e-12
    outer loop
      vertex 2.341468e+01 4.777512e+00 1.539638e+01
      vertex 2.646268e+01 4.777533e+00 1.539640e+01
      vertex 2.646268e+01 4.777533e+00 1.234839e+01
    endloop
  endfacet
  facet normal -6.953882e-06 1.000000e+00 6.908067e-12
    outer loop
      vertex 2.646268e+01 4.777533e+00 1.234839e+01
      vertex 2.341468e+01 4.777512e+00 1.234839e+01
      vertex 2.341468e+01 4.777512e+00 1.539638e+01
    endloop
  endfacet
  facet normal -3.967837e-06 1.000000e+00 -8.842353e-08
    outer loop
      vertex -1.124608e+01 1.463434e+01 6.814052e+00
      vertex -1.198084e+01 1.463433e+01 5.541407e+00
      vertex -1.356834e+01 1.463433e+01 8.291046e+00
    endloop
  endfacet
  facet normal -4.120958e-06 1.000000e+00 -3.291752e-07
    outer loop
      vertex -1.356834e+01 1.463433e+01 8.291046e+00
      vertex -1.209882e+01 1.463433e+01 8.291046e+00
      vertex -1.124608e+01 1.463434e+01 6.814052e+00
    endloop
  endfacet
  facet normal -4.768361e-06 1.000000e+00 -2.753007e-06
    outer loop
      vertex -9.540597e+00 1.463435e+01 6.814064e+00
      vertex -8.805837e+00 1.463435e+01 5.541419e+00
      vertex -1.198084e+01 1.463433e+01 5.541407e+00
    endloop
  endfacet
  facet normal -7.101604e-06 1.000000e+00 1.720838e-06
    outer loop
      vertex -1.198084e+01 1.463433e+01 5.541407e+00
      vertex -1.124608e+01 1.463434e+01 6.814052e+00
      vertex -9.540597e+00 1.463435e+01 6.814064e+00
    endloop
  endfacet
  facet normal -6.181440e-06 1.000000e+00 2.652174e-07
    outer loop
      vertex -8.687863e+00 1.463435e+01 8.291039e+00
      vertex -7.218343e+00 1.463436e+01 8.291052e+00
      vertex -8.805837e+00 1.463435e+01 5.541419e+00
    endloop
  endfacet
  facet normal 0.000000e+00 1.000000e+00 0.000000e+00
    outer loop
      vertex -8.805837e+00 1.463435e+01 5.541419e+00
      vertex -9.540597e+00 1.463435e+01 6.814064e+00
      vertex -8.687863e+00 1.463435e+01 8.291039e+00
    endloop
  endfacet
  facet normal -3.814705e-06 1.000000e+00 2.202407e-06
    outer loop
      vertex -9.540603e+00 1.463435e+01 9.768039e+00
      vertex -8.805849e+00 1.463435e+01 1.104068e+01
      vertex -7.218343e+00 1.463436e+01 8.291052e+00
    endloop
  endfacet
  facet normal -6.181425e-06 1.000000e+00 -1.518776e-06
    outer loop
      vertex -7.218343e+00 1.463436e+01 8.291052e+00
      vertex -8.687863e+00 1.463435e+01 8.291039e+00
      vertex -9.540603e+00 1.463435e+01 9.768039e+00
    endloop
  endfacet
  facet normal -4.768375e-06 1.000000e+00 2.005441e-06
    outer loop
      vertex -1.124608e+01 1.463434e+01 9.768039e+00
      vertex -1.198085e+01 1.463433e+01 1.104067e+01
      vertex -8.805849e+00 1.463435e+01 1.104068e+01
    endloop
  endfacet
  facet normal -5.326213e-06 1.000000e+00 3.075071e-06
    outer loop
      vertex -8.805849e+00 1.463435e+01 1.104068e+01
      vertex -9.540603e+00 1.463435e+01 9.768039e+00
      vertex -1.124608e+01 1.463434e+01 9.768039e+00
    endloop
  endfacet
  facet normal -4.120958e-06 1.000000e+00 1.278021e-06
    outer loop
      vertex -1.209882e+01 1.463433e+01 8.291046e+00
      vertex -1.356834e+01 1.463433e+01 8.291046e+00
      vertex -1.198085e+01 1.463433e+01 1.104067e+01
    endloop
  endfacet
  facet normal -5.896350e-06 1.000000e+00 1.354195e-06
    outer loop
      vertex -1.198085e+01 1.463433e+01 1.104067e+01
      vertex -1.124608e+01 1.463434e+01 9.768039e+00
      vertex -1.209882e+01 1.463433e+01 8.291046e+00
    endloop
  endfacet
  facet normal -4.768362e-06 1.000000e+00 5.554161e-07
    outer loop
      vertex 2.231955e+01 1.177573e+01 1.658093e+01
      vertex -8.805831e+00 1.177558e+01 1.104068e+01
      vertex -1.198084e+01 1.177557e+01 1.104068e+01
    endloop
  endfacet
  facet normal -4.948306e-06 1.000000e+00 1.669472e-06
    outer loop
      vertex -1.198084e+01 1.177557e+01 1.104068e+01
      vertex -2.112604e+01 1.177551e+01 1.658089e+01
      vertex 2.231955e+01 1.177573e+01 1.658093e+01
    endloop
  endfacet
  facet normal -1.907359e-06 2.118331e-06 1.000000e+00
    outer loop
      vertex -8.805849e+00 1.463435e+01 1.104068e+01
      vertex -1.198085e+01 1.463433e+01 1.104067e+01
      vertex -1.198084e+01 1.177557e+01 1.104068e+01
    endloop
  endfacet
  facet normal 0.000000e+00 0.000000e+00 1.000000e+00
    outer loop
      vertex -1.198084e+01 1.177557e+01 1.104068e+01
      vertex -8.805831e+00 1.177558e+01 1.104068e+01
      vertex -8.805849e+00 1.463435e+01 1.104068e+01
    endloop
  endfacet
  facet normal 0.000000e+00 0.000000e+00 1.000000e+00
    outer loop
      vertex -1.124609e+01 1.577286e+01 9.768039e+00
      vertex -1.124608e+01 1.463434e+01 9.768039e+00
      vertex -9.540603e+00 1.463435e+01 9.768039e+00
    endloop
  endfacet
  facet normal 0.000000e+00 0.000000e+00 1.000000e+00
    outer loop
      vertex -9.540603e+00 1.463435e+01 9.768039e+00
      vertex -9.540615e+00 1.577287e+01 9.768039e+00
      vertex -1.124609e+01 1.577286e+01 9.768039e+00
    endloop
  endfacet
  facet normal -1.000000e+00 -5.698942e-06 -1.095702e-06
    outer loop
      vertex -2.112596e+01 -2.601373e+00 2.422333e-05
      vertex -2.112598e+01 -2.601403e+00 1.658087e+01
      vertex -2.112600e+01 2.398584e+00 1.268263e+01
    endloop
  endfacet
  facet normal -1.000000e+00 -6.731496e-06 -6.886306e-07
    outer loop
      vertex -2.112600e+01 2.398584e+00 1.268263e+01
      vertex -2.112600e+01 2.398596e+00 3.888492e+00
      vertex -2.112596e+01 -2.601373e+00 2.422333e-05
    endloop
  endfacet
  facet normal -1.000000e+00 -2.282962e-06 -6.408759e-06
    outer loop
      vertex -2.112596e+01 -2.601373e+00 2.422333e-05
      vertex -2.112600e+01 2.398596e+00 3.888492e+00
      vertex -2.112601e+01 1.035643e+01 3.888504e+00
    endloop
  endfacet
  facet normal -1.000000e+00 -4.212192e-06 2.012331e-08
    outer loop
      vertex -2.112601e+01 1.035643e+01 3.888504e+00
      vertex -2.112602e+01 1.177554e+01 4.541874e-05
      vertex -2.112596e+01 -2.601373e+00 2.422333e-05
    endloop
  endfacet
  facet normal -7.536399e-07 1.000000e+00 1.738464e-06
    outer loop
      vertex -2.771988e+01 -2.996799e+00 1.658084e+01
      vertex -2.643457e+01 -2.996796e+00 1.539632e+01
      vertex -2.643457e+01 -2.996790e+00 1.234831e+01
    endloop
  endfacet
  facet normal -6.152178e-07 1.000000e+00 1.780499e-06
    outer loop
      vertex -2.643457e+01 -2.996790e+00 1.234831e+01
      vertex -2.771986e+01 -2.996769e+00 0.000000e+00
      vertex -2.771988e+01 -2.996799e+00 1.658084e+01
    endloop
  endfacet
  facet normal -4.018987e-06 1.000000e+00 4.728265e-06
    outer loop
      vertex -2.263438e+01 -2.996749e+00 6.055832e-06
      vertex -2.771986e+01 -2.996769e+00 0.000000e+00
      vertex -2.643456e+01 -2.996769e+00 1.092496e+00
    endloop
  endfacet
  facet normal -4.718710e-06 1.000000e+00 2.294313e-06
    outer loop
      vertex -2.643456e+01 -2.996769e+00 1.092496e+00
      vertex -2.338656e+01 -2.996755e+00 1.092502e+00
      vertex -2.263438e+01 -2.996749e+00 6.055832e-06
    endloop
  endfacet
  facet normal -1.153166e-06 1.000000e+00 1.490116e-06
    outer loop
      vertex 2.231975e+01 -1.577306e+01 1.658091e+01
      vertex 2.341484e+01 -1.577305e+01 1.539637e+01
      vertex 2.341484e+01 -1.577305e+01 1.234837e+01
    endloop
  endfacet
  facet normal -9.130991e-07 1.000000e+00 1.552229e-06
    outer loop
      vertex 2.341484e+01 -1.577305e+01 1.234837e+01
      vertex 2.231977e+01 -1.577303e+01 6.661415e-05
      vertex 2.231975e+01 -1.577306e+01 1.658091e+01
    endloop
  endfacet
  facet normal 8.660263e-01 3.669075e-06 -4.999983e-01
    outer loop
      vertex -8.805837e+00 1.463435e+01 5.541419e+00
      vertex -7.218343e+00 1.463436e+01 8.291052e+00
      vertex -7.218331e+00 1.177559e+01 8.291052e+00
    endloop
  endfacet
  facet normal 8.660268e-01 4.728251e-06 -4.999975e-01
    outer loop
      vertex -7.218331e+00 1.177559e+01 8.291052e+00
      vertex -8.805825e+00 1.177559e+01 5.541413e+00
      vertex -8.805837e+00 1.463435e+01 5.541419e+00
    endloop
  endfacet
  facet normal -1.000000e+00 -7.366989e-06 -7.651589e-12
    outer loop
      vertex 2.341470e+01 4.777533e+00 1.092569e+00
      vertex 2.341485e+01 -1.577303e+01 1.954084e+00
      vertex 2.341485e+01 -1.577303e+01 4.140554e+00
    endloop
  endfacet
  facet normal -1.000000e+00 -7.809008e-06 -2.980243e-06
    outer loop
      vertex 2.341485e+01 -1.577303e+01 4.140554e+00
      vertex 2.341469e+01 4.777530e+00 4.140566e+00
      vertex 2.341470e+01 4.777533e+00 1.092569e+00
    endloop
  endfacet
  facet normal 1.726722e-06 1.000000e+00 1.986827e-06
    outer loop
      vertex 2.771991e+01 -1.577301e+01 6.964207e-05
      vertex 2.646285e+01 -1.577301e+01 1.092557e+00
      vertex 2.646285e+01 -1.577302e+01 4.140554e+00
    endloop
  endfacet
  facet normal 4.456292e-07 1.000000e+00 1.597884e-06
    outer loop
      vertex 2.646285e+01 -1.577302e+01 4.140554e+00
      vertex 2.771989e+01 -1.577304e+01 1.658092e+01
      vertex 2.771991e+01 -1.577301e+01 6.964207e-05
    endloop
  endfacet
  facet normal -8.660252e-01 -4.728250e-06 -5.000004e-01
    outer loop
      vertex -1.356834e+01 1.463433e+01 8.291046e+00
      vertex -1.198084e+01 1.463433e+01 5.541407e+00
      vertex -1.198082e+01 1.177558e+01 5.541413e+00
    endloop
  endfacet
  facet normal -8.660243e-01 -2.609889e-06 -5.000020e-01
    outer loop
      vertex -1.198082e+01 1.177558e+01 5.541413e+00
      vertex -1.356833e+01 1.177556e+01 8.291039e+00
      vertex -1.356834e+01 1.463433e+01 8.291046e+00
    endloop
  endfacet
  facet normal 8.660243e-01 5.503598e-06 5.000020e-01
    outer loop
      vertex -7.218343e+00 1.463436e+01 8.291052e+00
      vertex -8.805849e+00 1.463435e+01 1.104068e+01
      vertex -8.805831e+00 1.177558e+01 1.104068e+01
    endloop
  endfacet
  facet normal 8.660250e-01 3.669069e-06 5.000006e-01
    outer loop
      vertex -8.805831e+00 1.177558e+01 1.104068e+01
      vertex -7.218331e+00 1.177559e+01 8.291052e+00
      vertex -7.218343e+00 1.463436e+01 8.291052e+00
    endloop
  endfacet
  facet normal 8.660250e-01 7.265883e-06 -5.000008e-01
    outer loop
      vertex -8.687869e+00 1.577288e+01 8.291046e+00
      vertex -8.687863e+00 1.463435e+01 8.291039e+00
      vertex -9.540597e+00 1.463435e+01 6.814064e+00
    endloop
  endfacet
  facet normal 8.660258e-01 4.606410e-06 -4.999993e-01
    outer loop
      vertex -9.540597e+00 1.463435e+01 6.814064e+00
      vertex -9.540603e+00 1.577287e+01 6.814064e+00
      vertex -8.687869e+00 1.577288e+01 8.291046e+00
    endloop
  endfacet
  facet normal -1.000000e+00 -2.499250e-06 -4.344855e-12
    outer loop
      vertex -2.643458e+01 1.849329e+00 1.234834e+01
      vertex -2.643457e+01 -2.996790e+00 1.234831e+01
      vertex -2.643457e+01 -2.996796e+00 1.539632e+01
    endloop
  endfacet
  facet normal -1.000000e+00 -3.748861e-06 -1.986823e-06
    outer loop
      vertex -2.643457e+01 -2.996796e+00 1.539632e+01
      vertex -2.643459e+01 1.849329e+00 1.539634e+01
      vertex -2.643458e+01 1.849329e+00 1.234834e+01
    endloop
  endfacet
  facet normal 3.814687e-06 2.118360e-06 -1.000000e+00
    outer loop
      vertex -1.198084e+01 1.463433e+01 5.541407e+00
      vertex -8.805837e+00 1.463435e+01 5.541419e+00
      vertex -8.805825e+00 1.177559e+01 5.541413e+00
    endloop
  endfacet
  facet normal 1.010105e-11 -2.118343e-06 -1.000000e+00
    outer loop
      vertex -8.805825e+00 1.177559e+01 5.541413e+00
      vertex -1.198082e+01 1.177558e+01 5.541413e+00
      vertex -1.198084e+01 1.463433e+01 5.541407e+00
    endloop
  endfacet
  facet normal 3.550789e-06 -1.000000e+00 2.795753e-06
    outer loop
      vertex -9.540603e+00 1.577287e+01 6.814064e+00
      vertex -1.124608e+01 1.577287e+01 6.814052e+00
      vertex -2.112604e+01 1.577282e+01 3.116622e+00
    endloop
  endfacet
  facet normal 5.018003e-06 -1.000000e+00 -1.801565e-06
    outer loop
      vertex -2.112604e+01 1.577282e+01 3.116622e+00
      vertex 2.231955e+01 1.577304e+01 3.116701e+00
      vertex -9.540603e+00 1.577287e+01 6.814064e+00
    endloop
  endfacet
  facet normal 7.101592e-06 3.777352e-11 -1.000000e+00
    outer loop
      vertex -9.540603e+00 1.577287e+01 6.814064e+00
      vertex -9.540597e+00 1.463435e+01 6.814064e+00
      vertex -1.124608e+01 1.463434e+01 6.814052e+00
    endloop
  endfacet
  facet normal 7.101617e-06 0.000000e+00 -1.000000e+00
    outer loop
      vertex -1.124608e+01 1.463434e+01 6.814052e+00
      vertex -1.124608e+01 1.577287e+01 6.814052e+00
      vertex -9.540603e+00 1.577287e+01 6.814064e+00
    endloop
  endfacet
  facet normal -1.059304e-06 1.000000e+00 -1.590825e-06
    outer loop
      vertex -1.198084e+01 1.177557e+01 1.104068e+01
      vertex -1.356833e+01 1.177556e+01 8.291039e+00
      vertex -2.112602e+01 1.177554e+01 4.541874e-05
    endloop
  endfacet
  facet normal -4.964021e-06 1.000000e+00 1.643533e-06
    outer loop
      vertex -2.112602e+01 1.177554e+01 4.541874e-05
      vertex -2.112604e+01 1.177551e+01 1.658089e+01
      vertex -1.198084e+01 1.177557e+01 1.104068e+01
    endloop
  endfacet
  facet normal -8.660268e-01 -4.728236e-06 4.999975e-01
    outer loop
      vertex -1.356834e+01 1.463433e+01 8.291046e+00
      vertex -1.356833e+01 1.177556e+01 8.291039e+00
      vertex -1.198084e+01 1.177557e+01 1.104068e+01
    endloop
  endfacet
  facet normal -8.660259e-01 -2.609905e-06 4.999992e-01
    outer loop
      vertex -1.198084e+01 1.177557e+01 1.104068e+01
      vertex -1.198085e+01 1.463433e+01 1.104067e+01
      vertex -1.356834e+01 1.463433e+01 8.291046e+00
    endloop
  endfacet
  facet normal 4.760957e-06 -1.000000e+00 -6.986774e-07
    outer loop
      vertex -2.112604e+01 1.577282e+01 3.116622e+00
      vertex -1.209883e+01 1.577286e+01 8.291046e+00
      vertex -1.124609e+01 1.577286e+01 9.768039e+00
    endloop
  endfacet
  facet normal 5.272257e-06 -1.000000e+00 -1.458157e-06
    outer loop
      vertex -1.124609e+01 1.577286e+01 9.768039e+00
      vertex -2.112606e+01 1.577281e+01 1.349924e+01
      vertex -2.112604e+01 1.577282e+01 3.116622e+00
    endloop
  endfacet
  facet normal -8.660260e-01 -4.606399e-06 4.999989e-01
    outer loop
      vertex -1.124609e+01 1.577286e+01 9.768039e+00
      vertex -1.209883e+01 1.577286e+01 8.291046e+00
      vertex -1.209882e+01 1.463433e+01 8.291046e+00
    endloop
  endfacet
  facet normal -8.660260e-01 -4.606399e-06 4.999989e-01
    outer loop
      vertex -1.209882e+01 1.463433e+01 8.291046e+00
      vertex -1.124608e+01 1.463434e+01 9.768039e+00
      vertex -1.124609e+01 1.577286e+01 9.768039e+00
    endloop
  endfacet
  facet normal 1.000000e+00 3.804943e-06 4.451731e-06
    outer loop
      vertex -2.771988e+01 1.035640e+01 3.888498e+00
      vertex -2.771985e+01 2.398570e+00 3.888480e+00
      vertex -2.771982e+01 -2.601398e+00 1.513958e-05
    endloop
  endfacet
  facet normal 1.000000e+00 3.790967e-06 4.498303e-06
    outer loop
      vertex -2.771982e+01 -2.601398e+00 1.513958e-05
      vertex -2.771987e+01 1.177551e+01 3.633499e-05
      vertex -2.771988e+01 1.035640e+01 3.888498e+00
    endloop
  endfacet
  facet normal -1.000000e+00 -3.043958e-06 -1.998847e-06
    outer loop
      vertex -2.112604e+01 1.177551e+01 1.658089e+01
      vertex -2.112603e+01 1.035641e+01 1.268265e+01
      vertex -2.112600e+01 2.398584e+00 1.268263e+01
    endloop
  endfacet
  facet normal -1.000000e+00 -4.212192e-06 8.112441e-07
    outer loop
      vertex -2.112600e+01 2.398584e+00 1.268263e+01
      vertex -2.112598e+01 -2.601403e+00 1.658087e+01
      vertex -2.112604e+01 1.177551e+01 1.658089e+01
    endloop
  endfacet
  facet normal -1.000000e+00 -4.751467e-06 -1.377250e-06
    outer loop
      vertex -2.112601e+01 1.035643e+01 3.888504e+00
      vertex -2.112603e+01 1.035641e+01 1.268265e+01
      vertex -2.112604e+01 1.177551e+01 1.658089e+01
    endloop
  endfacet
  facet normal -1.000000e+00 -7.269626e-06 -1.095704e-06
    outer loop
      vertex -2.112604e+01 1.177551e+01 1.658089e+01
      vertex -2.112602e+01 1.177554e+01 4.541874e-05
      vertex -2.112601e+01 1.035643e+01 3.888504e+00
    endloop
  endfacet
  facet normal 3.973615e-06 4.998511e-06 -1.000000e+00
    outer loop
      vertex -2.338658e+01 1.849347e+00 1.234834e+01
      vertex -2.338657e+01 -2.996776e+00 1.234832e+01
      vertex -2.643457e+01 -2.996790e+00 1.234831e+01
    endloop
  endfacet
  facet normal -4.469011e-11 7.497750e-06 -1.000000e+00
    outer loop
      vertex -2.643457e+01 -2.996790e+00 1.234831e+01
      vertex -2.643458e+01 1.849329e+00 1.234834e+01
      vertex -2.338658e+01 1.849347e+00 1.234834e+01
    endloop
  endfacet
  facet normal 1.986803e-06 4.373691e-06 -1.000000e+00
    outer loop
      vertex -2.338657e+01 1.849366e+00 1.092524e+00
      vertex -2.338656e+01 -2.996755e+00 1.092502e+00
      vertex -2.643456e+01 -2.996769e+00 1.092496e+00
    endloop
  endfacet
  facet normal 2.980209e-06 3.748887e-06 -1.000000e+00
    outer loop
      vertex -2.643456e+01 -2.996769e+00 1.092496e+00
      vertex -2.643457e+01 1.849344e+00 1.092514e+00
      vertex -2.338657e+01 1.849366e+00 1.092524e+00
    endloop
  endfacet
  facet normal -5.463754e-06 1.000000e+00 -6.286788e-06
    outer loop
      vertex 2.341485e+01 -1.577303e+01 1.092557e+00
      vertex 2.646285e+01 -1.577301e+01 1.092557e+00
      vertex 2.771991e+01 -1.577301e+01 6.964207e-05
    endloop
  endfacet
  facet normal -2.943735e-06 1.000000e+00 3.643604e-06
    outer loop
      vertex 2.771991e+01 -1.577301e+01 6.964207e-05
      vertex 2.231977e+01 -1.577303e+01 6.661415e-05
      vertex 2.341485e+01 -1.577303e+01 1.092557e+00
    endloop
  endfacet
  facet normal -3.512861e-12 5.893592e-07 -1.000000e+00
    outer loop
      vertex 2.341485e+01 -1.577303e+01 1.092557e+00
      vertex 2.341470e+01 4.777533e+00 1.092569e+00
      vertex 2.646269e+01 4.777551e+00 1.092569e+00
    endloop
  endfacet
  facet normal -3.220113e-12 5.893592e-07 -1.000000e+00
    outer loop
      vertex 2.646269e+01 4.777551e+00 1.092569e+00
      vertex 2.646285e+01 -1.577301e+01 1.092557e+00
      vertex 2.341485e+01 -1.577303e+01 1.092557e+00
    endloop
  endfacet
  facet normal -2.781012e-12 5.893591e-07 -1.000000e+00
    outer loop
      vertex 2.646268e+01 4.777533e+00 1.234839e+01
      vertex 2.646284e+01 -1.577303e+01 1.234837e+01
      vertex 2.341484e+01 -1.577305e+01 1.234837e+01
    endloop
  endfacet
  facet normal -4.098335e-12 5.893593e-07 -1.000000e+00
    outer loop
      vertex 2.341484e+01 -1.577305e+01 1.234837e+01
      vertex 2.341468e+01 4.777512e+00 1.234839e+01
      vertex 2.646268e+01 4.777533e+00 1.234839e+01
    endloop
  endfacet
  facet normal 1.000000e+00 5.381569e-06 6.886291e-07
    outer loop
      vertex -2.771985e+01 2.398570e+00 3.888480e+00
      vertex -2.771986e+01 2.398557e+00 1.268263e+01
      vertex -2.771983e+01 -2.601428e+00 1.658086e+01
    endloop
  endfacet
  facet normal 1.000000e+00 6.414918e-06 1.095704e-06
    outer loop
      vertex -2.771983e+01 -2.601428e+00 1.658086e+01
      vertex -2.771982e+01 -2.601398e+00 1.513958e-05
      vertex -2.771985e+01 2.398570e+00 3.888480e+00
    endloop
  endfacet
  facet normal 1.000000e+00 3.043958e-06 1.998847e-06
    outer loop
      vertex -2.771986e+01 2.398557e+00 1.268263e+01
      vertex -2.771988e+01 1.035638e+01 1.268264e+01
      vertex -2.771990e+01 1.177549e+01 1.658088e+01
    endloop
  endfacet
  facet normal 1.000000e+00 4.212193e-06 -8.112465e-07
    outer loop
      vertex -2.771990e+01 1.177549e+01 1.658088e+01
      vertex -2.771983e+01 -2.601428e+00 1.658086e+01
      vertex -2.771986e+01 2.398557e+00 1.268263e+01
    endloop
  endfacet
  facet normal 1.000000e+00 8.534695e-06 1.469292e-11
    outer loop
      vertex -2.771990e+01 1.177549e+01 1.658088e+01
      vertex -2.771988e+01 1.035638e+01 1.268264e+01
      vertex -2.771988e+01 1.035640e+01 3.888498e+00
    endloop
  endfacet
  facet normal 1.000000e+00 -4.531665e-06 1.460915e-06
    outer loop
      vertex -2.771988e+01 1.035640e+01 3.888498e+00
      vertex -2.771987e+01 1.177551e+01 3.633499e-05
      vertex -2.771990e+01 1.177549e+01 1.658088e+01
    endloop
  endfacet
  facet normal -4.718705e-06 1.000000e+00 -2.563956e-06
    outer loop
      vertex -2.338657e+01 -2.996781e+00 1.539632e+01
      vertex -2.643457e+01 -2.996796e+00 1.539632e+01
      vertex -2.771988e+01 -2.996799e+00 1.658084e+01
    endloop
  endfacet
  facet normal -3.870131e-06 1.000000e+00 5.403497e-07
    outer loop
      vertex -2.771988e+01 -2.996799e+00 1.658084e+01
      vertex -2.263440e+01 -2.996779e+00 1.658085e+01
      vertex -2.338657e+01 -2.996781e+00 1.539632e+01
    endloop
  endfacet
  facet normal 2.358644e-11 -4.998498e-06 1.000000e+00
    outer loop
      vertex -2.643457e+01 1.849347e+00 4.140524e+00
      vertex -2.643456e+01 -2.996774e+00 4.140499e+00
      vertex -2.338656e+01 -2.996759e+00 4.140499e+00
    endloop
  endfacet
  facet normal 2.979338e-11 -4.998494e-06 1.000000e+00
    outer loop
      vertex -2.338656e+01 -2.996759e+00 4.140499e+00
      vertex -2.338657e+01 1.849366e+00 4.140524e+00
      vertex -2.643457e+01 1.849347e+00 4.140524e+00
    endloop
  endfacet
  facet normal 2.781011e-12 -5.893590e-07 1.000000e+00
    outer loop
      vertex 2.341485e+01 -1.577303e+01 4.140554e+00
      vertex 2.646285e+01 -1.577302e+01 4.140554e+00
      vertex 2.646269e+01 4.777551e+00 4.140566e+00
    endloop
  endfacet
  facet normal 4.098334e-12 -5.893592e-07 1.000000e+00
    outer loop
      vertex 2.646269e+01 4.777551e+00 4.140566e+00
      vertex 2.341469e+01 4.777530e+00 4.140566e+00
      vertex 2.341485e+01 -1.577303e+01 4.140554e+00
    endloop
  endfacet
  facet normal 1.000000e+00 7.366986e-06 1.986826e-06
    outer loop
      vertex 2.646268e+01 4.777533e+00 1.539640e+01
      vertex 2.646283e+01 -1.577304e+01 1.539638e+01
      vertex 2.646284e+01 -1.577303e+01 1.234837e+01
    endloop
  endfacet
  facet normal 1.000000e+00 7.809009e-06 -9.934078e-07
    outer loop
      vertex 2.646284e+01 -1.577303e+01 1.234837e+01
      vertex 2.646268e+01 4.777533e+00 1.234839e+01
      vertex 2.646268e+01 4.777533e+00 1.539640e+01
    endloop
  endfacet
  facet normal 8.660245e-01 9.212807e-06 5.000015e-01
    outer loop
      vertex -8.687869e+00 1.577288e+01 8.291046e+00
      vertex -9.540615e+00 1.577287e+01 9.768039e+00
      vertex -9.540603e+00 1.463435e+01 9.768039e+00
    endloop
  endfacet
  facet normal 8.660269e-01 1.946909e-06 4.999973e-01
    outer loop
      vertex -9.540603e+00 1.463435e+01 9.768039e+00
      vertex -8.687863e+00 1.463435e+01 8.291039e+00
      vertex -8.687869e+00 1.577288e+01 8.291046e+00
    endloop
  endfacet
  facet normal -8.660245e-01 0.000000e+00 -5.000015e-01
    outer loop
      vertex -1.209883e+01 1.577286e+01 8.291046e+00
      vertex -1.124608e+01 1.577287e+01 6.814052e+00
      vertex -1.124608e+01 1.463434e+01 6.814052e+00
    endloop
  endfacet
  facet normal -8.660260e-01 -4.606399e-06 -4.999989e-01
    outer loop
      vertex -1.124608e+01 1.463434e+01 6.814052e+00
      vertex -1.209882e+01 1.463433e+01 8.291046e+00
      vertex -1.209883e+01 1.577286e+01 8.291046e+00
    endloop
  endfacet
  facet normal 4.132825e-06 -1.000000e+00 -1.549394e-06
    outer loop
      vertex -2.112600e+01 2.398584e+00 1.268263e+01
      vertex -2.771986e+01 2.398557e+00 1.268263e+01
      vertex -2.771985e+01 2.398570e+00 3.888480e+00
    endloop
  endfacet
  facet normal 3.903225e-06 -1.000000e+00 -1.377240e-06
    outer loop
      vertex -2.771985e+01 2.398570e+00 3.888480e+00
      vertex -2.112600e+01 2.398596e+00 3.888492e+00
      vertex -2.112600e+01 2.398584e+00 1.268263e+01
    endloop
  endfacet
  facet normal 9.183972e-07 1.521983e-06 -1.000000e+00
    outer loop
      vertex -2.771988e+01 1.035640e+01 3.888498e+00
      vertex -2.112601e+01 1.035643e+01 3.888504e+00
      vertex -2.112600e+01 2.398596e+00 3.888492e+00
    endloop
  endfacet
  facet normal 1.836801e-06 2.282979e-06 -1.000000e+00
    outer loop
      vertex -2.112600e+01 2.398596e+00 3.888492e+00
      vertex -2.771985e+01 2.398570e+00 3.888480e+00
      vertex -2.771988e+01 1.035640e+01 3.888498e+00
    endloop
  endfacet
  facet normal 2.358640e-11 -4.998490e-06 1.000000e+00
    outer loop
      vertex -2.643457e+01 -2.996796e+00 1.539632e+01
      vertex -2.338657e+01 -2.996781e+00 1.539632e+01
      vertex -2.338658e+01 1.849347e+00 1.539634e+01
    endloop
  endfacet
  facet normal 2.979332e-11 -4.998494e-06 1.000000e+00
    outer loop
      vertex -2.338658e+01 1.849347e+00 1.539634e+01
      vertex -2.643459e+01 1.849329e+00 1.539634e+01
      vertex -2.643457e+01 -2.996796e+00 1.539632e+01
    endloop
  endfacet
  facet normal 1.000000e+00 2.499235e-06 1.986828e-06
    outer loop
      vertex -2.338658e+01 1.849347e+00 1.539634e+01
      vertex -2.338657e+01 -2.996781e+00 1.539632e+01
      vertex -2.338657e+01 -2.996776e+00 1.234832e+01
    endloop
  endfacet
  facet normal 1.000000e+00 3.748872e-06 0.000000e+00
    outer loop
      vertex -2.338657e+01 -2.996776e+00 1.234832e+01
      vertex -2.338658e+01 1.849347e+00 1.234834e+01
      vertex -2.338658e+01 1.849347e+00 1.539634e+01
    endloop
  endfacet
  facet normal -1.000000e+00 -2.499249e-06 2.482773e-12
    outer loop
      vertex -2.643456e+01 -2.996774e+00 4.140499e+00
      vertex -2.643457e+01 1.849347e+00 4.140524e+00
      vertex -2.643457e+01 1.849344e+00 1.092514e+00
    endloop
  endfacet
  facet normal -1.000000e+00 -2.499253e-06 -3.724173e-12
    outer loop
      vertex -2.643457e+01 1.849344e+00 1.092514e+00
      vertex -2.643456e+01 -2.996769e+00 1.092496e+00
      vertex -2.643456e+01 -2.996774e+00 4.140499e+00
    endloop
  endfacet
  facet normal 1.520783e-06 1.000000e+00 1.490118e-06
    outer loop
      vertex -2.338656e+01 -2.996755e+00 1.092502e+00
      vertex -2.338656e+01 -2.996759e+00 4.140499e+00
      vertex -2.263440e+01 -2.996779e+00 1.658085e+01
    endloop
  endfacet
  facet normal -5.398695e-06 1.000000e+00 1.826147e-06
    outer loop
      vertex -2.263440e+01 -2.996779e+00 1.658085e+01
      vertex -2.263438e+01 -2.996749e+00 6.055832e-06
      vertex -2.338656e+01 -2.996755e+00 1.092502e+00
    endloop
  endfacet
  facet normal 1.000000e+00 2.499247e-06 3.724172e-12
    outer loop
      vertex -2.338657e+01 1.849366e+00 4.140524e+00
      vertex -2.338656e+01 -2.996759e+00 4.140499e+00
      vertex -2.338656e+01 -2.996755e+00 1.092502e+00
    endloop
  endfacet
  facet normal 1.000000e+00 2.499249e-06 0.000000e+00
    outer loop
      vertex -2.338656e+01 -2.996755e+00 1.092502e+00
      vertex -2.338657e+01 1.849366e+00 1.092524e+00
      vertex -2.338657e+01 1.849366e+00 4.140524e+00
    endloop
  endfacet
  facet normal 1.000000e+00 7.809008e-06 1.986823e-06
    outer loop
      vertex 2.646285e+01 -1.577301e+01 1.092557e+00
      vertex 2.646269e+01 4.777551e+00 1.092569e+00
      vertex 2.646269e+01 4.777551e+00 4.140566e+00
    endloop
  endfacet
  facet normal 1.000000e+00 7.809005e-06 1.986839e-06
    outer loop
      vertex 2.646269e+01 4.777551e+00 4.140566e+00
      vertex 2.646285e+01 -1.577302e+01 4.140554e+00
      vertex 2.646285e+01 -1.577301e+01 1.092557e+00
    endloop
  endfacet
  facet normal -4.718703e-06 1.000000e+00 -1.806159e-06
    outer loop
      vertex 2.646283e+01 -1.577304e+01 1.539638e+01
      vertex 2.341484e+01 -1.577305e+01 1.539637e+01
      vertex 2.231975e+01 -1.577306e+01 1.658091e+01
    endloop
  endfacet
  facet normal -2.803562e-06 1.000000e+00 4.892365e-06
    outer loop
      vertex 2.231975e+01 -1.577306e+01 1.658091e+01
      vertex 2.771989e+01 -1.577304e+01 1.658092e+01
      vertex 2.646283e+01 -1.577304e+01 1.539638e+01
    endloop
  endfacet
  facet normal -3.973648e-06 -5.893891e-07 1.000000e+00
    outer loop
      vertex 2.341468e+01 4.777512e+00 1.539638e+01
      vertex 2.341484e+01 -1.577305e+01 1.539637e+01
      vertex 2.646283e+01 -1.577304e+01 1.539638e+01
    endloop
  endfacet
  facet normal -3.973643e-06 -5.893883e-07 1.000000e+00
    outer loop
      vertex 2.646283e+01 -1.577304e+01 1.539638e+01
      vertex 2.646268e+01 4.777533e+00 1.539640e+01
      vertex 2.341468e+01 4.777512e+00 1.539638e+01
    endloop
  endfacet
  facet normal -1.000000e+00 -7.809011e-06 -9.934233e-07
    outer loop
      vertex 2.341468e+01 4.777512e+00 1.234839e+01
      vertex 2.341484e+01 -1.577305e+01 1.234837e+01
      vertex 2.341484e+01 -1.577305e+01 1.539637e+01
    endloop
  endfacet
  facet normal -1.000000e+00 -7.514330e-06 9.934117e-07
    outer loop
      vertex 2.341484e+01 -1.577305e+01 1.539637e+01
      vertex 2.341468e+01 4.777512e+00 1.539638e+01
      vertex 2.341468e+01 4.777512e+00 1.234839e+01
    endloop
  endfacet
  facet normal -9.183958e-07 -2.282975e-06 1.000000e+00
    outer loop
      vertex -2.771988e+01 1.035638e+01 1.268264e+01
      vertex -2.771986e+01 2.398557e+00 1.268263e+01
      vertex -2.112600e+01 2.398584e+00 1.268263e+01
    endloop
  endfacet
  facet normal -9.183958e-07 -2.282975e-06 1.000000e+00
    outer loop
      vertex -2.112600e+01 2.398584e+00 1.268263e+01
      vertex -2.112603e+01 1.035641e+01 1.268265e+01
      vertex -2.771988e+01 1.035638e+01 1.268264e+01
    endloop
  endfacet
  facet normal -4.132818e-06 1.000000e+00 1.721546e-06
    outer loop
      vertex -2.112603e+01 1.035641e+01 1.268265e+01
      vertex -2.112601e+01 1.035643e+01 3.888504e+00
      vertex -2.771988e+01 1.035640e+01 3.888498e+00
    endloop
  endfacet
  facet normal -4.132825e-06 1.000000e+00 1.721552e-06
    outer loop
      vertex -2.771988e+01 1.035640e+01 3.888498e+00
      vertex -2.771988e+01 1.035638e+01 1.268264e+01
      vertex -2.112603e+01 1.035641e+01 1.268265e+01
    endloop
  endfacet
  facet normal 6.146607e-07 -5.392395e-03 9.999855e-01
    outer loop
      vertex -2.771987e+01 1.177551e+01 3.633499e-05
      vertex -2.263440e+01 1.177553e+01 3.330708e-05
      vertex -2.338603e+01 1.180240e+01 1.786470e-04
    endloop
  endfacet
  facet normal 1.047657e-06 -5.462192e-03 9.999851e-01
    outer loop
      vertex -2.338603e+01 1.180240e+01 1.786470e-04
      vertex -2.643403e+01 1.180237e+01 1.816750e-04
      vertex -2.771987e+01 1.177551e+01 3.633499e-05
    endloop
  endfacet
  facet normal 3.644917e-06 -5.875044e-01 -8.092210e-01
    outer loop
      vertex -2.263444e+01 1.577280e+01 1.349924e+01
      vertex -2.338606e+01 1.485037e+01 1.416893e+01
      vertex -2.643406e+01 1.485035e+01 1.416893e+01
    endloop
  endfacet
  facet normal 3.062444e-06 -5.875028e-01 -8.092221e-01
    outer loop
      vertex -2.643406e+01 1.485035e+01 1.416893e+01
      vertex -2.771991e+01 1.577278e+01 1.349923e+01
      vertex -2.263444e+01 1.577280e+01 1.349924e+01
    endloop
  endfacet
  facet normal -1.939551e-06 -5.284269e-03 -9.999860e-01
    outer loop
      vertex 2.231955e+01 1.177573e+01 1.658093e+01
      vertex 2.343685e+01 1.180282e+01 1.658078e+01
      vertex 2.648484e+01 1.180285e+01 1.658078e+01
    endloop
  endfacet
  facet normal 1.140773e-06 -5.757335e-03 -9.999835e-01
    outer loop
      vertex 2.648484e+01 1.180285e+01 1.658078e+01
      vertex 2.771969e+01 1.177575e+01 1.658093e+01
      vertex 2.231955e+01 1.177573e+01 1.658093e+01
    endloop
  endfacet
  facet normal 1.275252e-02 -6.148790e-01 7.885184e-01
    outer loop
      vertex -2.771987e+01 1.177551e+01 3.633499e-05
      vertex -2.643403e+01 1.180237e+01 1.816750e-04
      vertex -2.643406e+01 1.485036e+01 2.376981e+00
    endloop
  endfacet
  facet normal 1.252711e-02 -6.148219e-01 7.885665e-01
    outer loop
      vertex -2.643406e+01 1.485036e+01 2.376981e+00
      vertex -2.771990e+01 1.577280e+01 3.116604e+00
      vertex -2.771987e+01 1.177551e+01 3.633499e-05
    endloop
  endfacet
  facet normal 3.889204e-06 -6.255546e-01 7.801804e-01
    outer loop
      vertex -2.771990e+01 1.577280e+01 3.116604e+00
      vertex -2.643406e+01 1.485036e+01 2.376981e+00
      vertex -2.338606e+01 1.485039e+01 2.376990e+00
    endloop
  endfacet
  facet normal -1.481322e-06 -6.255699e-01 7.801681e-01
    outer loop
      vertex -2.338606e+01 1.485039e+01 2.376990e+00
      vertex -2.263442e+01 1.577282e+01 3.116628e+00
      vertex -2.771990e+01 1.577280e+01 3.116604e+00
    endloop
  endfacet
  facet normal -2.133124e-02 -6.147912e-01 7.884014e-01
    outer loop
      vertex -2.263442e+01 1.577282e+01 3.116628e+00
      vertex -2.338606e+01 1.485039e+01 2.376990e+00
      vertex -2.338603e+01 1.180240e+01 1.786470e-04
    endloop
  endfacet
  facet normal -2.182083e-02 -6.147272e-01 7.884379e-01
    outer loop
      vertex -2.338603e+01 1.180240e+01 1.786470e-04
      vertex -2.263440e+01 1.177553e+01 3.330708e-05
      vertex -2.263442e+01 1.577282e+01 3.116628e+00
    endloop
  endfacet
  facet normal 1.287077e-02 -6.204615e-01 -7.841313e-01
    outer loop
      vertex -2.643406e+01 1.485035e+01 1.416893e+01
      vertex -2.643402e+01 1.180234e+01 1.658073e+01
      vertex -2.771990e+01 1.177549e+01 1.658088e+01
    endloop
  endfacet
  facet normal -2.551191e-02 -6.103588e-01 -7.917141e-01
    outer loop
      vertex -2.771990e+01 1.177549e+01 1.658088e+01
      vertex -2.771991e+01 1.577278e+01 1.349923e+01
      vertex -2.643406e+01 1.485035e+01 1.416893e+01
    endloop
  endfacet
  facet normal 6.268704e-02 -6.192926e-01 -7.826537e-01
    outer loop
      vertex -2.338603e+01 1.180237e+01 1.658073e+01
      vertex -2.338606e+01 1.485037e+01 1.416893e+01
      vertex -2.263444e+01 1.577280e+01 1.349924e+01
    endloop
  endfacet
  facet normal -2.165642e-02 -6.104143e-01 -7.917861e-01
    outer loop
      vertex -2.263444e+01 1.577280e+01 1.349924e+01
      vertex -2.263443e+01 1.177550e+01 1.658089e+01
      vertex -2.338603e+01 1.180237e+01 1.658073e+01
    endloop
  endfacet
  facet normal -1.309499e-02 -6.148846e-01 7.885084e-01
    outer loop
      vertex 2.771969e+01 1.577306e+01 3.116707e+00
      vertex 2.648482e+01 1.485087e+01 2.377075e+00
      vertex 2.648485e+01 1.180288e+01 2.270937e-04
    endloop
  endfacet
  facet normal -1.340438e-02 -6.148223e-01 7.885517e-01
    outer loop
      vertex 2.648485e+01 1.180288e+01 2.270937e-04
      vertex 2.771971e+01 1.177577e+01 8.175373e-05
      vertex 2.771969e+01 1.577306e+01 3.116707e+00
    endloop
  endfacet
  facet normal 3.115687e-06 -6.256701e-01 7.800878e-01
    outer loop
      vertex 2.343682e+01 1.485084e+01 2.377062e+00
      vertex 2.648482e+01 1.485087e+01 2.377075e+00
      vertex 2.771969e+01 1.577306e+01 3.116707e+00
    endloop
  endfacet
  facet normal 8.792695e-07 -6.256638e-01 7.800928e-01
    outer loop
      vertex 2.771969e+01 1.577306e+01 3.116707e+00
      vertex 2.231955e+01 1.577304e+01 3.116701e+00
      vertex 2.343682e+01 1.485084e+01 2.377062e+00
    endloop
  endfacet
  facet normal 1.480154e-02 -6.148673e-01 7.884916e-01
    outer loop
      vertex 2.231957e+01 1.177576e+01 7.569790e-05
      vertex 2.343684e+01 1.180285e+01 2.301216e-04
      vertex 2.343682e+01 1.485084e+01 2.377062e+00
    endloop
  endfacet
  facet normal 1.454912e-02 -6.148124e-01 7.885392e-01
    outer loop
      vertex 2.343682e+01 1.485084e+01 2.377062e+00
      vertex 2.231955e+01 1.577304e+01 3.116701e+00
      vertex 2.231957e+01 1.177576e+01 7.569790e-05
    endloop
  endfacet
  facet normal 1.046182e-06 -5.313600e-03 9.999859e-01
    outer loop
      vertex 2.771971e+01 1.177577e+01 8.175373e-05
      vertex 2.648485e+01 1.180288e+01 2.270937e-04
      vertex 2.343684e+01 1.180285e+01 2.301216e-04
    endloop
  endfacet
  facet normal -1.105553e-06 -5.653917e-03 9.999840e-01
    outer loop
      vertex 2.343684e+01 1.180285e+01 2.301216e-04
      vertex 2.231957e+01 1.177576e+01 7.569790e-05
      vertex 2.771971e+01 1.177577e+01 8.175373e-05
    endloop
  endfacet
  facet normal 1.190691e-06 3.063355e-05 -1.000000e+00
    outer loop
      vertex -2.263440e+01 -2.996779e+00 1.658085e+01
      vertex -2.771988e+01 -2.996799e+00 1.658084e+01
      vertex -2.771983e+01 -2.601428e+00 1.658086e+01
    endloop
  endfacet
  facet normal 2.381457e-06 4.595047e-05 -1.000000e+00
    outer loop
      vertex -2.771983e+01 -2.601428e+00 1.658086e+01
      vertex -2.263437e+01 -2.601410e+00 1.658087e+01
      vertex -2.263440e+01 -2.996779e+00 1.658085e+01
    endloop
  endfacet
  facet normal 2.381616e-06 1.684887e-06 -1.000000e+00
    outer loop
      vertex -2.771990e+01 1.177549e+01 1.658088e+01
      vertex -2.263437e+01 -2.601410e+00 1.658087e+01
      vertex -2.771983e+01 -2.601428e+00 1.658086e+01
    endloop
  endfacet
  facet normal -5.707462e-12 1.263657e-06 -1.000000e+00
    outer loop
      vertex -2.112604e+01 1.177551e+01 1.658089e+01
      vertex -2.112598e+01 -2.601403e+00 1.658087e+01
      vertex -2.263437e+01 -2.601410e+00 1.658087e+01
    endloop
  endfacet
  facet normal -3.737892e-06 6.271138e-01 7.789277e-01
    outer loop
      vertex -2.643457e+01 1.849347e+00 4.140524e+00
      vertex -2.338657e+01 1.849366e+00 4.140524e+00
      vertex -2.338657e+01 2.384304e+00 3.709845e+00
    endloop
  endfacet
  facet normal -3.737885e-06 6.271138e-01 7.789277e-01
    outer loop
      vertex -2.338657e+01 2.384304e+00 3.709845e+00
      vertex -2.643458e+01 2.384286e+00 3.709845e+00
      vertex -2.643457e+01 1.849347e+00 4.140524e+00
    endloop
  endfacet
  facet normal 2.980235e-06 0.000000e+00 -1.000000e+00
    outer loop
      vertex -2.338657e+01 1.849366e+00 1.092524e+00
      vertex -2.643457e+01 1.849344e+00 1.092514e+00
      vertex -2.643457e+01 2.384286e+00 1.092514e+00
    endloop
  endfacet
  facet normal 2.980235e-06 0.000000e+00 -1.000000e+00
    outer loop
      vertex -2.643457e+01 2.384286e+00 1.092514e+00
      vertex -2.338657e+01 2.384306e+00 1.092524e+00
      vertex -2.338657e+01 1.849366e+00 1.092524e+00
    endloop
  endfacet
  facet normal 0.000000e+00 0.000000e+00 1.000000e+00
    outer loop
      vertex -2.643459e+01 1.849329e+00 1.539634e+01
      vertex -2.338658e+01 1.849347e+00 1.539634e+01
      vertex -2.338659e+01 2.384288e+00 1.539634e+01
    endloop
  endfacet
  facet normal 0.000000e+00 0.000000e+00 1.000000e+00
    outer loop
      vertex -2.338659e+01 2.384288e+00 1.539634e+01
      vertex -2.643459e+01 2.384270e+00 1.539634e+01
      vertex -2.643459e+01 1.849329e+00 1.539634e+01
    endloop
  endfacet
  facet normal -3.737892e-06 6.271138e-01 -7.789277e-01
    outer loop
      vertex -2.338658e+01 1.849347e+00 1.234834e+01
      vertex -2.643458e+01 1.849329e+00 1.234834e+01
      vertex -2.643458e+01 2.384268e+00 1.277902e+01
    endloop
  endfacet
  facet normal -5.908438e-06 6.271062e-01 -7.789337e-01
    outer loop
      vertex -2.643458e+01 2.384268e+00 1.277902e+01
      vertex -2.338659e+01 2.384289e+00 1.277902e+01
      vertex -2.338658e+01 1.849347e+00 1.234834e+01
    endloop
  endfacet
  facet normal 1.000000e+00 1.132054e-05 0.000000e+00
    outer loop
      vertex -2.338658e+01 1.849347e+00 1.539634e+01
      vertex -2.338658e+01 1.849347e+00 1.234834e+01
      vertex -2.338659e+01 2.384289e+00 1.277902e+01
    endloop
  endfacet
  facet normal 1.000000e+00 1.132057e-05 6.548241e-12
    outer loop
      vertex -2.338659e+01 2.384289e+00 1.277902e+01
      vertex -2.338659e+01 2.384288e+00 1.539634e+01
      vertex -2.338658e+01 1.849347e+00 1.539634e+01
    endloop
  endfacet
  facet normal 1.000000e+00 0.000000e+00 0.000000e+00
    outer loop
      vertex -2.338657e+01 1.849366e+00 4.140524e+00
      vertex -2.338657e+01 1.849366e+00 1.092524e+00
      vertex -2.338657e+01 2.384306e+00 1.092524e+00
    endloop
  endfacet
  facet normal 1.000000e+00 0.000000e+00 0.000000e+00
    outer loop
      vertex -2.338657e+01 2.384306e+00 1.092524e+00
      vertex -2.338657e+01 2.384304e+00 3.709845e+00
      vertex -2.338657e+01 1.849366e+00 4.140524e+00
    endloop
  endfacet
  facet normal -1.000000e+00 -1.132060e-05 1.124597e-11
    outer loop
      vertex -2.643457e+01 1.849344e+00 1.092514e+00
      vertex -2.643457e+01 1.849347e+00 4.140524e+00
      vertex -2.643458e+01 2.384286e+00 3.709845e+00
    endloop
  endfacet
  facet normal -1.000000e+00 0.000000e+00 -2.313744e-06
    outer loop
      vertex -2.643458e+01 2.384286e+00 3.709845e+00
      vertex -2.643457e+01 2.384286e+00 1.092514e+00
      vertex -2.643457e+01 1.849344e+00 1.092514e+00
    endloop
  endfacet
  facet normal -1.000000e+00 0.000000e+00 -1.986823e-06
    outer loop
      vertex -2.643458e+01 1.849329e+00 1.234834e+01
      vertex -2.643459e+01 1.849329e+00 1.539634e+01
      vertex -2.643459e+01 2.384270e+00 1.539634e+01
    endloop
  endfacet
  facet normal -1.000000e+00 1.862802e-06 -2.313755e-06
    outer loop
      vertex -2.643459e+01 2.384270e+00 1.539634e+01
      vertex -2.643458e+01 2.384268e+00 1.277902e+01
      vertex -2.643458e+01 1.849329e+00 1.234834e+01
    endloop
  endfacet
  facet normal -1.000000e+00 -7.624997e-06 -2.313750e-06
    outer loop
      vertex -2.643458e+01 2.384268e+00 1.277902e+01
      vertex -2.643459e+01 2.384270e+00 1.539634e+01
      vertex -2.643461e+01 4.766893e+00 1.539634e+01
    endloop
  endfacet
  facet normal -1.000000e+00 -1.016667e-05 1.176159e-11
    outer loop
      vertex -2.643461e+01 4.766893e+00 1.539634e+01
      vertex -2.643461e+01 4.766890e+00 1.277902e+01
      vertex -2.643458e+01 2.384268e+00 1.277902e+01
    endloop
  endfacet
  facet normal -1.000000e+00 -7.624993e-06 -2.313744e-06
    outer loop
      vertex -2.643457e+01 2.384286e+00 1.092514e+00
      vertex -2.643458e+01 2.384286e+00 3.709845e+00
      vertex -2.643459e+01 4.766911e+00 3.709845e+00
    endloop
  endfacet
  facet normal -1.000000e+00 -1.016667e-05 1.176153e-11
    outer loop
      vertex -2.643459e+01 4.766911e+00 3.709845e+00
      vertex -2.643459e+01 4.766908e+00 1.092514e+00
      vertex -2.643457e+01 2.384286e+00 1.092514e+00
    endloop
  endfacet
  facet normal 1.000000e+00 7.624997e-06 4.410588e-12
    outer loop
      vertex -2.338657e+01 2.384304e+00 3.709845e+00
      vertex -2.338657e+01 2.384306e+00 1.092524e+00
      vertex -2.338659e+01 4.766929e+00 1.092524e+00
    endloop
  endfacet
  facet normal 1.000000e+00 1.016666e-05 2.313752e-06
    outer loop
      vertex -2.338659e+01 4.766929e+00 1.092524e+00
      vertex -2.338660e+01 4.766929e+00 3.709845e+00
      vertex -2.338657e+01 2.384304e+00 3.709845e+00
    endloop
  endfacet
  facet normal 1.000000e+00 7.625003e-06 4.410585e-12
    outer loop
      vertex -2.338659e+01 2.384288e+00 1.539634e+01
      vertex -2.338659e+01 2.384289e+00 1.277902e+01
      vertex -2.338661e+01 4.766911e+00 1.277902e+01
    endloop
  endfacet
  facet normal 1.000000e+00 7.624997e-06 0.000000e+00
    outer loop
      vertex -2.338661e+01 4.766911e+00 1.277902e+01
      vertex -2.338661e+01 4.766911e+00 1.539633e+01
      vertex -2.338659e+01 2.384288e+00 1.539634e+01
    endloop
  endfacet
  facet normal -1.986827e-06 -2.019942e-11 -1.000000e+00
    outer loop
      vertex -2.338659e+01 2.384289e+00 1.277902e+01
      vertex -2.643458e+01 2.384268e+00 1.277902e+01
      vertex -2.643461e+01 4.766890e+00 1.277902e+01
    endloop
  endfacet
  facet normal -1.986823e-06 -1.514953e-11 -1.000000e+00
    outer loop
      vertex -2.643461e+01 4.766890e+00 1.277902e+01
      vertex -2.338661e+01 4.766911e+00 1.277902e+01
      vertex -2.338659e+01 2.384289e+00 1.277902e+01
    endloop
  endfacet
  facet normal -1.514952e-11 2.541666e-06 1.000000e+00
    outer loop
      vertex -2.643459e+01 2.384270e+00 1.539634e+01
      vertex -2.338659e+01 2.384288e+00 1.539634e+01
      vertex -2.338661e+01 4.766911e+00 1.539633e+01
    endloop
  endfacet
  facet normal 1.986823e-06 1.514952e-11 1.000000e+00
    outer loop
      vertex -2.338661e+01 4.766911e+00 1.539633e+01
      vertex -2.643461e+01 4.766893e+00 1.539634e+01
      vertex -2.643459e+01 2.384270e+00 1.539634e+01
    endloop
  endfacet
  facet normal 2.980235e-06 3.029907e-11 -1.000000e+00
    outer loop
      vertex -2.338657e+01 2.384306e+00 1.092524e+00
      vertex -2.643457e+01 2.384286e+00 1.092514e+00
      vertex -2.643459e+01 4.766908e+00 1.092514e+00
    endloop
  endfacet
  facet normal 2.980229e-06 2.272424e-11 -1.000000e+00
    outer loop
      vertex -2.643459e+01 4.766908e+00 1.092514e+00
      vertex -2.338659e+01 4.766929e+00 1.092524e+00
      vertex -2.338657e+01 2.384306e+00 1.092524e+00
    endloop
  endfacet
  facet normal 0.000000e+00 0.000000e+00 1.000000e+00
    outer loop
      vertex -2.643458e+01 2.384286e+00 3.709845e+00
      vertex -2.338657e+01 2.384304e+00 3.709845e+00
      vertex -2.338660e+01 4.766929e+00 3.709845e+00
    endloop
  endfacet
  facet normal 0.000000e+00 0.000000e+00 1.000000e+00
    outer loop
      vertex -2.338660e+01 4.766929e+00 3.709845e+00
      vertex -2.643459e+01 4.766911e+00 3.709845e+00
      vertex -2.643458e+01 2.384286e+00 3.709845e+00
    endloop
  endfacet
  facet normal -5.960470e-06 1.000000e+00 -1.379105e-11
    outer loop
      vertex -2.643459e+01 4.766911e+00 3.709845e+00
      vertex -2.338660e+01 4.766929e+00 3.709845e+00
      vertex -2.338659e+01 4.766929e+00 1.092524e+00
    endloop
  endfacet
  facet normal -6.953865e-06 1.000000e+00 -1.156872e-06
    outer loop
      vertex -2.338659e+01 4.766929e+00 1.092524e+00
      vertex -2.643459e+01 4.766908e+00 1.092514e+00
      vertex -2.643459e+01 4.766911e+00 3.709845e+00
    endloop
  endfacet
  facet normal -5.960470e-06 1.000000e+00 0.000000e+00
    outer loop
      vertex -2.643461e+01 4.766893e+00 1.539634e+01
      vertex -2.338661e+01 4.766911e+00 1.539633e+01
      vertex -2.338661e+01 4.766911e+00 1.277902e+01
    endloop
  endfacet
  facet normal -6.953884e-06 1.000000e+00 -1.156877e-06
    outer loop
      vertex -2.338661e+01 4.766911e+00 1.277902e+01
      vertex -2.643461e+01 4.766890e+00 1.277902e+01
      vertex -2.643461e+01 4.766893e+00 1.539634e+01
    endloop
  endfacet
  facet normal 1.000000e+00 7.782524e-06 2.114011e-06
    outer loop
      vertex 2.517284e+01 3.207116e+00 2.978594e+01
      vertex 2.517285e+01 2.472356e+00 3.105858e+01
      vertex 2.517286e+01 8.848562e-01 2.830895e+01
    endloop
  endfacet
  facet normal 1.000000e+00 1.030237e-05 -1.847939e-06
    outer loop
      vertex 2.517286e+01 8.848562e-01 2.830895e+01
      vertex 2.517285e+01 2.354380e+00 2.830895e+01
      vertex 2.517284e+01 3.207116e+00 2.978594e+01
    endloop
  endfacet
  facet normal 1.000000e+00 8.583064e-06 2.182269e-06
    outer loop
      vertex 2.517283e+01 4.912596e+00 2.978594e+01
      vertex 2.517282e+01 5.647356e+00 3.105858e+01
      vertex 2.517285e+01 2.472356e+00 3.105858e+01
    endloop
  endfacet
  facet normal 1.000000e+00 8.877021e-06 2.745920e-06
    outer loop
      vertex 2.517285e+01 2.472356e+00 3.105858e+01
      vertex 2.517284e+01 3.207116e+00 2.978594e+01
      vertex 2.517283e+01 4.912596e+00 2.978594e+01
    endloop
  endfacet
  facet normal 1.000000e+00 8.241916e-06 1.454847e-06
    outer loop
      vertex 2.517282e+01 5.765336e+00 2.830895e+01
      vertex 2.517281e+01 7.234856e+00 2.830895e+01
      vertex 2.517282e+01 5.647356e+00 3.105858e+01
    endloop
  endfacet
  facet normal 1.000000e+00 9.732241e-06 1.518793e-06
    outer loop
      vertex 2.517282e+01 5.647356e+00 3.105858e+01
      vertex 2.517283e+01 4.912596e+00 2.978594e+01
      vertex 2.517282e+01 5.765336e+00 2.830895e+01
    endloop
  endfacet
  facet normal 1.000000e+00 4.768360e-06 2.753031e-06
    outer loop
      vertex 2.517282e+01 4.912596e+00 2.683196e+01
      vertex 2.517282e+01 5.647359e+00 2.555932e+01
      vertex 2.517281e+01 7.234856e+00 2.830895e+01
    endloop
  endfacet
  facet normal 1.000000e+00 8.241916e-06 -2.708405e-06
    outer loop
      vertex 2.517281e+01 7.234856e+00 2.830895e+01
      vertex 2.517282e+01 5.765336e+00 2.830895e+01
      vertex 2.517282e+01 4.912596e+00 2.683196e+01
    endloop
  endfacet
  facet normal 1.000000e+00 7.629395e-06 3.536389e-07
    outer loop
      vertex 2.517284e+01 3.207119e+00 2.683196e+01
      vertex 2.517285e+01 2.472359e+00 2.555932e+01
      vertex 2.517282e+01 5.647359e+00 2.555932e+01
    endloop
  endfacet
  facet normal 1.000000e+00 1.065247e-05 6.150243e-06
    outer loop
      vertex 2.517282e+01 5.647359e+00 2.555932e+01
      vertex 2.517282e+01 4.912596e+00 2.683196e+01
      vertex 2.517284e+01 3.207119e+00 2.683196e+01
    endloop
  endfacet
  facet normal 1.000000e+00 1.030237e-05 4.420486e-07
    outer loop
      vertex 2.517285e+01 2.354380e+00 2.830895e+01
      vertex 2.517286e+01 8.848562e-01 2.830895e+01
      vertex 2.517285e+01 2.472359e+00 2.555932e+01
    endloop
  endfacet
  facet normal 1.000000e+00 7.671766e-06 3.291759e-07
    outer loop
      vertex 2.517285e+01 2.472359e+00 2.555932e+01
      vertex 2.517284e+01 3.207119e+00 2.683196e+01
      vertex 2.517285e+01 2.354380e+00 2.830895e+01
    endloop
  endfacet
  facet normal 2.118334e-06 1.616161e-11 -1.000000e+00
    outer loop
      vertex 2.517282e+01 5.647359e+00 2.555932e+01
      vertex 2.517285e+01 2.472359e+00 2.555932e+01
      vertex 2.231408e+01 2.472337e+00 2.555931e+01
    endloop
  endfacet
  facet normal -1.414140e-11 1.907348e-06 -1.000000e+00
    outer loop
      vertex 2.231408e+01 2.472337e+00 2.555931e+01
      vertex 2.231405e+01 5.647338e+00 2.555932e+01
      vertex 2.517282e+01 5.647359e+00 2.555932e+01
    endloop
  endfacet
  facet normal 4.757119e-06 4.222905e-11 -1.000000e+00
    outer loop
      vertex 2.517282e+01 4.912596e+00 2.683196e+01
      vertex 2.771883e+01 4.912620e+00 2.683197e+01
      vertex 2.771885e+01 3.207141e+00 2.683197e+01
    endloop
  endfacet
  facet normal 2.378592e-06 -3.550789e-06 -1.000000e+00
    outer loop
      vertex 2.771885e+01 3.207141e+00 2.683197e+01
      vertex 2.517284e+01 3.207119e+00 2.683196e+01
      vertex 2.517282e+01 4.912596e+00 2.683196e+01
    endloop
  endfacet
  facet normal -7.338142e-06 8.660256e-01 4.999998e-01
    outer loop
      vertex 2.517282e+01 5.647356e+00 3.105858e+01
      vertex 2.517281e+01 7.234856e+00 2.830895e+01
      vertex 2.231404e+01 7.234832e+00 2.830895e+01
    endloop
  endfacet
  facet normal -7.338158e-06 8.660256e-01 4.999998e-01
    outer loop
      vertex 2.231404e+01 7.234832e+00 2.830895e+01
      vertex 2.231406e+01 5.647332e+00 3.105858e+01
      vertex 2.517282e+01 5.647356e+00 3.105858e+01
    endloop
  endfacet
  facet normal 8.255414e-06 -8.660250e-01 5.000006e-01
    outer loop
      vertex 2.517286e+01 8.848562e-01 2.830895e+01
      vertex 2.517285e+01 2.472356e+00 3.105858e+01
      vertex 2.231408e+01 2.472329e+00 3.105858e+01
    endloop
  endfacet
  facet normal 5.820340e-06 -8.660262e-01 4.999987e-01
    outer loop
      vertex 2.231408e+01 2.472329e+00 3.105858e+01
      vertex 2.231410e+01 8.848335e-01 2.830894e+01
      vertex 2.517286e+01 8.848562e-01 2.830895e+01
    endloop
  endfacet
  facet normal -6.420864e-06 8.660259e-01 -4.999990e-01
    outer loop
      vertex 2.517281e+01 7.234856e+00 2.830895e+01
      vertex 2.517282e+01 5.647359e+00 2.555932e+01
      vertex 2.231405e+01 5.647338e+00 2.555932e+01
    endloop
  endfacet
  facet normal -7.338149e-06 8.660263e-01 -4.999983e-01
    outer loop
      vertex 2.231405e+01 5.647338e+00 2.555932e+01
      vertex 2.231404e+01 7.234832e+00 2.830895e+01
      vertex 2.517281e+01 7.234856e+00 2.830895e+01
    endloop
  endfacet
  facet normal -9.428863e-06 8.660251e-01 5.000004e-01
    outer loop
      vertex 2.771883e+01 5.765360e+00 2.830896e+01
      vertex 2.517282e+01 5.765336e+00 2.830895e+01
      vertex 2.517283e+01 4.912596e+00 2.978594e+01
    endloop
  endfacet
  facet normal -9.428851e-06 8.660251e-01 5.000004e-01
    outer loop
      vertex 2.517283e+01 4.912596e+00 2.978594e+01
      vertex 2.771884e+01 4.912620e+00 2.978594e+01
      vertex 2.771883e+01 5.765360e+00 2.830896e+01
    endloop
  endfacet
  facet normal 1.616168e-11 -1.907349e-06 1.000000e+00
    outer loop
      vertex 2.517285e+01 2.472356e+00 3.105858e+01
      vertex 2.517282e+01 5.647356e+00 3.105858e+01
      vertex 2.231406e+01 5.647332e+00 3.105858e+01
    endloop
  endfacet
  facet normal 1.818185e-11 -1.907347e-06 1.000000e+00
    outer loop
      vertex 2.231406e+01 5.647332e+00 3.105858e+01
      vertex 2.231408e+01 2.472329e+00 3.105858e+01
      vertex 2.517285e+01 2.472356e+00 3.105858e+01
    endloop
  endfacet
  facet normal -2.378560e-06 -2.111453e-11 1.000000e+00
    outer loop
      vertex 2.771884e+01 4.912620e+00 2.978594e+01
      vertex 2.517283e+01 4.912596e+00 2.978594e+01
      vertex 2.517284e+01 3.207116e+00 2.978594e+01
    endloop
  endfacet
  facet normal -2.378560e-06 -2.111453e-11 1.000000e+00
    outer loop
      vertex 2.517284e+01 3.207116e+00 2.978594e+01
      vertex 2.771885e+01 3.207141e+00 2.978594e+01
      vertex 2.771884e+01 4.912620e+00 2.978594e+01
    endloop
  endfacet
  facet normal 7.938667e-06 -8.660251e-01 -5.000005e-01
    outer loop
      vertex 2.517286e+01 8.848562e-01 2.830895e+01
      vertex 2.231410e+01 8.848335e-01 2.830894e+01
      vertex 2.231408e+01 2.472337e+00 2.555931e+01
    endloop
  endfacet
  facet normal 7.938659e-06 -8.660251e-01 -5.000005e-01
    outer loop
      vertex 2.231408e+01 2.472337e+00 2.555931e+01
      vertex 2.517285e+01 2.472359e+00 2.555932e+01
      vertex 2.517286e+01 8.848562e-01 2.830895e+01
    endloop
  endfacet
  facet normal 7.724601e-06 -8.660247e-01 -5.000013e-01
    outer loop
      vertex 2.771885e+01 3.207141e+00 2.683197e+01
      vertex 2.771885e+01 2.354402e+00 2.830895e+01
      vertex 2.517285e+01 2.354380e+00 2.830895e+01
    endloop
  endfacet
  facet normal 8.398914e-06 -8.660251e-01 -5.000004e-01
    outer loop
      vertex 2.517285e+01 2.354380e+00 2.830895e+01
      vertex 2.517284e+01 3.207119e+00 2.683196e+01
      vertex 2.771885e+01 3.207141e+00 2.683197e+01
    endloop
  endfacet
  facet normal -5.861009e-06 8.660251e-01 -5.000004e-01
    outer loop
      vertex 2.771883e+01 5.765360e+00 2.830896e+01
      vertex 2.771883e+01 4.912620e+00 2.683197e+01
      vertex 2.517282e+01 4.912596e+00 2.683196e+01
    endloop
  endfacet
  facet normal -7.050310e-06 8.660260e-01 -4.999989e-01
    outer loop
      vertex 2.517282e+01 4.912596e+00 2.683196e+01
      vertex 2.517282e+01 5.765336e+00 2.830895e+01
      vertex 2.771883e+01 5.765360e+00 2.830896e+01
    endloop
  endfacet
  facet normal 7.050307e-06 -8.660265e-01 4.999982e-01
    outer loop
      vertex 2.771885e+01 2.354402e+00 2.830895e+01
      vertex 2.771885e+01 3.207141e+00 2.978594e+01
      vertex 2.517284e+01 3.207116e+00 2.978594e+01
    endloop
  endfacet
  facet normal 7.724613e-06 -8.660259e-01 4.999991e-01
    outer loop
      vertex 2.517284e+01 3.207116e+00 2.978594e+01
      vertex 2.517285e+01 2.354380e+00 2.830895e+01
      vertex 2.771885e+01 2.354402e+00 2.830895e+01
    endloop
  endfacet
  facet normal -3.219268e-12 2.071476e-06 -1.000000e+00
    outer loop
      vertex 2.771914e+01 7.810387e+00 3.751627e+01
      vertex 2.382245e+01 7.810381e+00 3.751627e+01
      vertex 2.382246e+01 1.073382e+01 3.751627e+01
    endloop
  endfacet
  facet normal -3.219262e-12 2.071476e-06 -1.000000e+00
    outer loop
      vertex 2.382246e+01 1.073382e+01 3.751627e+01
      vertex 2.771917e+01 1.073383e+01 3.751627e+01
      vertex 2.771914e+01 7.810387e+00 3.751627e+01
    endloop
  endfacet
  facet normal -2.771231e-12 1.783182e-06 -1.000000e+00
    outer loop
      vertex 2.382247e+01 -2.377863e+00 3.751625e+01
      vertex 2.382245e+01 7.810381e+00 3.751627e+01
      vertex 2.771914e+01 7.810387e+00 3.751627e+01
    endloop
  endfacet
  facet normal -3.464040e-12 1.783182e-06 -1.000000e+00
    outer loop
      vertex 2.771914e+01 7.810387e+00 3.751627e+01
      vertex 2.771917e+01 -2.377856e+00 3.751625e+01
      vertex 2.382247e+01 -2.377863e+00 3.751625e+01
    endloop
  endfacet
  facet normal 4.014767e-06 1.188798e-06 -1.000000e+00
    outer loop
      vertex 2.231408e+01 -2.377872e+00 3.751625e+01
      vertex 2.231406e+01 7.810372e+00 3.751626e+01
      vertex 2.382245e+01 7.810381e+00 3.751627e+01
    endloop
  endfacet
  facet normal -9.843746e-12 1.783182e-06 -1.000000e+00
    outer loop
      vertex 2.382245e+01 7.810381e+00 3.751627e+01
      vertex 2.382247e+01 -2.377863e+00 3.751625e+01
      vertex 2.231408e+01 -2.377872e+00 3.751625e+01
    endloop
  endfacet
  facet normal 1.000000e+00 3.315832e-06 2.490440e-06
    outer loop
      vertex 2.231410e+01 8.848335e-01 2.830894e+01
      vertex 2.231408e+01 2.472329e+00 3.105858e+01
      vertex 2.231408e+01 -2.377872e+00 3.751625e+01
    endloop
  endfacet
  facet normal 1.000000e+00 7.629392e-06 -2.555513e-06
    outer loop
      vertex 2.231408e+01 2.472329e+00 3.105858e+01
      vertex 2.231406e+01 5.647332e+00 3.105858e+01
      vertex 2.231406e+01 7.810372e+00 3.751626e+01
    endloop
  endfacet
  facet normal 1.000000e+00 2.377574e-06 1.785738e-06
    outer loop
      vertex 2.231406e+01 7.810372e+00 3.751626e+01
      vertex 2.231408e+01 -2.377872e+00 3.751625e+01
      vertex 2.231408e+01 2.472329e+00 3.105858e+01
    endloop
  endfacet
  facet normal 1.000000e+00 6.035296e-06 -2.021560e-06
    outer loop
      vertex 2.231404e+01 7.234832e+00 2.830895e+01
      vertex 2.231406e+01 7.810372e+00 3.751626e+01
      vertex 2.231406e+01 5.647332e+00 3.105858e+01
    endloop
  endfacet
  facet normal -1.000000e+00 -8.877021e-06 3.432272e-05
    outer loop
      vertex 2.771884e+01 4.912620e+00 2.978594e+01
      vertex 2.771885e+01 3.207141e+00 2.978594e+01
      vertex 2.771917e+01 -2.377856e+00 3.751625e+01
    endloop
  endfacet
  facet normal -1.000000e+00 -2.080452e-06 4.073259e-05
    outer loop
      vertex 2.771917e+01 -2.377856e+00 3.751625e+01
      vertex 2.771914e+01 7.810387e+00 3.751627e+01
      vertex 2.771884e+01 4.912620e+00 2.978594e+01
    endloop
  endfacet
  facet normal -1.000000e+00 3.549910e-05 2.664562e-05
    outer loop
      vertex 2.771883e+01 5.765360e+00 2.830896e+01
      vertex 2.771884e+01 4.912620e+00 2.978594e+01
      vertex 2.771914e+01 7.810387e+00 3.751627e+01
    endloop
  endfacet
  facet normal 3.415850e-06 -9.987639e-01 -4.970701e-02
    outer loop
      vertex 2.231955e+01 1.177573e+01 1.658093e+01
      vertex 2.771969e+01 1.177575e+01 1.658093e+01
      vertex 2.771917e+01 1.073383e+01 3.751627e+01
    endloop
  endfacet
  facet normal 1.552170e-06 -9.987639e-01 -4.970653e-02
    outer loop
      vertex 2.771917e+01 1.073383e+01 3.751627e+01
      vertex 2.382246e+01 1.073382e+01 3.751627e+01
      vertex 2.231955e+01 1.177573e+01 1.658093e+01
    endloop
  endfacet
  facet normal -1.757134e-06 8.423340e-01 -5.389559e-01
    outer loop
      vertex 2.771989e+01 -1.577304e+01 1.658092e+01
      vertex 2.231975e+01 -1.577306e+01 1.658091e+01
      vertex 2.382247e+01 -2.377863e+00 3.751625e+01
    endloop
  endfacet
  facet normal -1.636332e-06 8.423340e-01 -5.389559e-01
    outer loop
      vertex 2.382247e+01 -2.377863e+00 3.751625e+01
      vertex 2.771917e+01 -2.377856e+00 3.751625e+01
      vertex 2.771989e+01 -1.577304e+01 1.658092e+01
    endloop
  endfacet
  facet normal -4.649959e-06 8.423341e-01 -5.389557e-01
    outer loop
      vertex 2.231975e+01 -1.577306e+01 1.658091e+01
      vertex 2.231408e+01 -2.377872e+00 3.751625e+01
      vertex 2.382247e+01 -2.377863e+00 3.751625e+01
    endloop
  endfacet
  facet normal 9.999999e-01 2.710081e-04 9.735000e-05
    outer loop
      vertex 2.231975e+01 -1.577306e+01 1.658091e+01
      vertex 2.231410e+01 8.848335e-01 2.830894e+01
      vertex 2.231408e+01 -2.377872e+00 3.751625e+01
    endloop
  endfacet
  facet normal 9.999999e-01 2.447231e-04 1.346839e-04
    outer loop
      vertex 2.231975e+01 -1.577306e+01 1.658091e+01
      vertex 2.231408e+01 2.472337e+00 2.555931e+01
      vertex 2.231410e+01 8.848335e-01 2.830894e+01
    endloop
  endfacet
  facet normal 9.999998e-01 7.628219e-06 6.139560e-04
    outer loop
      vertex 2.231962e+01 -1.295584e+00 1.658091e+01
      vertex 2.231405e+01 5.647338e+00 2.555932e+01
      vertex 2.231408e+01 2.472337e+00 2.555931e+01
    endloop
  endfacet
  facet normal 9.999998e-01 9.202455e-06 6.132953e-04
    outer loop
      vertex 2.231408e+01 2.472337e+00 2.555931e+01
      vertex 2.231975e+01 -1.577306e+01 1.658091e+01
      vertex 2.231962e+01 -1.295584e+00 1.658091e+01
    endloop
  endfacet
  facet normal 9.999998e-01 7.372166e-06 6.141540e-04
    outer loop
      vertex 2.231960e+01 3.418419e+00 1.656377e+01
      vertex 2.231405e+01 5.647338e+00 2.555932e+01
      vertex 2.231962e+01 -1.295584e+00 1.658091e+01
    endloop
  endfacet
  facet normal 9.999998e-01 5.816603e-06 6.145394e-04
    outer loop
      vertex 2.231957e+01 7.061729e+00 1.656377e+01
      vertex 2.231405e+01 5.647338e+00 2.555932e+01
      vertex 2.231960e+01 3.418419e+00 1.656377e+01
    endloop
  endfacet
  facet normal 9.999998e-01 2.261743e-06 6.139805e-04
    outer loop
      vertex 2.231955e+01 1.177573e+01 1.658093e+01
      vertex 2.231405e+01 5.647338e+00 2.555932e+01
      vertex 2.231957e+01 7.061729e+00 1.656377e+01
    endloop
  endfacet
  facet normal 9.999998e-01 -4.834700e-04 2.824339e-04
    outer loop
      vertex 2.231955e+01 1.177573e+01 1.658093e+01
      vertex 2.231404e+01 7.234832e+00 2.830895e+01
      vertex 2.231405e+01 5.647338e+00 2.555932e+01
    endloop
  endfacet
  facet normal 9.999995e-01 -1.047982e-03 6.386406e-05
    outer loop
      vertex 2.231955e+01 1.177573e+01 1.658093e+01
      vertex 2.231406e+01 7.810372e+00 3.751626e+01
      vertex 2.231404e+01 7.234832e+00 2.830895e+01
    endloop
  endfacet
  facet normal 4.014762e-06 2.058066e-06 -1.000000e+00
    outer loop
      vertex 2.382245e+01 7.810381e+00 3.751627e+01
      vertex 2.231406e+01 7.810372e+00 3.751626e+01
      vertex 2.232383e+01 1.073380e+01 3.751627e+01
    endloop
  endfacet
  facet normal 4.040881e-06 2.071455e-06 -1.000000e+00
    outer loop
      vertex 2.232383e+01 1.073380e+01 3.751627e+01
      vertex 2.382246e+01 1.073382e+01 3.751627e+01
      vertex 2.382245e+01 7.810381e+00 3.751627e+01
    endloop
  endfacet
  facet normal 1.029063e-05 -9.987639e-01 -4.970716e-02
    outer loop
      vertex 2.231955e+01 1.177573e+01 1.658093e+01
      vertex 2.382246e+01 1.073382e+01 3.751627e+01
      vertex 2.232383e+01 1.073380e+01 3.751627e+01
    endloop
  endfacet
  facet normal 9.999943e-01 -3.341279e-03 -3.705100e-04
    outer loop
      vertex 2.231955e+01 1.177573e+01 1.658093e+01
      vertex 2.232383e+01 1.073380e+01 3.751627e+01
      vertex 2.231406e+01 7.810372e+00 3.751626e+01
    endloop
  endfacet
  facet normal -1.000000e+00 7.250099e-06 3.291998e-05
    outer loop
      vertex 2.771883e+01 5.765360e+00 2.830896e+01
      vertex 2.771914e+01 7.810387e+00 3.751627e+01
      vertex 2.771917e+01 1.073383e+01 3.751627e+01
    endloop
  endfacet
  facet normal -1.000000e+00 1.049451e-04 -1.979834e-05
    outer loop
      vertex 2.771969e+01 1.177575e+01 1.658093e+01
      vertex 2.771883e+01 5.765360e+00 2.830896e+01
      vertex 2.771917e+01 1.073383e+01 3.751627e+01
    endloop
  endfacet
  facet normal -1.000000e+00 6.375349e-05 -4.090826e-05
    outer loop
      vertex 2.771969e+01 1.177575e+01 1.658093e+01
      vertex 2.771883e+01 4.912620e+00 2.683197e+01
      vertex 2.771883e+01 5.765360e+00 2.830896e+01
    endloop
  endfacet
  facet normal -1.000000e+00 -4.822613e-06 -8.682036e-05
    outer loop
      vertex 2.771969e+01 1.177575e+01 1.658093e+01
      vertex 2.771971e+01 7.061741e+00 1.656378e+01
      vertex 2.771883e+01 4.912620e+00 2.683197e+01
    endloop
  endfacet
  facet normal -1.000000e+00 -4.986401e-06 -8.620843e-05
    outer loop
      vertex 2.771971e+01 7.061741e+00 1.656378e+01
      vertex 2.771973e+01 3.418438e+00 1.656377e+01
      vertex 2.771885e+01 3.207141e+00 2.683197e+01
    endloop
  endfacet
  facet normal -1.000000e+00 -8.877021e-06 -8.766894e-05
    outer loop
      vertex 2.771885e+01 3.207141e+00 2.683197e+01
      vertex 2.771883e+01 4.912620e+00 2.683197e+01
      vertex 2.771971e+01 7.061741e+00 1.656378e+01
    endloop
  endfacet
  facet normal -1.000000e+00 -4.167407e-06 -8.619158e-05
    outer loop
      vertex 2.771973e+01 3.418438e+00 1.656377e+01
      vertex 2.771975e+01 -1.295566e+00 1.658092e+01
      vertex 2.771885e+01 3.207141e+00 2.683197e+01
    endloop
  endfacet
  facet normal -1.000000e+00 -9.061836e-05 -4.821857e-05
    outer loop
      vertex 2.771975e+01 -1.295566e+00 1.658092e+01
      vertex 2.771885e+01 2.354402e+00 2.830895e+01
      vertex 2.771885e+01 3.207141e+00 2.683197e+01
    endloop
  endfacet
  facet normal -1.000000e+00 -9.411601e-06 -7.349153e-05
    outer loop
      vertex 2.771989e+01 -1.577304e+01 1.658092e+01
      vertex 2.771885e+01 2.354402e+00 2.830895e+01
      vertex 2.771975e+01 -1.295566e+00 1.658092e+01
    endloop
  endfacet
  facet normal -1.000000e+00 -5.919114e-05 3.450260e-06
    outer loop
      vertex 2.771989e+01 -1.577304e+01 1.658092e+01
      vertex 2.771917e+01 -2.377856e+00 3.751625e+01
      vertex 2.771885e+01 2.354402e+00 2.830895e+01
    endloop
  endfacet
  facet normal -1.000000e+00 -3.291685e-05 1.695441e-05
    outer loop
      vertex 2.771885e+01 3.207141e+00 2.978594e+01
      vertex 2.771885e+01 2.354402e+00 2.830895e+01
      vertex 2.771917e+01 -2.377856e+00 3.751625e+01
    endloop
  endfacet
  facet normal 3.989950e-06 -6.205302e-01 -7.841825e-01
    outer loop
      vertex 2.343685e+01 1.180282e+01 1.658078e+01
      vertex 2.343681e+01 1.485082e+01 1.416887e+01
      vertex 2.648481e+01 1.485085e+01 1.416887e+01
    endloop
  endfacet
  facet normal 3.989946e-06 -6.205302e-01 -7.841825e-01
    outer loop
      vertex 2.648481e+01 1.485085e+01 1.416887e+01
      vertex 2.648484e+01 1.180285e+01 1.658078e+01
      vertex 2.343685e+01 1.180282e+01 1.658078e+01
    endloop
  endfacet
  facet normal 3.989757e-06 -6.205130e-01 -7.841961e-01
    outer loop
      vertex -2.643402e+01 1.180234e+01 1.658073e+01
      vertex -2.643406e+01 1.485035e+01 1.416893e+01
      vertex -2.338606e+01 1.485037e+01 1.416893e+01
    endloop
  endfacet
  facet normal 4.606194e-06 -6.205134e-01 -7.841959e-01
    outer loop
      vertex -2.338606e+01 1.485037e+01 1.416893e+01
      vertex -2.338603e+01 1.180237e+01 1.658073e+01
      vertex -2.643402e+01 1.180234e+01 1.658073e+01
    endloop
  endfacet
  facet normal 6.892225e-06 -6.149372e-01 7.885761e-01
    outer loop
      vertex 2.343684e+01 1.180285e+01 2.301216e-04
      vertex 2.648485e+01 1.180288e+01 2.270937e-04
      vertex 2.648482e+01 1.485087e+01 2.377075e+00
    endloop
  endfacet
  facet normal 2.975304e-06 -6.149348e-01 7.885780e-01
    outer loop
      vertex 2.648482e+01 1.485087e+01 2.377075e+00
      vertex 2.343682e+01 1.485084e+01 2.377062e+00
      vertex 2.343684e+01 1.180285e+01 2.301216e-04
    endloop
  endfacet
  facet normal 6.892168e-06 -6.149310e-01 7.885810e-01
    outer loop
      vertex -2.643403e+01 1.180237e+01 1.816750e-04
      vertex -2.338603e+01 1.180240e+01 1.786470e-04
      vertex -2.338606e+01 1.485039e+01 2.376990e+00
    endloop
  endfacet
  facet normal 3.758608e-06 -6.149290e-01 7.885825e-01
    outer loop
      vertex -2.338606e+01 1.485039e+01 2.376990e+00
      vertex -2.643406e+01 1.485036e+01 2.376981e+00
      vertex -2.643403e+01 1.180237e+01 1.816750e-04
    endloop
  endfacet
  facet normal 3.645038e-06 -5.875149e-01 -8.092133e-01
    outer loop
      vertex 2.771967e+01 1.577304e+01 1.349933e+01
      vertex 2.648481e+01 1.485085e+01 1.416887e+01
      vertex 2.343681e+01 1.485082e+01 1.416887e+01
    endloop
  endfacet
  facet normal 4.369542e-06 -5.875171e-01 -8.092117e-01
    outer loop
      vertex 2.343681e+01 1.485082e+01 1.416887e+01
      vertex 2.231954e+01 1.577303e+01 1.349932e+01
      vertex 2.771967e+01 1.577304e+01 1.349933e+01
    endloop
  endfacet
  facet normal 3.820243e-02 -6.200770e-01 -7.836103e-01
    outer loop
      vertex 2.648484e+01 1.180285e+01 1.658078e+01
      vertex 2.648481e+01 1.485085e+01 1.416887e+01
      vertex 2.771967e+01 1.577304e+01 1.349933e+01
    endloop
  endfacet
  facet normal -1.329848e-02 -6.104978e-01 -7.919063e-01
    outer loop
      vertex 2.771967e+01 1.577304e+01 1.349933e+01
      vertex 2.771969e+01 1.177575e+01 1.658093e+01
      vertex 2.648484e+01 1.180285e+01 1.658078e+01
    endloop
  endfacet
  facet normal 1.494384e-02 -6.204609e-01 -7.840950e-01
    outer loop
      vertex 2.343681e+01 1.485082e+01 1.416887e+01
      vertex 2.343685e+01 1.180282e+01 1.658078e+01
      vertex 2.231955e+01 1.177573e+01 1.658093e+01
    endloop
  endfacet
  facet normal -2.932622e-02 -6.102905e-01 -7.916347e-01
    outer loop
      vertex 2.231955e+01 1.177573e+01 1.658093e+01
      vertex 2.231954e+01 1.577303e+01 1.349932e+01
      vertex 2.343681e+01 1.485082e+01 1.416887e+01
    endloop
  endfacet
  facet normal -1.122169e-04 -3.885198e-05 -1.000000e+00
    outer loop
      vertex -2.263437e+01 -2.601410e+00 1.658087e+01
      vertex -2.771990e+01 1.177549e+01 1.658088e+01
      vertex -2.643402e+01 1.180234e+01 1.658073e+01
    endloop
  endfacet
  facet normal -1.986726e-06 -9.773646e-06 -1.000000e+00
    outer loop
      vertex -2.263437e+01 -2.601410e+00 1.658087e+01
      vertex -2.643402e+01 1.180234e+01 1.658073e+01
      vertex -2.338603e+01 1.180237e+01 1.658073e+01
    endloop
  endfacet
  facet normal 2.095334e-04 1.264540e-06 -1.000000e+00
    outer loop
      vertex -2.263443e+01 1.177550e+01 1.658089e+01
      vertex -2.263437e+01 -2.601410e+00 1.658087e+01
      vertex -2.338603e+01 1.180237e+01 1.658073e+01
    endloop
  endfacet
  facet normal -7.609950e-12 1.263658e-06 -1.000000e+00
    outer loop
      vertex -2.112604e+01 1.177551e+01 1.658089e+01
      vertex -2.263437e+01 -2.601410e+00 1.658087e+01
      vertex -2.263443e+01 1.177550e+01 1.658089e+01
    endloop
  endfacet
endsolid Default
